<svg id="Capa_1" data-name="Capa 1" xmlns="http://www.w3.org/2000/svg" viewBox="0 0 500 164.12"><path d="M181.64,49.2h11.82c12.39,0,23.42-9.12,23.42-24.65C216.88,10,205.85,0,193.46,0H164.75V76.57h16.89Zm9-35.91c4.95,0,10.13,4.27,10.13,11.26,0,7.31-5.18,11.37-10.13,11.37h-9V13.29Z" style="fill:#004aad"/><path d="M224.17,76.57h44.36V61.26H241.06V0H224.17Z" style="fill:#004aad"/><path d="M336,38.18c0,11.48-10.39,22-21.87,22s-21.88-10.5-21.88-22S302.61,16.3,314.1,16.3,336,26.69,336,38.18Zm16.41.1C352.38,17.72,334.66,0,314.1,0s-38.29,17.72-38.29,38.28,17.72,38.29,38.29,38.29S352.38,58.85,352.38,38.28Z" style="fill:#004aad"/><path d="M376.55,49.2h.12l18.24,27.37H416.3l-22-28.15C404,46.05,411.8,37.49,411.8,24.55,411.8,10,400.76,0,388.37,0H359.66V76.57h16.89Zm9-35.91c4.95,0,10.13,4.27,10.13,11.26,0,7.31-5.18,11.37-10.13,11.37h-9V13.29Z" style="fill:#004aad"/><path d="M164.75,94.87h18.58v69.25h7.88V94.87h18.58V87.55h-45Z" style="fill:#004aad"/><path d="M224,126.1V94.91h17.79a14.74,14.74,0,0,1,11.15,4.39,16.68,16.68,0,0,1-.23,22.3,14.42,14.42,0,0,1-10.92,4.5Zm41-15.65a21.89,21.89,0,0,0-7.2-16.55,24.38,24.38,0,0,0-17.11-6.53H216.09v76.57H224v-30.3h9.12l22.52,30.3H266.2l-23.64-30.3a23.28,23.28,0,0,0,15.2-6.41A22,22,0,0,0,265,110.45Z" style="fill:#004aad"/><path d="M290.94,137.56l13.06-33,13,33Zm44.45,26.33L304,87.32l-31.49,76.57h8l7.7-19.49H319.7l7.68,19.49Z" style="fill:#004aad"/><path d="M374.51,164l32.71-76.57h-8.07l-24.64,58.2-24.75-58.2h-8.07Z" style="fill:#004aad"/><path d="M459,164.07v-7.32H421.41V129.5H457.9v-7.43H421.41V94.82H459V87.5H413.53v76.57Z" style="fill:#004aad"/><polygon points="473.21 87.41 465.33 87.41 465.33 163.98 500.2 163.98 500.2 156.1 473.21 156.1 473.21 87.41" style="fill:#004aad"/><path d="M158.33,0H114.16l-35,57-35-57H0L57,82.06,0,164.12H44.17l30.05-48.91c-.2-1.82-.37-3.86-.52-6.26L48.05,123l0-6.36L73.07,93.44c0-.63,0-1.24,0-1.84-.13-19.21,3-20.55,5.62-20.55s5.77,1.36,5.9,20.56v1.66l25.54,23.45,0,6.34v0l-26-14.22c-.11,2.17-.24,4-.39,5.74l30.42,49.52h44.17l-57-82.06Z" style="fill:#004aad"/><path d="M454.66,0,423.58,76.57h18.13l5.52-15.43H476.4l5.51,15.43h16.7V73L469,0Zm-2.59,47.29L461.76,20l9.68,27.25Z" style="fill:#004aad"/><polyline points="490.97 54.22 500.07 76.57 498.61 76.57" style="fill:#004aad"/></svg>