<svg xmlns="http://www.w3.org/2000/svg" xmlns:xlink="http://www.w3.org/1999/xlink" width="250" zoomAndPan="magnify" viewBox="0 0 187.5 60" height="80" preserveAspectRatio="xMidYMid meet" version="1.0"><defs><g/><clipPath id="1f2af48b24"><path d="M 0 0.078125 L 187 0.078125 L 187 59.917969 L 0 59.917969 Z M 0 0.078125 " clip-rule="nonzero"/></clipPath><clipPath id="d129cdaf8e"><path d="M 11.96875 0.078125 L 175.035156 0.078125 C 181.644531 0.078125 187 5.4375 187 12.046875 L 187 47.953125 C 187 54.5625 181.644531 59.921875 175.035156 59.921875 L 11.96875 59.921875 C 5.359375 59.921875 0 54.5625 0 47.953125 L 0 12.046875 C 0 5.4375 5.359375 0.078125 11.96875 0.078125 Z M 11.96875 0.078125 " clip-rule="nonzero"/></clipPath><clipPath id="91693396fb"><path d="M 0 0.078125 L 187 0.078125 L 187 59.917969 L 0 59.917969 Z M 0 0.078125 " clip-rule="nonzero"/></clipPath><clipPath id="798346f8a1"><path d="M 11.96875 0.078125 L 175.035156 0.078125 C 181.644531 0.078125 187 5.4375 187 12.046875 L 187 47.953125 C 187 54.5625 181.644531 59.921875 175.035156 59.921875 L 11.96875 59.921875 C 5.359375 59.921875 0 54.5625 0 47.953125 L 0 12.046875 C 0 5.4375 5.359375 0.078125 11.96875 0.078125 Z M 11.96875 0.078125 " clip-rule="nonzero"/></clipPath><clipPath id="17c40c1d9c"><rect x="0" width="187" y="0" height="60"/></clipPath><clipPath id="76b864f28e"><path d="M 15.253906 15.425781 L 43.675781 15.425781 L 43.675781 43.851562 L 15.253906 43.851562 Z M 15.253906 15.425781 " clip-rule="nonzero"/></clipPath></defs><g clip-path="url(#1f2af48b24)"><g clip-path="url(#d129cdaf8e)"><g transform="matrix(1, 0, 0, 1, 0, -0.00000000000000501)"><g clip-path="url(#17c40c1d9c)"><g clip-path="url(#91693396fb)"><g clip-path="url(#798346f8a1)"><path fill="#5e17eb" d="M 0 0.078125 L 187 0.078125 L 187 59.921875 L 0 59.921875 Z M 0 0.078125 " fill-opacity="1" fill-rule="nonzero"/></g></g></g></g></g></g><g fill="#ffffff" fill-opacity="1"><g transform="translate(45.429633, 44.212101)"><g><path d="M 20.90625 0 L 12.6875 -12.140625 L 4.484375 0 L 0.875 0 L 10.890625 -14.203125 L 0.84375 -28.484375 L 4.484375 -28.484375 L 12.6875 -16.34375 L 20.90625 -28.484375 L 24.5 -28.484375 L 14.5 -14.25 L 24.5 0 Z M 20.90625 0 "/></g></g></g><g fill="#ffffff" fill-opacity="1"><g transform="translate(70.813932, 44.212101)"><g><path d="M 6.078125 10.46875 L 3.140625 10.46875 L 3.140625 -18.4375 L 6.078125 -18.4375 L 6.078125 -15.296875 C 6.242188 -15.515625 6.425781 -15.722656 6.625 -15.921875 C 8.351562 -17.867188 10.488281 -18.84375 13.03125 -18.84375 C 15.570312 -18.84375 17.722656 -17.867188 19.484375 -15.921875 C 21.160156 -14.015625 22 -11.78125 22 -9.21875 C 22 -6.644531 21.160156 -4.410156 19.484375 -2.515625 C 17.722656 -0.554688 15.570312 0.421875 13.03125 0.421875 C 10.488281 0.421875 8.351562 -0.554688 6.625 -2.515625 C 6.425781 -2.710938 6.242188 -2.921875 6.078125 -3.140625 Z M 19.0625 -9.21875 C 19.0625 -11 18.445312 -12.5625 17.21875 -13.90625 C 15.957031 -15.25 14.40625 -15.921875 12.5625 -15.921875 C 10.71875 -15.921875 9.179688 -15.25 7.953125 -13.90625 C 6.703125 -12.5625 6.078125 -11 6.078125 -9.21875 C 6.078125 -7.425781 6.703125 -5.863281 7.953125 -4.53125 C 9.179688 -3.1875 10.71875 -2.515625 12.5625 -2.515625 C 14.40625 -2.515625 15.957031 -3.1875 17.21875 -4.53125 C 18.445312 -5.863281 19.0625 -7.425781 19.0625 -9.21875 Z M 19.0625 -9.21875 "/></g></g></g><g fill="#ffffff" fill-opacity="1"><g transform="translate(94.69026, 44.212101)"><g><path d="M 6.078125 0 L 3.140625 0 L 3.140625 -31.421875 L 6.078125 -31.421875 Z M 6.078125 0 "/></g></g></g><g fill="#ffffff" fill-opacity="1"><g transform="translate(103.905679, 44.212101)"><g><path d="M 18.21875 -9.296875 C 18.21875 -11.140625 17.5625 -12.71875 16.25 -14.03125 C 14.9375 -15.34375 13.359375 -16 11.515625 -16 C 9.671875 -16 8.09375 -15.34375 6.78125 -14.03125 C 5.46875 -12.71875 4.8125 -11.140625 4.8125 -9.296875 C 4.8125 -7.484375 5.46875 -5.921875 6.78125 -4.609375 C 8.09375 -3.296875 9.671875 -2.640625 11.515625 -2.640625 C 13.359375 -2.640625 14.9375 -3.296875 16.25 -4.609375 C 17.5625 -5.921875 18.21875 -7.484375 18.21875 -9.296875 Z M 21.15625 -9.296875 C 21.15625 -6.617188 20.21875 -4.359375 18.34375 -2.515625 C 16.414062 -0.640625 14.140625 0.296875 11.515625 0.296875 C 8.890625 0.296875 6.628906 -0.640625 4.734375 -2.515625 C 2.835938 -4.359375 1.890625 -6.617188 1.890625 -9.296875 C 1.890625 -11.953125 2.835938 -14.226562 4.734375 -16.125 C 6.609375 -18 8.867188 -18.9375 11.515625 -18.9375 C 14.171875 -18.9375 16.445312 -18 18.34375 -16.125 C 20.21875 -14.226562 21.15625 -11.953125 21.15625 -9.296875 Z M 21.15625 -9.296875 "/></g></g></g><g fill="#ffffff" fill-opacity="1"><g transform="translate(126.944244, 44.212101)"><g><path d="M 12.609375 -14.625 C 11.941406 -15.238281 11.21875 -15.546875 10.4375 -15.546875 C 9.675781 -15.546875 9.03125 -15.332031 8.5 -14.90625 C 7.945312 -14.46875 7.488281 -13.941406 7.125 -13.328125 C 6.425781 -12.097656 6.078125 -10.726562 6.078125 -9.21875 L 6.078125 0 L 3.140625 0 L 3.140625 -18.4375 L 6.078125 -18.4375 L 6.078125 -14.625 L 6.203125 -15.375 C 7.179688 -17.664062 8.703125 -18.8125 10.765625 -18.8125 C 11.410156 -18.8125 12.023438 -18.6875 12.609375 -18.4375 Z M 12.609375 -14.625 "/></g></g><g transform="translate(139.971504, 44.212101)"><g><path d="M 7.75 -10.46875 L 18.09375 -10.46875 L 12.9375 -23.578125 Z M 25.421875 0 L 22.25 0 L 19.1875 -7.75 L 6.65625 -7.75 L 3.609375 0 L 0.421875 0 L 12.9375 -30.453125 Z M 25.421875 0 "/></g></g><g transform="translate(165.816583, 44.212101)"><g><path d="M 6.078125 0 L 3.140625 0 L 3.140625 -28.484375 L 6.078125 -28.484375 Z M 6.078125 0 "/></g></g></g><g clip-path="url(#76b864f28e)"><path fill="#ffffff" d="M 33.363281 33.535156 C 31.371094 35.53125 29.632812 44.1875 29.632812 44.1875 C 29.632812 44.1875 27.898438 35.53125 25.90625 33.535156 C 23.910156 31.542969 15.253906 29.808594 15.253906 29.808594 C 15.253906 29.808594 23.910156 28.070312 25.90625 26.078125 C 27.898438 24.082031 29.632812 15.425781 29.632812 15.425781 C 29.632812 15.425781 31.371094 24.082031 33.363281 26.078125 C 35.359375 28.070312 44.015625 29.808594 44.015625 29.808594 C 44.015625 29.808594 35.359375 31.542969 33.363281 33.535156 Z M 33.363281 33.535156 " fill-opacity="1" fill-rule="nonzero"/></g></svg>