<svg xmlns="http://www.w3.org/2000/svg" xmlns:xlink="http://www.w3.org/1999/xlink" width="100" zoomAndPan="magnify" viewBox="0 0 75 74.999997" height="100" preserveAspectRatio="xMidYMid meet" version="1.0"><path fill="#6a7a99" d="M 18.625 5.679688 L 16.714844 5.679688 L 16.714844 11.320312 L 15.234375 11.320312 L 15.234375 5.679688 L 13.324219 5.679688 L 13.324219 4.316406 L 18.625 4.316406 Z M 21.765625 6.378906 L 21.765625 7.710938 L 21.027344 7.710938 C 20.492188 7.710938 20.226562 7.976562 20.226562 8.511719 L 20.226562 11.320312 L 18.824219 11.320312 L 18.824219 6.378906 L 20.125 6.378906 L 20.125 7.300781 C 20.179688 6.984375 20.300781 6.757812 20.488281 6.609375 C 20.679688 6.457031 20.902344 6.378906 21.15625 6.378906 Z M 22.953125 5.75 C 22.707031 5.75 22.496094 5.664062 22.320312 5.5 C 22.15625 5.324219 22.070312 5.113281 22.070312 4.867188 C 22.070312 4.621094 22.15625 4.414062 22.320312 4.25 C 22.496094 4.074219 22.707031 3.988281 22.953125 3.988281 C 23.199219 3.988281 23.40625 4.074219 23.574219 4.25 C 23.746094 4.414062 23.832031 4.621094 23.832031 4.867188 C 23.832031 5.113281 23.746094 5.324219 23.574219 5.5 C 23.40625 5.664062 23.199219 5.75 22.953125 5.75 Z M 22.253906 6.378906 L 23.652344 6.378906 L 23.652344 11.320312 L 22.253906 11.320312 Z M 24.476562 6.378906 L 25.777344 6.378906 L 25.777344 6.929688 C 25.925781 6.722656 26.136719 6.554688 26.417969 6.429688 C 26.703125 6.300781 27.027344 6.238281 27.386719 6.238281 C 27.835938 6.238281 28.242188 6.355469 28.609375 6.589844 C 28.976562 6.824219 29.261719 7.140625 29.46875 7.539062 C 29.675781 7.933594 29.78125 8.371094 29.78125 8.851562 C 29.78125 9.332031 29.671875 9.769531 29.460938 10.171875 C 29.246094 10.5625 28.953125 10.878906 28.578125 11.113281 C 28.207031 11.34375 27.789062 11.460938 27.328125 11.460938 C 27 11.460938 26.710938 11.410156 26.457031 11.300781 C 26.210938 11.1875 26.019531 11.042969 25.878906 10.859375 L 25.878906 13.324219 L 24.476562 13.324219 Z M 27.078125 10.160156 C 27.445312 10.160156 27.753906 10.039062 28 9.800781 C 28.253906 9.554688 28.378906 9.238281 28.378906 8.851562 C 28.378906 8.464844 28.253906 8.148438 28 7.910156 C 27.753906 7.664062 27.445312 7.539062 27.078125 7.539062 C 26.710938 7.539062 26.402344 7.664062 26.148438 7.910156 C 25.902344 8.148438 25.777344 8.464844 25.777344 8.851562 C 25.777344 9.238281 25.902344 9.554688 26.148438 9.800781 C 26.402344 10.039062 26.710938 10.160156 27.078125 10.160156 Z M 32.488281 11.460938 C 32.035156 11.460938 31.625 11.34375 31.257812 11.113281 C 30.890625 10.878906 30.601562 10.5625 30.386719 10.171875 C 30.179688 9.769531 30.078125 9.332031 30.078125 8.851562 C 30.078125 8.371094 30.179688 7.933594 30.386719 7.539062 C 30.601562 7.140625 30.894531 6.824219 31.265625 6.589844 C 31.640625 6.355469 32.0625 6.238281 32.527344 6.238281 C 32.867188 6.238281 33.167969 6.289062 33.429688 6.390625 C 33.6875 6.488281 33.90625 6.625 34.078125 6.800781 L 34.078125 6.378906 L 35.378906 6.378906 L 35.378906 11.320312 L 34.078125 11.320312 L 34.078125 10.722656 C 33.90625 10.953125 33.691406 11.136719 33.4375 11.269531 C 33.183594 11.398438 32.867188 11.460938 32.488281 11.460938 Z M 32.777344 10.160156 C 33.144531 10.160156 33.453125 10.039062 33.699219 9.800781 C 33.953125 9.554688 34.078125 9.238281 34.078125 8.851562 C 34.078125 8.464844 33.953125 8.148438 33.699219 7.910156 C 33.453125 7.664062 33.144531 7.539062 32.777344 7.539062 C 32.410156 7.539062 32.101562 7.664062 31.847656 7.910156 C 31.601562 8.148438 31.476562 8.464844 31.476562 8.851562 C 31.476562 9.238281 31.601562 9.554688 31.847656 9.800781 C 32.101562 10.039062 32.410156 10.160156 32.777344 10.160156 Z M 38.347656 11.460938 C 37.894531 11.460938 37.484375 11.34375 37.117188 11.113281 C 36.75 10.878906 36.460938 10.5625 36.246094 10.171875 C 36.039062 9.769531 35.9375 9.332031 35.9375 8.851562 C 35.9375 8.371094 36.039062 7.933594 36.246094 7.539062 C 36.460938 7.140625 36.753906 6.824219 37.125 6.589844 C 37.5 6.355469 37.921875 6.238281 38.386719 6.238281 C 38.71875 6.238281 39.011719 6.292969 39.257812 6.398438 C 39.503906 6.5 39.699219 6.632812 39.835938 6.800781 L 39.835938 4.316406 L 41.238281 4.316406 L 41.238281 11.320312 L 39.9375 11.320312 L 39.9375 10.722656 C 39.765625 10.953125 39.550781 11.136719 39.296875 11.269531 C 39.042969 11.398438 38.726562 11.460938 38.347656 11.460938 Z M 38.636719 10.160156 C 39.003906 10.160156 39.3125 10.039062 39.558594 9.800781 C 39.8125 9.554688 39.9375 9.238281 39.9375 8.851562 C 39.9375 8.464844 39.8125 8.148438 39.558594 7.910156 C 39.3125 7.664062 39.003906 7.539062 38.636719 7.539062 C 38.269531 7.539062 37.960938 7.664062 37.707031 7.910156 C 37.460938 8.148438 37.335938 8.464844 37.335938 8.851562 C 37.335938 9.238281 37.460938 9.554688 37.707031 9.800781 C 37.960938 10.039062 38.269531 10.160156 38.636719 10.160156 Z M 41.714844 6.378906 L 43.214844 6.378906 L 43.964844 8.992188 C 44.039062 9.242188 44.101562 9.488281 44.15625 9.722656 C 44.210938 9.488281 44.273438 9.242188 44.347656 8.992188 L 45.097656 6.378906 L 46.597656 6.378906 L 44.957031 11.320312 L 43.355469 11.320312 Z M 47.773438 5.75 C 47.527344 5.75 47.316406 5.664062 47.144531 5.5 C 46.976562 5.324219 46.894531 5.113281 46.894531 4.867188 C 46.894531 4.621094 46.976562 4.414062 47.144531 4.25 C 47.316406 4.074219 47.527344 3.988281 47.773438 3.988281 C 48.023438 3.988281 48.226562 4.074219 48.394531 4.25 C 48.570312 4.414062 48.65625 4.621094 48.65625 4.867188 C 48.65625 5.113281 48.570312 5.324219 48.394531 5.5 C 48.226562 5.664062 48.023438 5.75 47.773438 5.75 Z M 47.074219 6.378906 L 48.476562 6.378906 L 48.476562 11.320312 L 47.074219 11.320312 Z M 50.988281 11.460938 C 50.628906 11.460938 50.300781 11.390625 50 11.25 C 49.707031 11.105469 49.472656 10.898438 49.300781 10.632812 C 49.125 10.363281 49.039062 10.054688 49.039062 9.699219 L 50.460938 9.699219 C 50.460938 9.875 50.511719 10.015625 50.609375 10.121094 C 50.710938 10.222656 50.84375 10.269531 51.011719 10.269531 C 51.175781 10.269531 51.308594 10.234375 51.398438 10.160156 C 51.492188 10.085938 51.539062 9.988281 51.539062 9.859375 C 51.539062 9.726562 51.488281 9.621094 51.378906 9.539062 C 51.273438 9.453125 51.105469 9.378906 50.871094 9.308594 L 50.21875 9.121094 C 49.878906 9.019531 49.609375 8.855469 49.410156 8.621094 C 49.214844 8.386719 49.121094 8.097656 49.121094 7.75 C 49.121094 7.457031 49.199219 7.195312 49.359375 6.96875 C 49.527344 6.734375 49.75 6.554688 50.03125 6.429688 C 50.308594 6.300781 50.621094 6.238281 50.960938 6.238281 C 51.527344 6.238281 51.96875 6.386719 52.28125 6.679688 C 52.601562 6.964844 52.761719 7.347656 52.761719 7.820312 L 51.441406 7.820312 C 51.441406 7.691406 51.394531 7.582031 51.300781 7.488281 C 51.214844 7.394531 51.097656 7.347656 50.949219 7.347656 C 50.808594 7.347656 50.695312 7.382812 50.609375 7.449219 C 50.523438 7.515625 50.480469 7.601562 50.480469 7.699219 C 50.480469 7.8125 50.523438 7.902344 50.609375 7.96875 C 50.695312 8.03125 50.84375 8.089844 51.050781 8.148438 L 51.769531 8.351562 C 52.117188 8.445312 52.390625 8.605469 52.589844 8.839844 C 52.789062 9.066406 52.890625 9.359375 52.890625 9.722656 C 52.890625 10.035156 52.8125 10.324219 52.652344 10.589844 C 52.496094 10.859375 52.277344 11.070312 51.992188 11.230469 C 51.703125 11.386719 51.371094 11.460938 50.988281 11.460938 Z M 55.859375 11.460938 C 55.332031 11.460938 54.867188 11.347656 54.460938 11.121094 C 54.058594 10.886719 53.746094 10.570312 53.519531 10.171875 C 53.300781 9.769531 53.1875 9.332031 53.1875 8.851562 C 53.1875 8.371094 53.300781 7.929688 53.519531 7.53125 C 53.746094 7.128906 54.058594 6.816406 54.460938 6.589844 C 54.867188 6.355469 55.332031 6.238281 55.859375 6.238281 C 56.386719 6.238281 56.851562 6.355469 57.25 6.589844 C 57.65625 6.816406 57.972656 7.128906 58.191406 7.53125 C 58.417969 7.929688 58.53125 8.371094 58.53125 8.851562 C 58.53125 9.332031 58.417969 9.769531 58.191406 10.171875 C 57.972656 10.570312 57.65625 10.886719 57.25 11.121094 C 56.851562 11.347656 56.386719 11.460938 55.859375 11.460938 Z M 55.859375 10.160156 C 56.226562 10.160156 56.53125 10.039062 56.769531 9.800781 C 57.011719 9.554688 57.128906 9.238281 57.128906 8.851562 C 57.128906 8.464844 57.011719 8.148438 56.769531 7.910156 C 56.53125 7.664062 56.226562 7.539062 55.859375 7.539062 C 55.492188 7.539062 55.191406 7.664062 54.949219 7.910156 C 54.710938 8.148438 54.589844 8.464844 54.589844 8.851562 C 54.589844 9.238281 54.710938 9.554688 54.949219 9.800781 C 55.191406 10.039062 55.492188 10.160156 55.859375 10.160156 Z M 62.035156 6.378906 L 62.035156 7.710938 L 61.292969 7.710938 C 60.761719 7.710938 60.492188 7.976562 60.492188 8.511719 L 60.492188 11.320312 L 59.09375 11.320312 L 59.09375 6.378906 L 60.394531 6.378906 L 60.394531 7.300781 C 60.449219 6.984375 60.566406 6.757812 60.753906 6.609375 C 60.949219 6.457031 61.171875 6.378906 61.425781 6.378906 Z M 21.769531 13.585938 L 19.648438 13.585938 L 19.648438 19.808594 L 18.785156 19.808594 L 18.785156 13.585938 L 16.664062 13.585938 L 16.664062 12.804688 L 21.769531 12.804688 Z M 24.292969 14.867188 L 24.292969 15.625 L 23.304688 15.625 C 22.789062 15.625 22.535156 15.886719 22.535156 16.40625 L 22.535156 19.808594 L 21.714844 19.808594 L 21.714844 14.867188 L 22.472656 14.867188 L 22.472656 15.566406 C 22.527344 15.332031 22.632812 15.160156 22.792969 15.046875 C 22.953125 14.925781 23.152344 14.867188 23.382812 14.867188 Z M 27.210938 19.949219 C 26.75 19.949219 26.332031 19.835938 25.953125 19.609375 C 25.570312 19.375 25.269531 19.0625 25.050781 18.667969 C 24.835938 18.265625 24.730469 17.824219 24.730469 17.335938 C 24.730469 16.855469 24.84375 16.417969 25.070312 16.015625 C 25.296875 15.617188 25.601562 15.300781 25.980469 15.074219 C 26.367188 14.84375 26.785156 14.726562 27.230469 14.726562 C 27.644531 14.726562 28.007812 14.804688 28.324219 14.964844 C 28.640625 15.117188 28.898438 15.324219 29.09375 15.585938 L 29.09375 14.867188 L 29.851562 14.867188 L 29.851562 19.808594 L 29.09375 19.808594 L 29.09375 18.957031 C 28.898438 19.257812 28.640625 19.496094 28.324219 19.675781 C 28.003906 19.859375 27.632812 19.949219 27.210938 19.949219 Z M 27.320312 19.207031 C 27.636719 19.207031 27.925781 19.128906 28.191406 18.976562 C 28.464844 18.816406 28.683594 18.597656 28.84375 18.316406 C 29.007812 18.03125 29.09375 17.703125 29.09375 17.335938 C 29.09375 16.96875 29.007812 16.644531 28.84375 16.367188 C 28.683594 16.078125 28.464844 15.859375 28.191406 15.707031 C 27.925781 15.546875 27.636719 15.464844 27.320312 15.464844 C 26.996094 15.464844 26.695312 15.542969 26.421875 15.695312 C 26.15625 15.847656 25.941406 16.070312 25.78125 16.355469 C 25.628906 16.644531 25.550781 16.96875 25.550781 17.335938 C 25.550781 17.703125 25.628906 18.03125 25.78125 18.316406 C 25.941406 18.605469 26.15625 18.824219 26.421875 18.976562 C 26.695312 19.128906 26.996094 19.207031 27.320312 19.207031 Z M 30.652344 14.867188 L 31.523438 14.867188 L 32.683594 18.355469 C 32.769531 18.636719 32.832031 18.839844 32.863281 18.96875 C 32.898438 18.839844 32.957031 18.636719 33.042969 18.355469 L 34.203125 14.867188 L 35.074219 14.867188 L 33.335938 19.808594 L 32.394531 19.808594 Z M 40.335938 17.464844 L 36.242188 17.464844 C 36.242188 17.828125 36.316406 18.140625 36.464844 18.40625 C 36.617188 18.675781 36.820312 18.878906 37.074219 19.015625 C 37.328125 19.15625 37.609375 19.226562 37.914062 19.226562 C 38.308594 19.226562 38.636719 19.128906 38.90625 18.9375 C 39.171875 18.742188 39.359375 18.492188 39.464844 18.175781 L 40.246094 18.175781 C 40.097656 18.710938 39.820312 19.140625 39.40625 19.46875 C 39 19.789062 38.5 19.949219 37.914062 19.949219 C 37.433594 19.949219 37.003906 19.835938 36.625 19.617188 C 36.242188 19.390625 35.945312 19.082031 35.734375 18.6875 C 35.527344 18.285156 35.421875 17.835938 35.421875 17.335938 C 35.421875 16.835938 35.53125 16.390625 35.742188 15.996094 C 35.964844 15.59375 36.265625 15.285156 36.644531 15.066406 C 37.023438 14.839844 37.445312 14.726562 37.90625 14.726562 C 38.390625 14.726562 38.820312 14.828125 39.183594 15.035156 C 39.550781 15.234375 39.835938 15.523438 40.035156 15.894531 C 40.234375 16.269531 40.335938 16.707031 40.335938 17.207031 Z M 37.894531 15.425781 C 37.488281 15.425781 37.140625 15.550781 36.855469 15.796875 C 36.566406 16.035156 36.378906 16.371094 36.292969 16.804688 L 39.535156 16.804688 C 39.480469 16.378906 39.308594 16.042969 39.015625 15.796875 C 38.722656 15.550781 38.347656 15.425781 37.894531 15.425781 Z M 41.378906 12.804688 L 42.199219 12.804688 L 42.199219 19.808594 L 41.378906 19.808594 Z M 48.136719 17.464844 L 44.042969 17.464844 C 44.042969 17.828125 44.117188 18.140625 44.265625 18.40625 C 44.417969 18.675781 44.621094 18.878906 44.875 19.015625 C 45.128906 19.15625 45.410156 19.226562 45.714844 19.226562 C 46.109375 19.226562 46.4375 19.128906 46.707031 18.9375 C 46.972656 18.742188 47.160156 18.492188 47.265625 18.175781 L 48.046875 18.175781 C 47.898438 18.710938 47.621094 19.140625 47.207031 19.46875 C 46.800781 19.789062 46.300781 19.949219 45.714844 19.949219 C 45.234375 19.949219 44.804688 19.835938 44.425781 19.617188 C 44.042969 19.390625 43.746094 19.082031 43.535156 18.6875 C 43.328125 18.285156 43.222656 17.835938 43.222656 17.335938 C 43.222656 16.835938 43.332031 16.390625 43.542969 15.996094 C 43.765625 15.59375 44.066406 15.285156 44.445312 15.066406 C 44.824219 14.839844 45.246094 14.726562 45.707031 14.726562 C 46.191406 14.726562 46.621094 14.828125 46.984375 15.035156 C 47.351562 15.234375 47.636719 15.523438 47.835938 15.894531 C 48.035156 16.269531 48.136719 16.707031 48.136719 17.207031 Z M 45.695312 15.425781 C 45.289062 15.425781 44.941406 15.550781 44.65625 15.796875 C 44.367188 16.035156 44.183594 16.371094 44.09375 16.804688 L 47.335938 16.804688 C 47.28125 16.378906 47.109375 16.042969 46.816406 15.796875 C 46.523438 15.550781 46.148438 15.425781 45.695312 15.425781 Z M 51.761719 14.867188 L 51.761719 15.625 L 50.769531 15.625 C 50.257812 15.625 50 15.886719 50 16.40625 L 50 19.808594 L 49.179688 19.808594 L 49.179688 14.867188 L 49.941406 14.867188 L 49.941406 15.566406 C 49.992188 15.332031 50.101562 15.160156 50.261719 15.046875 C 50.421875 14.925781 50.617188 14.867188 50.851562 14.867188 Z M 54.273438 19.949219 C 53.707031 19.949219 53.257812 19.789062 52.921875 19.46875 C 52.597656 19.140625 52.433594 18.71875 52.433594 18.207031 L 53.253906 18.207031 C 53.253906 18.5 53.34375 18.742188 53.523438 18.9375 C 53.710938 19.128906 53.960938 19.226562 54.273438 19.226562 C 54.5625 19.226562 54.796875 19.152344 54.984375 19.007812 C 55.171875 18.859375 55.265625 18.671875 55.265625 18.4375 C 55.265625 18.230469 55.203125 18.066406 55.074219 17.945312 C 54.949219 17.828125 54.730469 17.722656 54.425781 17.636719 L 53.695312 17.425781 C 53.339844 17.320312 53.058594 17.152344 52.851562 16.925781 C 52.652344 16.699219 52.554688 16.421875 52.554688 16.097656 C 52.554688 15.683594 52.714844 15.351562 53.042969 15.105469 C 53.371094 14.851562 53.773438 14.726562 54.253906 14.726562 C 54.582031 14.726562 54.867188 14.789062 55.113281 14.914062 C 55.367188 15.042969 55.566406 15.214844 55.703125 15.4375 C 55.84375 15.65625 55.914062 15.902344 55.914062 16.175781 L 55.132812 16.175781 C 55.132812 15.960938 55.046875 15.785156 54.875 15.644531 C 54.707031 15.5 54.5 15.425781 54.253906 15.425781 C 53.992188 15.425781 53.777344 15.480469 53.605469 15.59375 C 53.4375 15.710938 53.355469 15.863281 53.355469 16.054688 C 53.355469 16.234375 53.417969 16.386719 53.542969 16.507812 C 53.675781 16.621094 53.886719 16.71875 54.175781 16.804688 L 54.90625 17.027344 C 55.691406 17.261719 56.085938 17.707031 56.085938 18.367188 C 56.085938 18.667969 56.003906 18.9375 55.84375 19.175781 C 55.691406 19.417969 55.476562 19.609375 55.195312 19.746094 C 54.921875 19.882812 54.613281 19.949219 54.273438 19.949219 Z M 57.027344 14.433594 L 57.109375 14.433594 C 57.300781 14.433594 57.453125 14.386719 57.558594 14.285156 C 57.664062 14.183594 57.726562 14.023438 57.746094 13.792969 C 57.707031 13.820312 57.644531 13.835938 57.558594 13.835938 C 57.40625 13.835938 57.273438 13.78125 57.167969 13.675781 C 57.0625 13.5625 57.007812 13.421875 57.007812 13.253906 C 57.007812 13.085938 57.0625 12.949219 57.167969 12.835938 C 57.28125 12.722656 57.421875 12.664062 57.589844 12.664062 C 57.792969 12.664062 57.953125 12.746094 58.066406 12.914062 C 58.1875 13.074219 58.25 13.300781 58.25 13.59375 C 58.25 14.027344 58.152344 14.359375 57.957031 14.585938 C 57.769531 14.804688 57.5 14.914062 57.148438 14.914062 L 57.027344 14.914062 Z M 7.859375 28.433594 C 7.265625 28.433594 6.707031 28.289062 6.179688 28.003906 C 5.660156 27.710938 5.238281 27.289062 4.917969 26.742188 C 4.597656 26.191406 4.4375 25.539062 4.4375 24.792969 C 4.4375 24.050781 4.597656 23.40625 4.917969 22.851562 C 5.238281 22.296875 5.660156 21.878906 6.179688 21.589844 C 6.707031 21.296875 7.265625 21.152344 7.859375 21.152344 C 8.398438 21.152344 8.898438 21.257812 9.351562 21.46875 C 9.808594 21.675781 10.1875 21.976562 10.480469 22.371094 C 10.78125 22.757812 10.972656 23.210938 11.0625 23.730469 L 10.199219 23.730469 C 10.074219 23.171875 9.792969 22.730469 9.359375 22.410156 C 8.925781 22.089844 8.425781 21.929688 7.859375 21.929688 C 7.414062 21.929688 6.992188 22.042969 6.597656 22.269531 C 6.210938 22.492188 5.898438 22.816406 5.660156 23.25 C 5.417969 23.679688 5.296875 24.191406 5.296875 24.792969 C 5.296875 25.390625 5.417969 25.910156 5.660156 26.34375 C 5.898438 26.769531 6.210938 27.097656 6.597656 27.324219 C 6.992188 27.542969 7.414062 27.652344 7.859375 27.652344 C 8.441406 27.652344 8.941406 27.492188 9.371094 27.171875 C 9.796875 26.851562 10.074219 26.410156 10.199219 25.84375 L 11.0625 25.84375 C 10.972656 26.363281 10.777344 26.820312 10.46875 27.214844 C 10.171875 27.605469 9.792969 27.910156 9.339844 28.125 C 8.886719 28.332031 8.394531 28.433594 7.859375 28.433594 Z M 12.0625 21.289062 L 12.882812 21.289062 L 12.882812 24.011719 C 13.011719 23.792969 13.214844 23.605469 13.496094 23.453125 C 13.773438 23.292969 14.097656 23.210938 14.464844 23.210938 C 14.992188 23.210938 15.414062 23.386719 15.726562 23.742188 C 16.046875 24.09375 16.207031 24.558594 16.207031 25.132812 L 16.207031 28.292969 L 15.386719 28.292969 L 15.386719 25.234375 C 15.386719 24.832031 15.269531 24.515625 15.035156 24.28125 C 14.800781 24.046875 14.503906 23.933594 14.144531 23.933594 C 13.785156 23.933594 13.484375 24.046875 13.246094 24.28125 C 13.003906 24.515625 12.882812 24.832031 12.882812 25.234375 L 12.882812 28.292969 L 12.0625 28.292969 Z M 19.832031 28.433594 C 19.339844 28.433594 18.890625 28.320312 18.492188 28.09375 C 18.097656 27.859375 17.789062 27.546875 17.5625 27.152344 C 17.335938 26.753906 17.222656 26.308594 17.222656 25.824219 C 17.222656 25.335938 17.335938 24.894531 17.5625 24.503906 C 17.789062 24.101562 18.097656 23.789062 18.492188 23.5625 C 18.890625 23.328125 19.339844 23.210938 19.832031 23.210938 C 20.328125 23.210938 20.769531 23.328125 21.164062 23.5625 C 21.5625 23.789062 21.878906 24.101562 22.105469 24.503906 C 22.332031 24.894531 22.445312 25.335938 22.445312 25.824219 C 22.445312 26.308594 22.332031 26.753906 22.105469 27.152344 C 21.878906 27.546875 21.5625 27.859375 21.164062 28.09375 C 20.769531 28.320312 20.328125 28.433594 19.832031 28.433594 Z M 19.832031 27.695312 C 20.160156 27.695312 20.460938 27.617188 20.734375 27.464844 C 21.007812 27.308594 21.222656 27.09375 21.382812 26.8125 C 21.542969 26.527344 21.625 26.195312 21.625 25.824219 C 21.625 25.449219 21.542969 25.121094 21.382812 24.84375 C 21.222656 24.554688 21.007812 24.335938 20.734375 24.183594 C 20.460938 24.027344 20.160156 23.953125 19.832031 23.953125 C 19.507812 23.953125 19.207031 24.027344 18.933594 24.183594 C 18.660156 24.335938 18.441406 24.554688 18.28125 24.84375 C 18.121094 25.121094 18.042969 25.449219 18.042969 25.824219 C 18.042969 26.195312 18.121094 26.527344 18.28125 26.8125 C 18.441406 27.09375 18.660156 27.308594 18.933594 27.464844 C 19.207031 27.617188 19.507812 27.695312 19.832031 27.695312 Z M 23.878906 22.511719 C 23.714844 22.511719 23.570312 22.449219 23.449219 22.332031 C 23.332031 22.210938 23.269531 22.066406 23.269531 21.902344 C 23.269531 21.726562 23.328125 21.585938 23.441406 21.46875 C 23.558594 21.351562 23.707031 21.289062 23.878906 21.289062 C 24.054688 21.289062 24.199219 21.351562 24.3125 21.46875 C 24.429688 21.585938 24.492188 21.726562 24.492188 21.902344 C 24.492188 22.074219 24.429688 22.222656 24.3125 22.339844 C 24.199219 22.453125 24.054688 22.511719 23.878906 22.511719 Z M 23.46875 23.351562 L 24.289062 23.351562 L 24.289062 28.292969 L 23.46875 28.292969 Z M 27.835938 28.433594 C 27.355469 28.433594 26.921875 28.320312 26.535156 28.09375 C 26.15625 27.867188 25.855469 27.558594 25.636719 27.164062 C 25.421875 26.761719 25.316406 26.316406 25.316406 25.824219 C 25.316406 25.328125 25.425781 24.886719 25.644531 24.492188 C 25.867188 24.09375 26.164062 23.777344 26.546875 23.550781 C 26.933594 23.324219 27.363281 23.210938 27.835938 23.210938 C 28.484375 23.210938 29.011719 23.371094 29.417969 23.691406 C 29.832031 24.003906 30.085938 24.433594 30.179688 24.980469 L 29.359375 24.980469 C 29.265625 24.675781 29.082031 24.429688 28.816406 24.242188 C 28.550781 24.046875 28.222656 23.953125 27.835938 23.953125 C 27.523438 23.953125 27.238281 24.027344 26.976562 24.183594 C 26.722656 24.335938 26.519531 24.554688 26.367188 24.84375 C 26.210938 25.121094 26.136719 25.449219 26.136719 25.824219 C 26.136719 26.195312 26.210938 26.527344 26.367188 26.8125 C 26.519531 27.09375 26.726562 27.308594 26.984375 27.464844 C 27.246094 27.617188 27.53125 27.695312 27.835938 27.695312 C 28.238281 27.695312 28.5625 27.605469 28.816406 27.421875 C 29.070312 27.242188 29.25 26.988281 29.359375 26.664062 L 30.179688 26.664062 C 30.058594 27.214844 29.792969 27.648438 29.386719 27.964844 C 28.980469 28.277344 28.464844 28.433594 27.835938 28.433594 Z M 35.765625 25.953125 L 31.671875 25.953125 C 31.671875 26.3125 31.746094 26.625 31.894531 26.894531 C 32.046875 27.160156 32.25 27.363281 32.503906 27.503906 C 32.757812 27.644531 33.035156 27.714844 33.34375 27.714844 C 33.738281 27.714844 34.066406 27.617188 34.335938 27.421875 C 34.601562 27.230469 34.789062 26.976562 34.894531 26.664062 L 35.675781 26.664062 C 35.527344 27.195312 35.246094 27.625 34.835938 27.953125 C 34.425781 28.273438 33.929688 28.433594 33.34375 28.433594 C 32.863281 28.433594 32.433594 28.324219 32.054688 28.105469 C 31.671875 27.878906 31.375 27.566406 31.164062 27.171875 C 30.957031 26.773438 30.851562 26.324219 30.851562 25.824219 C 30.851562 25.324219 30.960938 24.875 31.171875 24.480469 C 31.394531 24.082031 31.691406 23.773438 32.074219 23.550781 C 32.453125 23.324219 32.875 23.210938 33.332031 23.210938 C 33.820312 23.210938 34.246094 23.316406 34.613281 23.523438 C 34.980469 23.722656 35.265625 24.007812 35.464844 24.382812 C 35.664062 24.753906 35.765625 25.191406 35.765625 25.691406 Z M 33.324219 23.910156 C 32.917969 23.910156 32.570312 24.035156 32.28125 24.28125 C 31.996094 24.523438 31.808594 24.859375 31.722656 25.292969 L 34.964844 25.292969 C 34.910156 24.867188 34.738281 24.527344 34.445312 24.28125 C 34.152344 24.035156 33.777344 23.910156 33.324219 23.910156 Z M 42.917969 26.472656 L 39.71875 26.472656 L 39.027344 28.292969 L 38.136719 28.292969 L 40.828125 21.289062 L 41.808594 21.289062 L 44.5 28.292969 L 43.609375 28.292969 Z M 42.628906 25.691406 L 41.5 22.722656 C 41.40625 22.480469 41.347656 22.320312 41.320312 22.242188 C 41.292969 22.320312 41.230469 22.480469 41.140625 22.722656 L 40.007812 25.691406 Z M 44.507812 23.351562 L 45.378906 23.351562 L 46.140625 26.761719 L 46.199219 27.035156 C 46.238281 27.167969 46.269531 27.300781 46.289062 27.433594 C 46.328125 27.214844 46.375 26.988281 46.429688 26.761719 L 47.328125 23.351562 L 48.167969 23.351562 L 49.070312 26.761719 C 49.128906 26.988281 49.175781 27.214844 49.210938 27.433594 C 49.230469 27.300781 49.261719 27.167969 49.300781 27.035156 L 49.359375 26.761719 L 50.121094 23.351562 L 50.992188 23.351562 L 49.691406 28.292969 L 48.75 28.292969 L 47.871094 24.980469 C 47.816406 24.769531 47.777344 24.574219 47.75 24.402344 C 47.722656 24.574219 47.683594 24.769531 47.628906 24.980469 L 46.75 28.292969 L 45.808594 28.292969 Z M 53.839844 28.433594 C 53.378906 28.433594 52.960938 28.320312 52.578125 28.09375 C 52.199219 27.859375 51.898438 27.546875 51.679688 27.152344 C 51.464844 26.753906 51.359375 26.308594 51.359375 25.824219 C 51.359375 25.34375 51.472656 24.902344 51.699219 24.503906 C 51.925781 24.101562 52.230469 23.789062 52.609375 23.5625 C 52.996094 23.328125 53.414062 23.210938 53.859375 23.210938 C 54.273438 23.210938 54.636719 23.292969 54.949219 23.453125 C 55.269531 23.605469 55.527344 23.8125 55.722656 24.070312 L 55.722656 23.351562 L 56.480469 23.351562 L 56.480469 28.292969 L 55.722656 28.292969 L 55.722656 27.445312 C 55.527344 27.742188 55.269531 27.984375 54.949219 28.164062 C 54.628906 28.34375 54.261719 28.433594 53.839844 28.433594 Z M 53.949219 27.695312 C 54.265625 27.695312 54.554688 27.617188 54.820312 27.464844 C 55.09375 27.304688 55.3125 27.082031 55.472656 26.804688 C 55.636719 26.515625 55.722656 26.191406 55.722656 25.824219 C 55.722656 25.457031 55.636719 25.132812 55.472656 24.851562 C 55.3125 24.566406 55.09375 24.34375 54.820312 24.191406 C 54.554688 24.03125 54.265625 23.953125 53.949219 23.953125 C 53.625 23.953125 53.324219 24.027344 53.050781 24.183594 C 52.78125 24.335938 52.570312 24.554688 52.410156 24.84375 C 52.257812 25.128906 52.179688 25.457031 52.179688 25.824219 C 52.179688 26.191406 52.257812 26.515625 52.410156 26.804688 C 52.570312 27.089844 52.78125 27.308594 53.050781 27.464844 C 53.324219 27.617188 53.625 27.695312 53.949219 27.695312 Z M 60.441406 23.351562 L 60.441406 24.113281 L 59.453125 24.113281 C 58.9375 24.113281 58.683594 24.371094 58.683594 24.890625 L 58.683594 28.292969 L 57.863281 28.292969 L 57.863281 23.351562 L 58.621094 23.351562 L 58.621094 24.050781 C 58.675781 23.820312 58.78125 23.644531 58.941406 23.53125 C 59.101562 23.410156 59.300781 23.351562 59.53125 23.351562 Z M 63.359375 28.433594 C 62.902344 28.433594 62.480469 28.320312 62.101562 28.09375 C 61.71875 27.859375 61.417969 27.546875 61.199219 27.152344 C 60.984375 26.753906 60.878906 26.308594 60.878906 25.824219 C 60.878906 25.34375 60.992188 24.902344 61.21875 24.503906 C 61.445312 24.101562 61.75 23.789062 62.128906 23.5625 C 62.515625 23.328125 62.933594 23.210938 63.378906 23.210938 C 63.789062 23.210938 64.144531 23.292969 64.453125 23.453125 C 64.765625 23.605469 65.007812 23.796875 65.179688 24.03125 L 65.179688 21.289062 L 66.003906 21.289062 L 66.003906 28.292969 L 65.242188 28.292969 L 65.242188 27.445312 C 65.046875 27.742188 64.792969 27.984375 64.472656 28.164062 C 64.152344 28.34375 63.78125 28.433594 63.359375 28.433594 Z M 63.472656 27.695312 C 63.785156 27.695312 64.074219 27.617188 64.339844 27.464844 C 64.613281 27.304688 64.832031 27.082031 64.992188 26.804688 C 65.15625 26.515625 65.242188 26.191406 65.242188 25.824219 C 65.242188 25.457031 65.15625 25.132812 64.992188 24.851562 C 64.832031 24.566406 64.613281 24.34375 64.339844 24.191406 C 64.074219 24.03125 63.785156 23.953125 63.472656 23.953125 C 63.144531 23.953125 62.84375 24.027344 62.570312 24.183594 C 62.304688 24.335938 62.089844 24.554688 61.929688 24.84375 C 61.777344 25.128906 61.699219 25.457031 61.699219 25.824219 C 61.699219 26.191406 61.777344 26.515625 61.929688 26.804688 C 62.089844 27.089844 62.304688 27.308594 62.570312 27.464844 C 62.84375 27.617188 63.144531 27.695312 63.472656 27.695312 Z M 68.902344 28.433594 C 68.335938 28.433594 67.886719 28.273438 67.550781 27.953125 C 67.226562 27.625 67.0625 27.207031 67.0625 26.691406 L 67.882812 26.691406 C 67.882812 26.988281 67.972656 27.230469 68.152344 27.421875 C 68.339844 27.617188 68.589844 27.714844 68.902344 27.714844 C 69.191406 27.714844 69.425781 27.640625 69.613281 27.492188 C 69.800781 27.347656 69.894531 27.15625 69.894531 26.921875 C 69.894531 26.714844 69.832031 26.554688 69.703125 26.433594 C 69.578125 26.3125 69.359375 26.210938 69.054688 26.121094 L 68.324219 25.914062 C 67.96875 25.804688 67.6875 25.640625 67.484375 25.414062 C 67.28125 25.1875 67.183594 24.910156 67.183594 24.582031 C 67.183594 24.167969 67.347656 23.839844 67.671875 23.589844 C 68 23.339844 68.402344 23.210938 68.882812 23.210938 C 69.210938 23.210938 69.496094 23.273438 69.742188 23.402344 C 69.996094 23.527344 70.195312 23.703125 70.332031 23.921875 C 70.472656 24.140625 70.542969 24.390625 70.542969 24.664062 L 69.761719 24.664062 C 69.761719 24.449219 69.675781 24.273438 69.503906 24.132812 C 69.335938 23.984375 69.128906 23.910156 68.882812 23.910156 C 68.621094 23.910156 68.40625 23.96875 68.234375 24.082031 C 68.066406 24.195312 67.984375 24.347656 67.984375 24.542969 C 67.984375 24.722656 68.046875 24.871094 68.171875 24.992188 C 68.304688 25.105469 68.515625 25.207031 68.804688 25.292969 L 69.535156 25.511719 C 70.320312 25.746094 70.714844 26.191406 70.714844 26.851562 C 70.714844 27.152344 70.632812 27.421875 70.472656 27.664062 C 70.320312 27.902344 70.105469 28.09375 69.824219 28.234375 C 69.550781 28.367188 69.242188 28.433594 68.902344 28.433594 Z M 68.902344 28.433594 " fill-opacity="1" fill-rule="nonzero"/><path fill="#6a7a99" d="M 28.855469 71.058594 L 30.761719 69.328125 C 30.890625 69.214844 30.988281 69.101562 31.050781 68.992188 C 31.117188 68.878906 31.148438 68.757812 31.148438 68.632812 C 31.148438 68.476562 31.097656 68.359375 31 68.28125 C 30.902344 68.195312 30.773438 68.152344 30.613281 68.152344 C 30.460938 68.152344 30.332031 68.203125 30.230469 68.308594 C 30.132812 68.410156 30.082031 68.542969 30.074219 68.703125 L 28.875 68.703125 C 28.875 68.414062 28.941406 68.152344 29.070312 67.914062 C 29.207031 67.667969 29.410156 67.46875 29.671875 67.320312 C 29.941406 67.171875 30.261719 67.097656 30.640625 67.097656 C 31.183594 67.097656 31.617188 67.230469 31.945312 67.492188 C 32.269531 67.753906 32.433594 68.113281 32.433594 68.5625 C 32.433594 68.882812 32.359375 69.160156 32.210938 69.394531 C 32.0625 69.628906 31.84375 69.863281 31.558594 70.097656 L 30.796875 70.726562 L 32.476562 70.726562 L 32.476562 71.796875 L 28.855469 71.796875 Z M 35.195312 71.917969 C 34.714844 71.917969 34.285156 71.8125 33.910156 71.601562 C 33.539062 71.382812 33.25 71.089844 33.042969 70.726562 C 32.835938 70.359375 32.734375 69.953125 32.734375 69.507812 C 32.734375 69.0625 32.835938 68.65625 33.042969 68.289062 C 33.25 67.921875 33.539062 67.636719 33.910156 67.421875 C 34.285156 67.207031 34.714844 67.097656 35.195312 67.097656 C 35.675781 67.097656 36.101562 67.207031 36.472656 67.421875 C 36.851562 67.636719 37.140625 67.921875 37.347656 68.289062 C 37.554688 68.65625 37.65625 69.0625 37.65625 69.507812 C 37.65625 69.953125 37.554688 70.359375 37.347656 70.726562 C 37.140625 71.089844 36.851562 71.382812 36.472656 71.601562 C 36.101562 71.8125 35.675781 71.917969 35.195312 71.917969 Z M 35.195312 70.769531 C 35.550781 70.769531 35.839844 70.652344 36.070312 70.425781 C 36.304688 70.191406 36.421875 69.882812 36.421875 69.507812 C 36.421875 69.128906 36.304688 68.828125 36.070312 68.597656 C 35.839844 68.363281 35.550781 68.246094 35.195312 68.246094 C 34.839844 68.246094 34.546875 68.363281 34.3125 68.597656 C 34.082031 68.828125 33.96875 69.128906 33.96875 69.507812 C 33.96875 69.882812 34.082031 70.191406 34.3125 70.425781 C 34.546875 70.652344 34.839844 70.769531 35.195312 70.769531 Z M 37.855469 71.058594 L 39.757812 69.328125 C 39.890625 69.214844 39.988281 69.101562 40.050781 68.992188 C 40.113281 68.878906 40.144531 68.757812 40.144531 68.632812 C 40.144531 68.476562 40.09375 68.359375 40 68.28125 C 39.902344 68.195312 39.773438 68.152344 39.613281 68.152344 C 39.457031 68.152344 39.328125 68.203125 39.226562 68.308594 C 39.128906 68.410156 39.078125 68.542969 39.070312 68.703125 L 37.871094 68.703125 C 37.871094 68.414062 37.9375 68.152344 38.070312 67.914062 C 38.207031 67.667969 38.40625 67.46875 38.667969 67.320312 C 38.9375 67.171875 39.261719 67.097656 39.636719 67.097656 C 40.179688 67.097656 40.617188 67.230469 40.941406 67.492188 C 41.265625 67.753906 41.429688 68.113281 41.429688 68.5625 C 41.429688 68.882812 41.355469 69.160156 41.207031 69.394531 C 41.058594 69.628906 40.839844 69.863281 40.554688 70.097656 L 39.792969 70.726562 L 41.472656 70.726562 L 41.472656 71.796875 L 37.855469 71.796875 Z M 44.207031 71.496094 L 41.757812 71.496094 L 41.757812 70.671875 L 44.089844 67.210938 L 45.488281 67.210938 L 45.488281 70.554688 L 46.164062 70.554688 L 46.164062 71.496094 L 45.488281 71.496094 L 45.488281 72.851562 L 44.207031 72.851562 Z M 44.207031 70.554688 L 44.207031 69.277344 C 44.207031 69.109375 44.21875 68.929688 44.242188 68.734375 L 43.050781 70.554688 Z M 44.207031 70.554688 " fill-opacity="1" fill-rule="nonzero"/><path fill="#6a7a99" d="M 37.394531 31.242188 C 28.652344 31.242188 21.558594 38.335938 21.558594 47.078125 C 21.558594 55.820312 28.652344 62.914062 37.394531 62.914062 C 46.136719 62.914062 53.230469 55.820312 53.230469 47.078125 C 53.230469 38.335938 46.136719 31.242188 37.394531 31.242188 Z M 37.394531 61.152344 C 29.613281 61.152344 23.320312 54.859375 23.320312 47.078125 C 23.320312 39.296875 29.613281 33 37.394531 33 C 45.175781 33 51.46875 39.296875 51.46875 47.078125 C 51.46875 54.859375 45.175781 61.152344 37.394531 61.152344 Z M 37.394531 61.152344 " fill-opacity="1" fill-rule="nonzero"/><path fill="#6a7a99" d="M 28.671875 64.589844 C 28.671875 64.589844 26.746094 63.105469 23.3125 62.71875 C 19.902344 62.308594 17.34375 64.148438 17.34375 64.148438 C 17.34375 64.148438 19.65625 65.085938 23.144531 65.441406 C 26.664062 65.773438 28.671875 64.589844 28.671875 64.589844 Z M 28.671875 64.589844 " fill-opacity="1" fill-rule="nonzero"/><path fill="#6a7a99" d="M 23.3125 61.566406 C 23.3125 61.566406 21.578125 59.777344 18.363281 58.570312 C 15.144531 57.332031 12.039062 58.101562 12.039062 58.101562 C 12.039062 58.101562 14.019531 59.972656 17.425781 61.289062 C 20.863281 62.554688 23.3125 61.566406 23.3125 61.566406 Z M 23.3125 61.566406 " fill-opacity="1" fill-rule="nonzero"/><path fill="#6a7a99" d="M 18.167969 57.332031 C 18.167969 57.332031 17.152344 54.886719 14.484375 52.410156 C 11.820312 49.9375 8.464844 49.523438 8.464844 49.523438 C 8.464844 49.523438 9.675781 52.164062 12.535156 54.800781 C 15.394531 57.414062 18.167969 57.332031 18.167969 57.332031 Z M 18.167969 57.332031 " fill-opacity="1" fill-rule="nonzero"/><path fill="#6a7a99" d="M 17.179688 52.628906 C 17.179688 52.628906 16.851562 49.992188 14.898438 46.914062 C 12.972656 43.832031 9.839844 42.570312 9.839844 42.570312 C 9.839844 42.570312 10.335938 45.457031 12.394531 48.726562 C 14.457031 52 17.179688 52.628906 17.179688 52.628906 Z M 17.179688 52.628906 " fill-opacity="1" fill-rule="nonzero"/><path fill="#6a7a99" d="M 17.289062 46.308594 C 17.289062 46.308594 17.207031 43.613281 15.585938 40.3125 C 13.964844 37.015625 11.023438 35.449219 11.023438 35.449219 C 11.023438 35.449219 11.242188 38.417969 12.972656 41.910156 C 14.707031 45.429688 17.289062 46.308594 17.289062 46.308594 Z M 17.289062 46.308594 " fill-opacity="1" fill-rule="nonzero"/><path fill="#6a7a99" d="M 24.960938 59.75 C 24.960938 59.75 24.164062 57.746094 21.992188 55.710938 C 19.820312 53.675781 17.097656 53.289062 17.097656 53.289062 C 17.097656 53.289062 18.058594 55.460938 20.367188 57.632812 C 22.679688 59.804688 24.960938 59.75 24.960938 59.75 Z M 24.960938 59.75 " fill-opacity="1" fill-rule="nonzero"/><path fill="#6a7a99" d="M 30.429688 62.75 C 30.429688 62.75 29.304688 61.648438 27.296875 60.878906 C 25.261719 60.082031 23.339844 60.464844 23.339844 60.464844 C 23.339844 60.464844 24.601562 61.621094 26.773438 62.445312 C 28.917969 63.296875 30.429688 62.75 30.429688 62.75 Z M 30.429688 62.75 " fill-opacity="1" fill-rule="nonzero"/><path fill="#6a7a99" d="M 35.738281 63.847656 C 35.738281 63.847656 34.582031 63.378906 32.851562 63.433594 C 31.117188 63.492188 29.828125 64.425781 29.828125 64.425781 C 29.828125 64.425781 31.117188 64.890625 32.960938 64.835938 C 34.804688 64.753906 35.738281 63.847656 35.738281 63.847656 Z M 35.738281 63.847656 " fill-opacity="1" fill-rule="nonzero"/><path fill="#6a7a99" d="M 22.570312 54.886719 C 22.570312 54.886719 22.183594 52.742188 20.507812 50.292969 C 18.800781 47.847656 16.21875 46.941406 16.21875 46.941406 C 16.21875 46.941406 16.710938 49.277344 18.527344 51.859375 C 20.339844 54.445312 22.570312 54.886719 22.570312 54.886719 Z M 22.570312 54.886719 " fill-opacity="1" fill-rule="nonzero"/><path fill="#6a7a99" d="M 20.453125 48.371094 C 20.453125 48.371094 20.863281 46.199219 20.175781 43.285156 C 19.488281 40.371094 17.425781 38.582031 17.425781 38.582031 C 17.425781 38.582031 17.070312 40.972656 17.8125 44.082031 C 18.527344 47.1875 20.453125 48.371094 20.453125 48.371094 Z M 20.453125 48.371094 " fill-opacity="1" fill-rule="nonzero"/><path fill="#6a7a99" d="M 46.320312 64.589844 C 46.320312 64.589844 48.246094 63.105469 51.683594 62.71875 C 55.09375 62.308594 57.648438 64.148438 57.648438 64.148438 C 57.648438 64.148438 55.339844 65.085938 51.847656 65.441406 C 48.328125 65.773438 46.320312 64.589844 46.320312 64.589844 Z M 46.320312 64.589844 " fill-opacity="1" fill-rule="nonzero"/><path fill="#6a7a99" d="M 51.683594 61.566406 C 51.683594 61.566406 53.414062 59.777344 56.632812 58.570312 C 59.847656 57.332031 62.953125 58.101562 62.953125 58.101562 C 62.953125 58.101562 60.976562 59.972656 57.566406 61.292969 C 54.128906 62.554688 51.683594 61.566406 51.683594 61.566406 Z M 51.683594 61.566406 " fill-opacity="1" fill-rule="nonzero"/><path fill="#6a7a99" d="M 56.824219 57.332031 C 56.824219 57.332031 57.839844 54.886719 60.507812 52.410156 C 63.175781 49.9375 66.527344 49.523438 66.527344 49.523438 C 66.527344 49.523438 65.320312 52.164062 62.460938 54.804688 C 59.601562 57.414062 56.824219 57.332031 56.824219 57.332031 Z M 56.824219 57.332031 " fill-opacity="1" fill-rule="nonzero"/><path fill="#6a7a99" d="M 57.8125 52.632812 C 57.8125 52.632812 58.144531 49.992188 60.09375 46.914062 C 62.019531 43.832031 65.152344 42.570312 65.152344 42.570312 C 65.152344 42.570312 64.660156 45.457031 62.597656 48.726562 C 60.535156 52 57.8125 52.632812 57.8125 52.632812 Z M 57.8125 52.632812 " fill-opacity="1" fill-rule="nonzero"/><path fill="#6a7a99" d="M 57.703125 46.308594 C 57.703125 46.308594 57.785156 43.613281 59.410156 40.3125 C 61.03125 37.015625 63.972656 35.449219 63.972656 35.449219 C 63.972656 35.449219 63.753906 38.417969 62.019531 41.910156 C 60.289062 45.429688 57.703125 46.308594 57.703125 46.308594 Z M 57.703125 46.308594 " fill-opacity="1" fill-rule="nonzero"/><path fill="#6a7a99" d="M 50.035156 59.75 C 50.035156 59.75 50.832031 57.746094 53.003906 55.710938 C 55.175781 53.675781 57.894531 53.289062 57.894531 53.289062 C 57.894531 53.289062 56.933594 55.460938 54.625 57.632812 C 52.316406 59.804688 50.035156 59.75 50.035156 59.75 Z M 50.035156 59.75 " fill-opacity="1" fill-rule="nonzero"/><path fill="#6a7a99" d="M 44.5625 62.75 C 44.5625 62.75 45.691406 61.648438 47.695312 60.878906 C 49.730469 60.082031 51.65625 60.464844 51.65625 60.464844 C 51.65625 60.464844 50.390625 61.621094 48.21875 62.445312 C 46.074219 63.296875 44.5625 62.75 44.5625 62.75 Z M 44.5625 62.75 " fill-opacity="1" fill-rule="nonzero"/><path fill="#6a7a99" d="M 39.257812 63.847656 C 39.257812 63.847656 40.410156 63.378906 42.144531 63.433594 C 43.875 63.492188 45.167969 64.425781 45.167969 64.425781 C 45.167969 64.425781 43.875 64.890625 42.03125 64.835938 C 40.191406 64.753906 39.257812 63.847656 39.257812 63.847656 Z M 39.257812 63.847656 " fill-opacity="1" fill-rule="nonzero"/><path fill="#6a7a99" d="M 52.425781 54.886719 C 52.425781 54.886719 52.808594 52.742188 54.488281 50.292969 C 56.191406 47.847656 58.777344 46.941406 58.777344 46.941406 C 58.777344 46.941406 58.28125 49.277344 56.464844 51.859375 C 54.652344 54.472656 52.425781 54.886719 52.425781 54.886719 Z M 52.425781 54.886719 " fill-opacity="1" fill-rule="nonzero"/><path fill="#6a7a99" d="M 54.542969 48.371094 C 54.542969 48.371094 54.128906 46.199219 54.816406 43.285156 C 55.503906 40.371094 57.566406 38.582031 57.566406 38.582031 C 57.566406 38.582031 57.921875 40.972656 57.179688 44.082031 C 56.464844 47.1875 54.542969 48.371094 54.542969 48.371094 Z M 54.542969 48.371094 " fill-opacity="1" fill-rule="nonzero"/><path fill="#6a7a99" d="M 37.496094 65.496094 C 37.984375 65.496094 38.375 65.101562 38.375 64.617188 C 38.375 64.132812 37.984375 63.738281 37.496094 63.738281 C 37.011719 63.738281 36.617188 64.132812 36.617188 64.617188 C 36.617188 65.101562 37.011719 65.496094 37.496094 65.496094 Z M 37.496094 65.496094 " fill-opacity="1" fill-rule="nonzero"/><path fill="#6a7a99" d="M 37.382812 59.339844 C 44.160156 59.339844 49.65625 53.84375 49.65625 47.0625 C 49.65625 40.285156 44.160156 34.789062 37.382812 34.789062 C 30.601562 34.789062 25.105469 40.285156 25.105469 47.0625 C 25.105469 53.84375 30.601562 59.339844 37.382812 59.339844 Z M 32.652344 49.558594 C 33.574219 49.558594 34.320312 48.8125 34.320312 47.894531 C 34.320312 46.976562 33.574219 46.234375 32.652344 46.234375 C 31.730469 46.234375 30.980469 46.976562 30.980469 47.894531 C 30.980469 48.8125 31.730469 49.558594 32.652344 49.558594 Z M 40.398438 47.894531 C 40.398438 46.976562 41.144531 46.234375 42.066406 46.234375 C 42.988281 46.234375 43.738281 46.976562 43.738281 47.894531 C 43.738281 48.8125 42.988281 49.558594 42.066406 49.558594 C 41.144531 49.558594 40.398438 48.8125 40.398438 47.894531 Z M 38.882812 47.894531 C 38.882812 49.644531 40.308594 51.066406 42.066406 51.066406 C 43.828125 51.066406 45.253906 49.644531 45.253906 47.894531 C 45.253906 46.144531 43.828125 44.726562 42.066406 44.726562 C 40.308594 44.726562 38.882812 46.144531 38.882812 47.894531 Z M 33.824219 43.164062 C 35.835938 43.929688 37.359375 45.71875 37.359375 47.804688 C 37.359375 45.71875 38.886719 43.929688 40.894531 43.164062 C 39.808594 42.710938 38.613281 42.457031 37.359375 42.457031 C 36.105469 42.457031 34.914062 42.710938 33.824219 43.164062 Z M 29.464844 47.894531 C 29.464844 49.644531 30.890625 51.066406 32.652344 51.066406 C 34.410156 51.066406 35.835938 49.644531 35.835938 47.894531 C 35.835938 46.144531 34.410156 44.726562 32.652344 44.726562 C 30.890625 44.726562 29.464844 46.144531 29.464844 47.894531 Z M 46.78125 42.765625 L 45.242188 44.433594 C 46.1875 45.289062 46.777344 46.523438 46.777344 47.894531 C 46.777344 50.484375 44.667969 52.582031 42.066406 52.582031 C 40.832031 52.582031 39.707031 52.105469 38.867188 51.332031 L 37.359375 52.964844 L 35.851562 51.332031 C 35.011719 52.105469 33.886719 52.582031 32.652344 52.582031 C 30.050781 52.582031 27.941406 50.484375 27.941406 47.894531 C 27.941406 46.523438 28.535156 45.289062 29.480469 44.433594 L 27.9375 42.765625 L 31.363281 42.765625 C 33.070312 41.605469 35.128906 40.925781 37.359375 40.925781 C 39.59375 40.925781 41.65625 41.605469 43.367188 42.765625 Z M 46.78125 42.765625 " fill-opacity="1" fill-rule="evenodd"/></svg>