<svg xmlns="http://www.w3.org/2000/svg" xmlns:xlink="http://www.w3.org/1999/xlink" width="100" zoomAndPan="magnify" viewBox="0 0 75 74.999997" height="100" preserveAspectRatio="xMidYMid meet" version="1.0"><defs><clipPath id="2a67e6360c"><path d="M 0 13.5 L 75 13.5 L 75 61.5 L 0 61.5 Z M 0 13.5 " clip-rule="nonzero"/></clipPath></defs><g clip-path="url(#2a67e6360c)"><path fill="#6a7a99" d="M 10.722656 61.5 L 13.777344 46.257812 L 18.746094 46.257812 L 15.710938 61.5 Z M 25.71875 56.511719 L 28.878906 56.511719 L 28.066406 50.917969 Z M 18.746094 61.5 L 26.273438 46.257812 L 31.175781 46.257812 L 34.265625 61.5 L 29.65625 61.5 L 29.378906 59.6875 L 24.476562 59.6875 L 23.699219 61.5 Z M 38.835938 61.5 L 40.546875 50.039062 L 36.195312 50.039062 L 36.9375 46.191406 L 50.296875 46.191406 L 49.554688 50.039062 L 45.414062 50.039062 L 43.738281 61.5 Z M 55.546875 56.511719 L 58.703125 56.511719 L 57.894531 50.917969 Z M 48.589844 61.5 L 56.097656 46.257812 L 61 46.257812 L 64.089844 61.5 L 59.445312 61.5 L 59.222656 59.6875 L 54.320312 59.6875 L 53.542969 61.5 Z M 74.945312 29.035156 L 51.558594 29.035156 C 50.695312 33.3125 47.726562 36.886719 41.804688 39.355469 C 42.480469 41.390625 44.773438 43.273438 47.15625 43.273438 L 59.84375 43.273438 C 61.777344 43.273438 63.3125 41.652344 63.933594 40.339844 L 51.039062 40.339844 C 50.246094 40.203125 50.210938 39.5625 51.007812 39.492188 L 63.675781 39.492188 C 65.3125 39.492188 66.796875 38.09375 67.660156 36.578125 L 52.90625 36.578125 C 52.164062 36.457031 52.164062 35.835938 52.90625 35.714844 L 67.78125 35.714844 C 69.285156 35.714844 70.648438 33.96875 71.21875 32.796875 L 54.890625 32.796875 C 54.078125 32.691406 54.078125 31.933594 54.890625 31.917969 L 71.511719 31.917969 C 72.804688 31.917969 74.066406 30.5 74.945312 29.035156 Z M 0.0546875 29.035156 L 23.441406 29.035156 C 24.289062 33.3125 27.273438 36.886719 33.175781 39.355469 C 32.503906 41.390625 30.207031 43.273438 27.824219 43.273438 L 15.15625 43.273438 C 13.222656 43.273438 11.6875 41.652344 11.066406 40.339844 L 23.960938 40.339844 C 24.734375 40.203125 24.789062 39.5625 23.992188 39.492188 L 11.308594 39.492188 C 9.667969 39.492188 8.183594 38.09375 7.339844 36.578125 L 22.113281 36.578125 C 22.855469 36.457031 22.855469 35.835938 22.113281 35.714844 L 7.234375 35.714844 C 5.734375 35.714844 4.371094 33.96875 3.800781 32.796875 L 20.128906 32.796875 C 20.9375 32.691406 20.9375 31.933594 20.128906 31.917969 L 3.507812 31.917969 C 2.195312 31.917969 0.933594 30.5 0.0546875 29.035156 Z M 29.914062 16.191406 C 30.777344 16.933594 31.742188 17.589844 32.78125 18.003906 C 33.660156 16.277344 34.886719 14.792969 36.300781 13.484375 C 33.96875 13.792969 31.777344 14.671875 29.914062 16.191406 Z M 25.773438 24.703125 L 30.984375 24.703125 C 31.105469 22.5625 31.554688 20.679688 32.398438 18.746094 C 31.242188 18.230469 30.242188 17.609375 29.277344 16.78125 C 27.117188 18.9375 25.925781 21.714844 25.773438 24.703125 Z M 37.09375 19.816406 L 37.09375 24.703125 L 31.882812 24.703125 C 31.917969 22.785156 32.363281 20.816406 33.175781 19.039062 C 34.417969 19.488281 35.765625 19.78125 37.09375 19.816406 Z M 45.085938 16.191406 C 44.238281 16.933594 43.238281 17.589844 42.21875 18.003906 C 41.289062 16.246094 40.132812 14.828125 38.683594 13.5 C 41.03125 13.792969 43.222656 14.671875 45.085938 16.191406 Z M 49.210938 24.703125 L 44.015625 24.703125 C 43.945312 22.597656 43.464844 20.628906 42.636719 18.746094 C 43.738281 18.230469 44.792969 17.574219 45.707031 16.78125 C 47.949219 19.023438 49.105469 21.785156 49.210938 24.703125 Z M 37.941406 19.816406 L 37.941406 24.703125 L 43.117188 24.703125 C 43.117188 22.734375 42.636719 20.851562 41.824219 19.039062 C 40.582031 19.488281 39.25 19.78125 37.941406 19.816406 Z M 29.914062 34.074219 C 30.777344 33.402344 31.777344 32.660156 32.78125 32.296875 C 33.710938 34.039062 34.867188 35.472656 36.300781 36.765625 C 33.96875 36.457031 31.742188 35.574219 29.914062 34.074219 Z M 25.773438 25.546875 L 30.984375 25.546875 C 31.105469 27.703125 31.554688 29.605469 32.398438 31.554688 C 31.242188 32.070312 30.242188 32.691406 29.277344 33.503906 C 27.152344 31.363281 25.925781 28.585938 25.773438 25.546875 Z M 37.09375 30.449219 L 37.09375 25.546875 L 31.882812 25.546875 C 31.917969 27.515625 32.363281 29.464844 33.175781 31.207031 C 34.417969 30.761719 35.765625 30.484375 37.09375 30.449219 Z M 45.085938 34.074219 C 44.273438 33.367188 43.238281 32.710938 42.21875 32.296875 C 41.289062 34.039062 40.132812 35.472656 38.683594 36.765625 C 41.03125 36.457031 43.222656 35.574219 45.085938 34.074219 Z M 49.210938 25.546875 L 44.015625 25.546875 C 43.945312 27.703125 43.480469 29.621094 42.636719 31.554688 C 43.738281 32.070312 44.742188 32.691406 45.707031 33.503906 C 47.847656 31.363281 49.105469 28.515625 49.210938 25.546875 Z M 37.941406 30.449219 L 37.941406 25.546875 L 43.117188 25.546875 C 43.117188 27.515625 42.636719 29.429688 41.824219 31.207031 C 40.617188 30.761719 39.21875 30.484375 37.941406 30.449219 Z M 37.09375 13.984375 C 35.679688 15.121094 34.417969 16.675781 33.589844 18.296875 C 34.710938 18.679688 35.902344 18.988281 37.09375 18.988281 Z M 37.941406 13.984375 C 39.320312 15.121094 40.582031 16.625 41.410156 18.296875 C 40.289062 18.710938 39.097656 18.988281 37.941406 18.988281 Z M 37.09375 36.28125 C 35.679688 35.160156 34.417969 33.609375 33.589844 31.949219 C 34.710938 31.554688 35.902344 31.328125 37.09375 31.328125 Z M 37.941406 36.316406 C 39.320312 35.160156 40.582031 33.609375 41.410156 31.949219 C 40.289062 31.589844 39.097656 31.328125 37.941406 31.328125 Z M 37.941406 36.316406 " fill-opacity="1" fill-rule="nonzero"/></g></svg>