<svg width="30" height="30" viewBox="0 0 30 30" fill="none" xmlns="http://www.w3.org/2000/svg">
<path fill-rule="evenodd" clip-rule="evenodd" d="M29.9995 5.04859C29.9864 2.2582 27.7205 0 24.9273 0C24.2333 0 23.5531 0.131854 22.9698 0.391894L4.48685 8.24077C1.85272 9.35487 0 11.9652 0 15.0003V24.9276C0 27.7286 2.27076 30 5.07286 30C5.78344 30 6.45933 29.8529 7.07384 29.5889L25.4782 21.7747C28.1307 20.6681 30 18.0491 30 15.0003L29.9995 5.04859Z" fill="#FC4C02"/>
<path fill-rule="evenodd" clip-rule="evenodd" d="M12.9228 18.9195C12.6682 18.9195 12.4614 18.7228 12.4614 18.4804V9.20511C12.4614 8.96251 12.6682 8.76562 12.9228 8.76562C13.1778 8.76562 13.3845 8.96251 13.3845 9.20511V18.4804C13.3845 18.7228 13.1778 18.9195 12.9228 18.9195" fill="#FEFEFE"/>
<path fill-rule="evenodd" clip-rule="evenodd" d="M16.6155 18.4957V11.5065C16.6155 11.2699 16.4086 11.0781 16.1528 11.0781C15.8985 11.0781 15.6924 11.2699 15.6924 11.5065V18.4957C15.6924 18.7323 15.8985 18.9243 16.1528 18.9243C16.4086 18.9243 16.6155 18.7323 16.6155 18.4957" fill="#FEFEFE"/>
<path fill-rule="evenodd" clip-rule="evenodd" d="M16.6155 9.24053V9.21397C16.6155 8.96647 16.4086 8.76562 16.1528 8.76562C15.8985 8.76562 15.6924 8.96647 15.6924 9.21397V9.24053C15.6924 9.48816 15.8985 9.6887 16.1528 9.6887C16.4086 9.6887 16.6155 9.48816 16.6155 9.24053" fill="#FEFEFE"/>
<path fill-rule="evenodd" clip-rule="evenodd" d="M10.0295 17.7101C10.1952 17.5375 10.1952 17.2574 10.0295 17.085C9.86377 16.9121 9.59531 16.9121 9.4305 17.085C8.20727 18.359 6.21838 18.359 4.9956 17.085C3.77279 15.8092 3.77279 13.7345 4.9956 12.4596C5.58765 11.8421 6.3754 11.5019 7.21248 11.5019C8.05066 11.5019 8.83751 11.8421 9.42956 12.4596C9.59531 12.6327 9.86377 12.6327 10.0295 12.4596C10.1952 12.2866 10.1952 12.0069 10.0295 11.834C9.27728 11.0492 8.27696 10.6172 7.21248 10.6172C6.14849 10.6172 5.14837 11.0492 4.39568 11.834C2.84239 13.4538 2.84239 16.0894 4.39568 17.7101C5.17246 18.5202 6.19204 18.9249 7.21293 18.9249C8.23271 18.9249 9.2527 18.5202 10.0295 17.7101" fill="#FEFEFE"/>
<path fill-rule="evenodd" clip-rule="evenodd" d="M19.3459 20.3363V14.7001C19.3459 12.9281 20.8123 11.4863 22.6155 11.4863C24.4182 11.4863 25.8851 12.9281 25.8851 14.7001C25.8851 16.4724 24.4182 17.9137 22.6155 17.9137C21.5759 17.9137 20.8724 17.5234 20.867 17.5211C20.6566 17.3997 20.3852 17.4685 20.2618 17.6757C20.1388 17.8832 20.2094 18.1492 20.4197 18.2711C20.456 18.292 21.3237 18.7832 22.6155 18.7832C24.9061 18.7832 26.7691 16.9515 26.7691 14.7001C26.7691 12.4487 24.9061 10.6172 22.6155 10.6172C20.3247 10.6172 18.4614 12.4487 18.4614 14.7001V20.3363C18.4614 20.576 18.6598 20.771 18.9036 20.771C19.1477 20.771 19.3459 20.576 19.3459 20.3363" fill="#FEFEFE"/>
</svg>
