<svg id="Capa_2" data-name="Capa 2" xmlns="http://www.w3.org/2000/svg" viewBox="0 0 450.32 136.95"><path d="M130.5,4.5v131h41v-49s29,1,35,0,20-3,28-16,7-23,7-31-2-22-13-28-15-7-29-7Z" transform="translate(-1 -1.2)" style="fill:#323184"/><path d="M171.5,31.5v29h19c4,0,14-4,13-14s-5-14-10-15S171.5,31.5,171.5,31.5Z" transform="translate(-1 -1.2)" style="fill:#fff"/><polygon points="252 5.05 252 135.8 363 135.8 363 107.55 293.5 107.55 293.5 77.3 356.5 77.3 356.5 50.8 293.5 50.8 293.5 37.3 363 37.3 363 5.05 252 5.05" style="fill:#f3921a"/><polygon points="378 46.8 393 46.8 393 18.8 420 54.8 420 2.8 378 2.8 378 46.8" style="fill:#323184"/><polygon points="378 74.8 393 74.8 393 101.8 420 65.8 420 133.8 378 133.8 378 74.8" style="fill:#323184"/><path d="M436.08,17V6.22h4.57a7.94,7.94,0,0,1,2.51.29,2.46,2.46,0,0,1,1.25,1,3,3,0,0,1,.47,1.7,2.87,2.87,0,0,1-.71,2,3.39,3.39,0,0,1-2.13,1,5.33,5.33,0,0,1,1.17.91,12.73,12.73,0,0,1,1.23,1.74l1.32,2.1h-2.6l-1.57-2.34a14.42,14.42,0,0,0-1.15-1.58,1.6,1.6,0,0,0-.65-.45,3.66,3.66,0,0,0-1.1-.12h-.44V17Zm2.17-6.21h1.61a8.23,8.23,0,0,0,1.95-.13,1.14,1.14,0,0,0,.61-.46,1.35,1.35,0,0,0,.22-.8,1.25,1.25,0,0,0-.29-.88,1.27,1.27,0,0,0-.81-.42A15.8,15.8,0,0,0,440,8h-1.7Z" transform="translate(-1 -1.2)" style="fill:#323184"/><path d="M440.92,22a10.4,10.4,0,1,1,10.4-10.4A10.41,10.41,0,0,1,440.92,22Zm0-18.8a8.4,8.4,0,1,0,8.4,8.4A8.41,8.41,0,0,0,440.92,3.2Z" transform="translate(-1 -1.2)" style="fill:#323184"/><path d="M130.68,136V4H181.1q25.82,0,33.66,2a36.84,36.84,0,0,1,20.18,13.21q8.13,10.17,8.13,26.29,0,12.44-4.69,20.91a37.46,37.46,0,0,1-11.9,13.3,41.69,41.69,0,0,1-14.68,6.4q-10.14,1.94-29.36,1.94H172V136ZM171,31V60h10.24q11.07,0,14.79-1.6a12.57,12.57,0,0,0,5.85-5,14.81,14.81,0,0,0,2.12-8,14,14,0,0,0-3-9.2,12.62,12.62,0,0,0-7.52-4.53Q190.15,31,180,31Z" transform="translate(-1 -1.2)" style="fill:#323184"/><path d="M1,92l38-2c1.5,6.87,3.54,13.74,8.12,17.3s7,5.34,15.22,5.34c9.07,0,9.9-1.67,14.48-5a11.27,11.27,0,0,0,4.61-9.43,9.3,9.3,0,0,0-2.49-6.65A25.14,25.14,0,0,0,67.2,84.89C38.9,78.61,27,72.87,19.4,67.67c-10.49-7.2-12.73-15.21-12.73-28,0-11.56,5.53-19.28,14.6-27.15s21.14-9.81,40.2-9.81q27.21,0,40.45,8.92c8.82,5.95,11.25,18.25,14.58,29.89l-38,2C77.08,38.31,76,33,72,30.21A23.67,23.67,0,0,0,58.5,25.5c-5,0-7.26.87-11.26,3.46a8.39,8.39,0,0,0-4,7.16,7.81,7.81,0,0,0,3.49,6.41c3.17,2.35,7.09,3.66,25.78,7.93s29.73,10.5,37.13,16.7,11,15,11,26.26q0,18.35-15.23,31.54c-10.16,8.79-23.18,13.19-43.07,13.19-18.06,0-34.35-3.69-44.88-11.06S4.25,104.65,1,92Z" transform="translate(-1 -1.2)" style="fill:#323184"/></svg>