<svg xmlns="http://www.w3.org/2000/svg" xmlns:xlink="http://www.w3.org/1999/xlink" width="500" zoomAndPan="magnify" viewBox="0 0 375 374.999991" height="500" preserveAspectRatio="xMidYMid meet" version="1.2"><defs><clipPath id="487672774c"><path d="M 0 50.390625 L 369 50.390625 L 369 285 L 0 285 Z M 0 50.390625 "/></clipPath></defs><g id="70fb0a2f2f"><g clip-rule="nonzero" clip-path="url(#487672774c)"><path style=" stroke:none;fill-rule:nonzero;fill:#abc6eb;fill-opacity:1;" d="M 346.332031 284.414062 L 22.476562 284.414062 C 21.738281 284.414062 21.003906 284.378906 20.273438 284.304688 C 19.539062 284.234375 18.8125 284.125 18.089844 283.980469 C 17.367188 283.839844 16.65625 283.660156 15.949219 283.445312 C 15.246094 283.230469 14.554688 282.984375 13.875 282.703125 C 13.195312 282.417969 12.53125 282.105469 11.878906 281.757812 C 11.230469 281.410156 10.601562 281.03125 9.988281 280.621094 C 9.375 280.214844 8.785156 279.777344 8.214844 279.308594 C 7.648438 278.839844 7.101562 278.347656 6.582031 277.828125 C 6.0625 277.304688 5.566406 276.761719 5.101562 276.191406 C 4.632812 275.621094 4.195312 275.03125 3.789062 274.417969 C 3.378906 273.808594 3 273.175781 2.652344 272.527344 C 2.308594 271.878906 1.992188 271.210938 1.710938 270.53125 C 1.429688 269.851562 1.179688 269.160156 0.96875 268.457031 C 0.753906 267.75 0.574219 267.039062 0.433594 266.316406 C 0.289062 265.59375 0.179688 264.867188 0.109375 264.132812 C 0.0351562 263.402344 0 262.667969 0 261.929688 L 0 72.9375 C 0 72.203125 0.0351562 71.46875 0.109375 70.738281 C 0.179688 70.003906 0.289062 69.277344 0.433594 68.554688 C 0.574219 67.832031 0.753906 67.121094 0.96875 66.414062 C 1.179688 65.710938 1.429688 65.019531 1.710938 64.339844 C 1.992188 63.65625 2.308594 62.992188 2.652344 62.34375 C 3 61.695312 3.378906 61.066406 3.789062 60.453125 C 4.195312 59.839844 4.636719 59.25 5.101562 58.679688 C 5.570312 58.113281 6.0625 57.566406 6.582031 57.046875 C 7.105469 56.527344 7.648438 56.03125 8.21875 55.566406 C 8.785156 55.097656 9.375 54.660156 9.988281 54.25 C 10.601562 53.84375 11.230469 53.464844 11.882812 53.117188 C 12.53125 52.769531 13.195312 52.457031 13.875 52.175781 C 14.554688 51.894531 15.246094 51.644531 15.953125 51.429688 C 16.65625 51.21875 17.371094 51.039062 18.089844 50.894531 C 18.8125 50.75 19.539062 50.644531 20.273438 50.570312 C 21.003906 50.5 21.738281 50.464844 22.476562 50.464844 L 346.332031 50.464844 C 347.070312 50.464844 347.804688 50.5 348.535156 50.570312 C 349.269531 50.644531 349.996094 50.75 350.71875 50.894531 C 351.4375 51.039062 352.152344 51.21875 352.855469 51.429688 C 353.5625 51.644531 354.253906 51.894531 354.933594 52.175781 C 355.613281 52.457031 356.277344 52.769531 356.925781 53.117188 C 357.578125 53.464844 358.207031 53.84375 358.820312 54.25 C 359.429688 54.660156 360.023438 55.097656 360.589844 55.566406 C 361.160156 56.03125 361.703125 56.527344 362.226562 57.046875 C 362.746094 57.566406 363.238281 58.113281 363.707031 58.679688 C 364.171875 59.25 364.613281 59.839844 365.019531 60.453125 C 365.429688 61.066406 365.808594 61.695312 366.15625 62.34375 C 366.5 62.992188 366.816406 63.65625 367.097656 64.339844 C 367.378906 65.019531 367.625 65.710938 367.839844 66.414062 C 368.054688 67.121094 368.234375 67.832031 368.375 68.554688 C 368.519531 69.277344 368.628906 70.003906 368.699219 70.738281 C 368.773438 71.46875 368.808594 72.203125 368.808594 72.9375 L 368.808594 261.929688 C 368.808594 262.667969 368.773438 263.402344 368.699219 264.132812 C 368.628906 264.867188 368.519531 265.59375 368.375 266.316406 C 368.234375 267.039062 368.054688 267.75 367.839844 268.457031 C 367.628906 269.160156 367.378906 269.851562 367.097656 270.53125 C 366.816406 271.210938 366.5 271.878906 366.15625 272.527344 C 365.808594 273.175781 365.429688 273.808594 365.019531 274.417969 C 364.613281 275.03125 364.175781 275.621094 363.707031 276.191406 C 363.238281 276.761719 362.746094 277.304688 362.226562 277.828125 C 361.707031 278.347656 361.160156 278.839844 360.589844 279.308594 C 360.023438 279.773438 359.433594 280.214844 358.820312 280.621094 C 358.207031 281.03125 357.578125 281.410156 356.929688 281.757812 C 356.277344 282.105469 355.613281 282.417969 354.933594 282.703125 C 354.253906 282.984375 353.5625 283.230469 352.859375 283.445312 C 352.152344 283.660156 351.441406 283.839844 350.71875 283.980469 C 349.996094 284.125 349.269531 284.234375 348.535156 284.304688 C 347.804688 284.378906 347.070312 284.414062 346.332031 284.414062 Z M 346.332031 284.414062 "/></g><path style=" stroke:none;fill-rule:nonzero;fill:#004aad;fill-opacity:1;" d="M 102.828125 109.730469 C 102.828125 110.519531 102.789062 111.304688 102.710938 112.089844 C 102.636719 112.875 102.519531 113.65625 102.367188 114.429688 C 102.210938 115.203125 102.023438 115.96875 101.792969 116.722656 C 101.5625 117.476562 101.300781 118.21875 100.996094 118.949219 C 100.695312 119.679688 100.359375 120.390625 99.988281 121.085938 C 99.617188 121.78125 99.210938 122.457031 98.773438 123.113281 C 98.335938 123.769531 97.863281 124.402344 97.363281 125.015625 C 96.863281 125.625 96.335938 126.207031 95.777344 126.765625 C 95.21875 127.324219 94.636719 127.855469 94.027344 128.355469 C 93.417969 128.855469 92.785156 129.324219 92.128906 129.761719 C 91.472656 130.203125 90.796875 130.605469 90.101562 130.980469 C 89.402344 131.351562 88.691406 131.6875 87.964844 131.992188 C 87.234375 132.292969 86.492188 132.558594 85.738281 132.789062 C 84.980469 133.015625 84.21875 133.207031 83.445312 133.363281 C 82.671875 133.515625 81.890625 133.632812 81.105469 133.710938 C 80.320312 133.785156 79.535156 133.824219 78.746094 133.824219 C 77.957031 133.824219 77.167969 133.789062 76.382812 133.710938 C 75.597656 133.632812 74.816406 133.515625 74.042969 133.363281 C 73.269531 133.210938 72.507812 133.019531 71.75 132.789062 C 70.996094 132.558594 70.253906 132.292969 69.523438 131.992188 C 68.796875 131.691406 68.082031 131.355469 67.386719 130.980469 C 66.691406 130.609375 66.015625 130.207031 65.359375 129.765625 C 64.703125 129.328125 64.070312 128.859375 63.460938 128.359375 C 62.851562 127.859375 62.265625 127.328125 61.710938 126.769531 C 61.152344 126.214844 60.621094 125.628906 60.121094 125.019531 C 59.621094 124.410156 59.152344 123.777344 58.714844 123.121094 C 58.273438 122.464844 57.871094 121.789062 57.5 121.09375 C 57.125 120.398438 56.789062 119.683594 56.488281 118.957031 C 56.183594 118.226562 55.921875 117.484375 55.691406 116.730469 C 55.460938 115.972656 55.269531 115.210938 55.117188 114.4375 C 54.964844 113.660156 54.847656 112.882812 54.769531 112.097656 C 54.691406 111.3125 54.65625 110.523438 54.65625 109.734375 C 54.65625 108.945312 54.695312 108.160156 54.769531 107.375 C 54.847656 106.589844 54.964844 105.808594 55.117188 105.035156 C 55.273438 104.261719 55.464844 103.496094 55.691406 102.742188 C 55.921875 101.988281 56.1875 101.246094 56.488281 100.515625 C 56.792969 99.789062 57.128906 99.074219 57.5 98.378906 C 57.875 97.683594 58.277344 97.007812 58.71875 96.351562 C 59.15625 95.695312 59.625 95.0625 60.125 94.453125 C 60.625 93.84375 61.15625 93.261719 61.714844 92.703125 C 62.273438 92.144531 62.855469 91.617188 63.464844 91.117188 C 64.078125 90.617188 64.710938 90.144531 65.367188 89.707031 C 66.023438 89.269531 66.699219 88.863281 67.394531 88.492188 C 68.089844 88.121094 68.800781 87.785156 69.53125 87.484375 C 70.261719 87.179688 71.003906 86.917969 71.757812 86.6875 C 72.511719 86.457031 73.277344 86.265625 74.050781 86.113281 C 74.824219 85.960938 75.605469 85.84375 76.390625 85.769531 C 77.175781 85.691406 77.960938 85.652344 78.75 85.652344 C 79.539062 85.652344 80.324219 85.691406 81.109375 85.769531 C 81.894531 85.847656 82.675781 85.960938 83.449219 86.117188 C 84.222656 86.269531 84.984375 86.460938 85.738281 86.691406 C 86.496094 86.917969 87.234375 87.183594 87.964844 87.484375 C 88.691406 87.789062 89.40625 88.125 90.101562 88.496094 C 90.796875 88.867188 91.472656 89.273438 92.128906 89.710938 C 92.78125 90.148438 93.414062 90.617188 94.023438 91.117188 C 94.632812 91.617188 95.21875 92.148438 95.777344 92.703125 C 96.332031 93.261719 96.863281 93.847656 97.363281 94.457031 C 97.863281 95.066406 98.332031 95.699219 98.769531 96.351562 C 99.207031 97.007812 99.613281 97.683594 99.984375 98.378906 C 100.355469 99.074219 100.691406 99.785156 100.996094 100.515625 C 101.296875 101.242188 101.5625 101.984375 101.789062 102.742188 C 102.019531 103.496094 102.210938 104.257812 102.363281 105.03125 C 102.519531 105.804688 102.632812 106.585938 102.710938 107.371094 C 102.789062 108.152344 102.828125 108.941406 102.828125 109.730469 Z M 123.753906 183.5 C 123.753906 182.148438 123.6875 180.796875 123.554688 179.453125 C 123.421875 178.109375 123.222656 176.773438 122.957031 175.445312 C 122.695312 174.121094 122.367188 172.8125 121.972656 171.519531 C 121.582031 170.222656 121.125 168.953125 120.609375 167.703125 C 120.089844 166.457031 119.511719 165.234375 118.875 164.042969 C 118.238281 162.851562 117.542969 161.691406 116.792969 160.570312 C 116.042969 159.445312 115.238281 158.359375 114.378906 157.316406 C 113.519531 156.269531 112.613281 155.269531 111.660156 154.316406 C 110.703125 153.359375 109.703125 152.453125 108.65625 151.59375 C 107.613281 150.738281 106.527344 149.933594 105.402344 149.183594 C 104.28125 148.433594 103.121094 147.738281 101.929688 147.101562 C 100.738281 146.464844 99.515625 145.886719 98.265625 145.371094 C 97.019531 144.851562 95.746094 144.398438 94.453125 144.003906 C 93.160156 143.613281 91.851562 143.285156 90.523438 143.019531 C 89.199219 142.757812 87.863281 142.558594 86.519531 142.425781 C 85.171875 142.292969 83.824219 142.226562 82.472656 142.226562 L 75.019531 142.226562 C 73.667969 142.226562 72.320312 142.292969 70.976562 142.425781 C 69.628906 142.558594 68.292969 142.757812 66.96875 143.019531 C 65.644531 143.285156 64.332031 143.613281 63.039062 144.003906 C 61.746094 144.398438 60.476562 144.851562 59.226562 145.371094 C 57.976562 145.886719 56.757812 146.464844 55.566406 147.101562 C 54.371094 147.738281 53.214844 148.433594 52.089844 149.183594 C 50.96875 149.933594 49.882812 150.738281 48.839844 151.597656 C 47.792969 152.453125 46.792969 153.359375 45.835938 154.316406 C 44.882812 155.273438 43.972656 156.273438 43.117188 157.316406 C 42.257812 158.363281 41.457031 159.445312 40.703125 160.570312 C 39.953125 161.695312 39.257812 162.851562 38.621094 164.042969 C 37.984375 165.234375 37.40625 166.457031 36.890625 167.707031 C 36.375 168.953125 35.917969 170.226562 35.527344 171.519531 C 35.132812 172.8125 34.804688 174.121094 34.542969 175.449219 C 34.277344 176.773438 34.082031 178.109375 33.949219 179.453125 C 33.816406 180.796875 33.75 182.148438 33.75 183.5 L 33.75 187.230469 L 123.773438 187.230469 Z M 348.09375 93.414062 L 166.464844 93.414062 L 166.464844 114.980469 L 348.09375 114.980469 Z M 286.425781 129.484375 L 166.464844 129.484375 L 166.464844 148.488281 L 286.425781 148.488281 Z M 331.839844 162.972656 L 166.464844 162.972656 L 166.464844 181.917969 L 331.839844 181.917969 Z M 167.355469 217.328125 L 41.0625 217.328125 L 41.0625 236.273438 L 167.355469 236.273438 Z M 237.191406 250.816406 L 41.0625 250.816406 L 41.0625 269.761719 L 237.191406 269.761719 Z M 237.191406 250.816406 "/><path style=" stroke:none;fill-rule:nonzero;fill:#4abd3e;fill-opacity:1;" d="M 375.011719 269.761719 C 375.011719 271.425781 374.929688 273.085938 374.765625 274.738281 C 374.605469 276.394531 374.359375 278.039062 374.035156 279.671875 C 373.710938 281.300781 373.308594 282.914062 372.824219 284.503906 C 372.34375 286.097656 371.785156 287.660156 371.148438 289.199219 C 370.511719 290.734375 369.800781 292.238281 369.015625 293.703125 C 368.234375 295.171875 367.378906 296.597656 366.457031 297.980469 C 365.53125 299.363281 364.542969 300.695312 363.488281 301.984375 C 362.433594 303.269531 361.316406 304.5 360.140625 305.675781 C 358.964844 306.851562 357.734375 307.96875 356.449219 309.023438 C 355.164062 310.078125 353.828125 311.070312 352.445312 311.992188 C 351.0625 312.917969 349.636719 313.773438 348.171875 314.554688 C 346.703125 315.339844 345.203125 316.050781 343.664062 316.6875 C 342.128906 317.324219 340.5625 317.882812 338.972656 318.367188 C 337.382812 318.851562 335.769531 319.253906 334.136719 319.578125 C 332.507812 319.902344 330.863281 320.148438 329.207031 320.3125 C 327.550781 320.472656 325.894531 320.554688 324.230469 320.554688 C 322.566406 320.554688 320.90625 320.472656 319.25 320.3125 C 317.597656 320.148438 315.953125 319.90625 314.320312 319.582031 C 312.691406 319.253906 311.078125 318.851562 309.488281 318.371094 C 307.894531 317.886719 306.332031 317.328125 304.792969 316.691406 C 303.257812 316.054688 301.753906 315.34375 300.289062 314.558594 C 298.820312 313.777344 297.394531 312.921875 296.011719 311.996094 C 294.628906 311.074219 293.296875 310.082031 292.011719 309.027344 C 290.722656 307.972656 289.492188 306.859375 288.316406 305.679688 C 287.140625 304.503906 286.023438 303.273438 284.96875 301.988281 C 283.914062 300.703125 282.925781 299.367188 282 297.984375 C 281.078125 296.601562 280.222656 295.175781 279.4375 293.710938 C 278.65625 292.242188 277.945312 290.742188 277.308594 289.203125 C 276.671875 287.667969 276.113281 286.101562 275.628906 284.511719 C 275.144531 282.917969 274.742188 281.308594 274.417969 279.675781 C 274.09375 278.046875 273.851562 276.402344 273.6875 274.746094 C 273.523438 273.089844 273.441406 271.433594 273.441406 269.769531 C 273.441406 268.105469 273.523438 266.445312 273.6875 264.789062 C 273.851562 263.136719 274.09375 261.492188 274.417969 259.859375 C 274.746094 258.230469 275.148438 256.617188 275.632812 255.027344 C 276.113281 253.433594 276.675781 251.871094 277.308594 250.332031 C 277.945312 248.796875 278.65625 247.292969 279.441406 245.828125 C 280.226562 244.359375 281.082031 242.9375 282.003906 241.554688 C 282.929688 240.171875 283.917969 238.835938 284.972656 237.550781 C 286.03125 236.265625 287.144531 235.035156 288.320312 233.859375 C 289.5 232.683594 290.730469 231.566406 292.015625 230.511719 C 293.300781 229.457031 294.636719 228.464844 296.019531 227.542969 C 297.402344 226.617188 298.828125 225.765625 300.292969 224.980469 C 301.761719 224.195312 303.261719 223.488281 304.800781 222.851562 C 306.335938 222.214844 307.902344 221.65625 309.492188 221.171875 C 311.085938 220.691406 312.695312 220.285156 314.328125 219.960938 C 315.960938 219.636719 317.601562 219.394531 319.257812 219.230469 C 320.914062 219.070312 322.574219 218.988281 324.238281 218.988281 C 325.898438 218.988281 327.558594 219.070312 329.210938 219.234375 C 330.867188 219.398438 332.511719 219.640625 334.140625 219.964844 C 335.773438 220.289062 337.382812 220.695312 338.972656 221.175781 C 340.566406 221.660156 342.128906 222.21875 343.664062 222.855469 C 345.203125 223.492188 346.703125 224.203125 348.167969 224.988281 C 349.636719 225.769531 351.058594 226.625 352.441406 227.546875 C 353.824219 228.472656 355.160156 229.460938 356.445312 230.515625 C 357.730469 231.570312 358.960938 232.6875 360.136719 233.863281 C 361.3125 235.039062 362.425781 236.269531 363.480469 237.554688 C 364.535156 238.839844 365.527344 240.171875 366.449219 241.554688 C 367.375 242.9375 368.226562 244.363281 369.011719 245.828125 C 369.796875 247.296875 370.507812 248.796875 371.140625 250.332031 C 371.777344 251.871094 372.339844 253.433594 372.820312 255.023438 C 373.304688 256.617188 373.707031 258.226562 374.03125 259.855469 C 374.355469 261.488281 374.601562 263.128906 374.765625 264.785156 C 374.929688 266.441406 375.007812 268.097656 375.011719 269.761719 Z M 375.011719 269.761719 "/><path style=" stroke:none;fill-rule:nonzero;fill:#ffffff;fill-opacity:1;" d="M 359.675781 244.226562 C 359.300781 243.847656 358.890625 243.515625 358.449219 243.21875 C 358.007812 242.921875 357.539062 242.675781 357.046875 242.46875 C 356.558594 242.265625 356.050781 242.113281 355.527344 242.011719 C 355.007812 241.90625 354.480469 241.855469 353.949219 241.855469 C 353.417969 241.855469 352.890625 241.90625 352.371094 242.011719 C 351.847656 242.113281 351.339844 242.265625 350.851562 242.46875 C 350.359375 242.675781 349.890625 242.921875 349.449219 243.21875 C 349.007812 243.515625 348.597656 243.847656 348.222656 244.226562 L 318.214844 274.183594 C 317.859375 274.542969 317.445312 274.820312 316.976562 275.015625 C 316.507812 275.210938 316.019531 275.308594 315.515625 275.308594 C 315.007812 275.308594 314.519531 275.210938 314.050781 275.015625 C 313.582031 274.820312 313.171875 274.542969 312.8125 274.183594 L 300.210938 261.578125 C 299.832031 261.203125 299.425781 260.867188 298.980469 260.574219 C 298.539062 260.277344 298.070312 260.027344 297.578125 259.824219 C 297.089844 259.621094 296.582031 259.46875 296.058594 259.363281 C 295.539062 259.261719 295.011719 259.207031 294.476562 259.207031 C 293.945312 259.207031 293.417969 259.261719 292.898438 259.363281 C 292.375 259.46875 291.867188 259.621094 291.378906 259.824219 C 290.886719 260.027344 290.417969 260.277344 289.976562 260.574219 C 289.53125 260.867188 289.125 261.203125 288.746094 261.578125 C 288.371094 261.957031 288.035156 262.367188 287.738281 262.808594 C 287.445312 263.25 287.195312 263.71875 286.992188 264.210938 C 286.789062 264.703125 286.636719 265.207031 286.53125 265.730469 C 286.425781 266.253906 286.375 266.777344 286.375 267.3125 C 286.375 267.84375 286.425781 268.371094 286.53125 268.890625 C 286.636719 269.414062 286.789062 269.921875 286.992188 270.414062 C 287.195312 270.90625 287.445312 271.371094 287.738281 271.8125 C 288.035156 272.257812 288.371094 272.667969 288.746094 273.042969 L 304.519531 288.816406 L 309.574219 293.816406 C 309.960938 294.207031 310.386719 294.558594 310.847656 294.863281 C 311.304688 295.167969 311.789062 295.429688 312.296875 295.640625 C 312.808594 295.851562 313.332031 296.011719 313.875 296.117188 C 314.414062 296.226562 314.960938 296.28125 315.515625 296.28125 C 316.066406 296.28125 316.613281 296.226562 317.152344 296.117188 C 317.695312 296.011719 318.21875 295.851562 318.730469 295.640625 C 319.238281 295.429688 319.722656 295.171875 320.183594 294.863281 C 320.640625 294.558594 321.066406 294.207031 321.457031 293.816406 L 359.617188 255.65625 C 359.992188 255.285156 360.328125 254.878906 360.625 254.4375 C 360.921875 253.996094 361.175781 253.535156 361.378906 253.042969 C 361.585938 252.554688 361.742188 252.050781 361.847656 251.53125 C 361.953125 251.011719 362.007812 250.484375 362.011719 249.953125 C 362.011719 249.421875 361.964844 248.898438 361.863281 248.375 C 361.761719 247.855469 361.613281 247.347656 361.414062 246.859375 C 361.210938 246.367188 360.964844 245.898438 360.671875 245.457031 C 360.382812 245.011719 360.046875 244.601562 359.675781 244.226562 Z M 359.675781 244.226562 "/></g></svg>