<svg xmlns="http://www.w3.org/2000/svg" xmlns:xlink="http://www.w3.org/1999/xlink" width="500" zoomAndPan="magnify" viewBox="0 0 375 374.999991" height="500" preserveAspectRatio="xMidYMid meet" version="1.2"><g id="c70007def2"><path style=" stroke:none;fill-rule:nonzero;fill:#89ccff;fill-opacity:1;" d="M 359.375 187.5 C 359.375 190.3125 359.304688 193.125 359.167969 195.933594 C 359.03125 198.742188 358.824219 201.546875 358.546875 204.347656 C 358.273438 207.144531 357.925781 209.9375 357.515625 212.71875 C 357.101562 215.5 356.621094 218.273438 356.074219 221.03125 C 355.523438 223.789062 354.90625 226.535156 354.222656 229.261719 C 353.539062 231.992188 352.789062 234.699219 351.972656 237.394531 C 351.15625 240.085938 350.277344 242.753906 349.328125 245.402344 C 348.378906 248.050781 347.367188 250.675781 346.292969 253.273438 C 345.214844 255.871094 344.074219 258.441406 342.875 260.984375 C 341.671875 263.527344 340.40625 266.039062 339.082031 268.519531 C 337.753906 271.003906 336.367188 273.449219 334.921875 275.863281 C 333.476562 278.273438 331.972656 280.648438 330.410156 282.988281 C 328.847656 285.328125 327.226562 287.625 325.550781 289.886719 C 323.875 292.144531 322.144531 294.363281 320.359375 296.535156 C 318.578125 298.710938 316.738281 300.839844 314.851562 302.925781 C 312.960938 305.007812 311.023438 307.046875 309.035156 309.035156 C 307.046875 311.023438 305.007812 312.960938 302.925781 314.851562 C 300.839844 316.738281 298.710938 318.578125 296.535156 320.359375 C 294.363281 322.144531 292.144531 323.875 289.886719 325.550781 C 287.625 327.226562 285.328125 328.847656 282.988281 330.410156 C 280.648438 331.972656 278.273438 333.476562 275.863281 334.921875 C 273.449219 336.367188 271.003906 337.753906 268.519531 339.082031 C 266.039062 340.40625 263.527344 341.671875 260.984375 342.875 C 258.441406 344.074219 255.871094 345.214844 253.273438 346.292969 C 250.675781 347.367188 248.050781 348.378906 245.402344 349.328125 C 242.753906 350.277344 240.085938 351.15625 237.394531 351.972656 C 234.699219 352.789062 231.992188 353.539062 229.261719 354.222656 C 226.535156 354.90625 223.789062 355.523438 221.03125 356.074219 C 218.273438 356.621094 215.5 357.101562 212.71875 357.515625 C 209.9375 357.925781 207.144531 358.273438 204.347656 358.546875 C 201.546875 358.824219 198.742188 359.03125 195.933594 359.167969 C 193.125 359.304688 190.3125 359.375 187.5 359.375 C 184.6875 359.375 181.875 359.304688 179.066406 359.167969 C 176.257812 359.03125 173.453125 358.824219 170.652344 358.546875 C 167.855469 358.273438 165.0625 357.925781 162.28125 357.515625 C 159.5 357.101562 156.726562 356.621094 153.96875 356.074219 C 151.210938 355.523438 148.464844 354.90625 145.738281 354.222656 C 143.007812 353.539062 140.300781 352.789062 137.605469 351.972656 C 134.914062 351.15625 132.246094 350.277344 129.597656 349.328125 C 126.949219 348.378906 124.324219 347.367188 121.726562 346.292969 C 119.128906 345.214844 116.558594 344.074219 114.015625 342.875 C 111.472656 341.671875 108.960938 340.40625 106.480469 339.082031 C 103.996094 337.753906 101.550781 336.367188 99.136719 334.921875 C 96.726562 333.476562 94.351562 331.972656 92.011719 330.410156 C 89.671875 328.847656 87.375 327.226562 85.113281 325.550781 C 82.855469 323.875 80.636719 322.144531 78.464844 320.359375 C 76.289062 318.578125 74.160156 316.738281 72.074219 314.851562 C 69.992188 312.960938 67.953125 311.023438 65.964844 309.035156 C 63.976562 307.046875 62.039062 305.007812 60.148438 302.925781 C 58.261719 300.839844 56.421875 298.710938 54.640625 296.535156 C 52.855469 294.363281 51.125 292.144531 49.449219 289.886719 C 47.773438 287.625 46.152344 285.328125 44.589844 282.988281 C 43.027344 280.648438 41.523438 278.273438 40.078125 275.863281 C 38.632812 273.449219 37.246094 271.003906 35.917969 268.519531 C 34.59375 266.039062 33.328125 263.527344 32.125 260.984375 C 30.925781 258.441406 29.785156 255.871094 28.707031 253.273438 C 27.632812 250.675781 26.621094 248.050781 25.671875 245.402344 C 24.722656 242.753906 23.84375 240.085938 23.027344 237.394531 C 22.210938 234.699219 21.460938 231.992188 20.777344 229.261719 C 20.09375 226.535156 19.476562 223.789062 18.925781 221.03125 C 18.378906 218.273438 17.898438 215.5 17.484375 212.71875 C 17.074219 209.9375 16.726562 207.144531 16.453125 204.347656 C 16.175781 201.546875 15.96875 198.742188 15.832031 195.933594 C 15.695312 193.125 15.625 190.3125 15.625 187.5 C 15.625 184.6875 15.695312 181.875 15.832031 179.066406 C 15.96875 176.257812 16.175781 173.453125 16.453125 170.652344 C 16.726562 167.855469 17.074219 165.0625 17.484375 162.28125 C 17.898438 159.5 18.378906 156.726562 18.925781 153.96875 C 19.476562 151.210938 20.09375 148.464844 20.777344 145.738281 C 21.460938 143.007812 22.210938 140.300781 23.027344 137.605469 C 23.84375 134.914062 24.722656 132.246094 25.671875 129.597656 C 26.621094 126.949219 27.632812 124.324219 28.707031 121.726562 C 29.785156 119.128906 30.925781 116.558594 32.125 114.015625 C 33.328125 111.472656 34.59375 108.960938 35.917969 106.480469 C 37.246094 103.996094 38.632812 101.550781 40.078125 99.136719 C 41.523438 96.726562 43.027344 94.351562 44.589844 92.011719 C 46.152344 89.671875 47.773438 87.375 49.449219 85.113281 C 51.125 82.855469 52.855469 80.636719 54.640625 78.464844 C 56.421875 76.289062 58.261719 74.160156 60.148438 72.074219 C 62.039062 69.992188 63.976562 67.953125 65.964844 65.964844 C 67.953125 63.976562 69.992188 62.039062 72.074219 60.148438 C 74.160156 58.261719 76.289062 56.421875 78.464844 54.640625 C 80.636719 52.855469 82.855469 51.125 85.113281 49.449219 C 87.375 47.773438 89.671875 46.152344 92.011719 44.589844 C 94.351562 43.027344 96.726562 41.523438 99.136719 40.078125 C 101.550781 38.632812 103.996094 37.246094 106.480469 35.917969 C 108.960938 34.59375 111.472656 33.328125 114.015625 32.125 C 116.558594 30.925781 119.128906 29.785156 121.726562 28.707031 C 124.324219 27.632812 126.949219 26.621094 129.597656 25.671875 C 132.246094 24.722656 134.914062 23.84375 137.605469 23.027344 C 140.300781 22.210938 143.007812 21.460938 145.738281 20.777344 C 148.464844 20.09375 151.210938 19.476562 153.96875 18.925781 C 156.726562 18.378906 159.5 17.898438 162.28125 17.484375 C 165.0625 17.074219 167.855469 16.726562 170.652344 16.453125 C 173.453125 16.175781 176.257812 15.96875 179.066406 15.832031 C 181.875 15.695312 184.6875 15.625 187.5 15.625 C 190.3125 15.625 193.125 15.695312 195.933594 15.832031 C 198.742188 15.96875 201.546875 16.175781 204.347656 16.453125 C 207.144531 16.726562 209.9375 17.074219 212.71875 17.484375 C 215.5 17.898438 218.273438 18.378906 221.03125 18.925781 C 223.789062 19.476562 226.535156 20.09375 229.261719 20.777344 C 231.992188 21.460938 234.699219 22.210938 237.394531 23.027344 C 240.085938 23.84375 242.753906 24.722656 245.402344 25.671875 C 248.050781 26.621094 250.675781 27.632812 253.273438 28.707031 C 255.871094 29.785156 258.441406 30.925781 260.984375 32.125 C 263.527344 33.328125 266.039062 34.59375 268.519531 35.917969 C 271.003906 37.246094 273.449219 38.632812 275.863281 40.078125 C 278.273438 41.523438 280.648438 43.027344 282.988281 44.589844 C 285.328125 46.152344 287.625 47.773438 289.886719 49.449219 C 292.144531 51.125 294.363281 52.855469 296.535156 54.640625 C 298.710938 56.421875 300.839844 58.261719 302.925781 60.148438 C 305.007812 62.039062 307.046875 63.976562 309.035156 65.964844 C 311.023438 67.953125 312.960938 69.992188 314.851562 72.074219 C 316.738281 74.160156 318.578125 76.289062 320.359375 78.464844 C 322.144531 80.636719 323.875 82.855469 325.550781 85.113281 C 327.226562 87.375 328.847656 89.671875 330.410156 92.011719 C 331.972656 94.351562 333.476562 96.726562 334.921875 99.136719 C 336.367188 101.550781 337.753906 103.996094 339.082031 106.480469 C 340.40625 108.960938 341.671875 111.472656 342.875 114.015625 C 344.074219 116.558594 345.214844 119.128906 346.292969 121.726562 C 347.367188 124.324219 348.378906 126.949219 349.328125 129.597656 C 350.277344 132.246094 351.15625 134.914062 351.972656 137.605469 C 352.789062 140.300781 353.539062 143.007812 354.222656 145.738281 C 354.90625 148.464844 355.523438 151.210938 356.074219 153.96875 C 356.621094 156.726562 357.101562 159.5 357.515625 162.28125 C 357.925781 165.0625 358.273438 167.855469 358.546875 170.652344 C 358.824219 173.453125 359.03125 176.257812 359.167969 179.066406 C 359.304688 181.875 359.375 184.6875 359.375 187.5 Z M 359.375 187.5 "/><path style=" stroke:none;fill-rule:nonzero;fill:#2169ac;fill-opacity:1;" d="M 187.5 0 C 83.875 0 0 83.863281 0 187.5 C 0 291.125 83.863281 375 187.5 375 C 291.125 375 375 291.136719 375 187.5 C 375 83.875 291.136719 0 187.5 0 Z M 187.5 343.75 C 101.34375 343.75 31.25 273.65625 31.25 187.5 C 31.25 101.34375 101.34375 31.25 187.5 31.25 C 273.65625 31.25 343.75 101.34375 343.75 187.5 C 343.75 273.65625 273.65625 343.75 187.5 343.75 Z M 187.5 343.75 "/><path style=" stroke:none;fill-rule:nonzero;fill:#2169ac;fill-opacity:1;" d="M 198.546875 154.359375 L 154.359375 198.546875 C 148.253906 204.648438 148.253906 214.539062 154.359375 220.644531 C 157.410156 223.695312 161.40625 225.21875 165.40625 225.21875 C 169.40625 225.21875 173.402344 223.691406 176.453125 220.640625 L 220.640625 176.453125 C 226.742188 170.351562 226.742188 160.460938 220.640625 154.359375 C 214.539062 148.257812 204.648438 148.257812 198.546875 154.359375 Z M 198.546875 154.359375 "/><path style=" stroke:none;fill-rule:nonzero;fill:#2169ac;fill-opacity:1;" d="M 275.886719 99.117188 C 245.367188 68.578125 195.945312 68.570312 165.402344 99.113281 L 154.355469 110.167969 C 148.253906 116.269531 148.257812 126.164062 154.363281 132.265625 C 160.464844 138.363281 170.359375 138.359375 176.460938 132.257812 L 187.5 121.207031 C 205.816406 102.890625 235.464844 102.878906 253.789062 121.214844 C 272.105469 139.523438 272.121094 169.171875 253.800781 187.496094 L 242.746094 198.542969 C 236.640625 204.640625 236.636719 214.535156 242.738281 220.640625 C 248.832031 226.742188 258.726562 226.75 264.832031 220.648438 L 275.890625 209.597656 C 306.417969 179.070312 306.429688 129.648438 275.886719 99.117188 Z M 275.886719 99.117188 "/><path style=" stroke:none;fill-rule:nonzero;fill:#2169ac;fill-opacity:1;" d="M 198.542969 242.742188 L 187.496094 253.792969 C 169.1875 272.109375 139.53125 272.121094 121.210938 253.785156 C 102.890625 235.472656 102.882812 205.824219 121.210938 187.503906 L 132.257812 176.457031 C 138.359375 170.351562 138.359375 160.460938 132.257812 154.359375 C 126.15625 148.253906 116.261719 148.253906 110.160156 154.355469 L 99.117188 165.402344 C 68.582031 195.925781 68.566406 245.347656 99.109375 275.882812 C 129.632812 306.421875 179.066406 306.433594 209.59375 275.882812 L 220.640625 264.835938 C 226.742188 258.734375 226.742188 248.839844 220.640625 242.738281 C 214.539062 236.636719 204.648438 236.636719 198.542969 242.742188 Z M 198.542969 242.742188 "/></g></svg>