<svg xmlns="http://www.w3.org/2000/svg" xmlns:xlink="http://www.w3.org/1999/xlink" width="500" zoomAndPan="magnify" viewBox="0 0 375 374.999991" height="500" preserveAspectRatio="xMidYMid meet" version="1.2"><defs><clipPath id="2f3eb39a3b"><path d="M 8 78 L 212 78 L 212 357.886719 L 8 357.886719 Z M 8 78 "/></clipPath><clipPath id="63c8b753f4"><path d="M 255 17.386719 L 320 17.386719 L 320 123 L 255 123 Z M 255 17.386719 "/></clipPath></defs><g id="47d7743d11"><path style=" stroke:none;fill-rule:evenodd;fill:#c6d8fb;fill-opacity:1;" d="M 89.898438 254.042969 Z M 104.453125 239.40625 Z M 109.804688 241.691406 C 140.554688 241.691406 149.117188 284.820312 120.148438 296.246094 L 120.148438 300.242188 C 119.863281 315.238281 97.316406 312.882812 99.457031 298.246094 L 91.894531 298.246094 C 78.269531 298.246094 78.269531 277.535156 91.894531 277.535156 L 109.804688 277.535156 C 119.863281 277.535156 119.71875 262.328125 109.804688 262.328125 C 78.765625 262.113281 70.847656 219.125 99.457031 207.773438 L 99.457031 203.773438 C 99.742188 188.777344 122.289062 191.136719 120.148438 205.773438 L 127.710938 205.773438 C 141.339844 205.773438 141.339844 226.480469 127.710938 226.480469 L 109.804688 226.480469 C 103.167969 226.480469 99.671875 234.621094 104.453125 239.476562 Z M 22.1875 220.625 C 0 279.820312 13.839844 344.371094 51.871094 354.582031 L 167.738281 354.582031 C 219.390625 336.019531 213.183594 256.113281 194.0625 211.699219 C 185.859375 189.851562 175.441406 164.359375 155.679688 152.148438 C 155.179688 152.363281 154.609375 152.503906 153.96875 152.503906 L 65.640625 152.503906 C 64.996094 152.503906 64.425781 152.363281 63.925781 152.148438 C 41.382812 166 30.964844 197.277344 22.1875 220.625 Z M 22.1875 220.625 "/><path style=" stroke:none;fill-rule:evenodd;fill:#c6d8fb;fill-opacity:1;" d="M 65.640625 125.511719 L 153.824219 125.511719 C 168.523438 56.75 154.824219 90.238281 105.449219 88.023438 C 60.789062 86.027344 51.871094 62.53125 65.640625 125.511719 Z M 65.640625 125.511719 "/><path style=" stroke:none;fill-rule:evenodd;fill:#c6d8fb;fill-opacity:1;" d="M 294.804688 172.210938 L 199.699219 227.125 C 200.699219 230.121094 201.625 233.195312 202.410156 236.191406 L 233.234375 236.191406 C 235.375 202.917969 284.03125 202.632812 286.316406 236.191406 L 332.261719 236.191406 C 330.195312 229.050781 333.121094 221.054688 339.824219 217.199219 L 317.351562 178.210938 C 309.503906 182.851562 299.371094 180.140625 294.804688 172.210938 Z M 294.804688 172.210938 "/><path style=" stroke:none;fill-rule:evenodd;fill:#c6d8fb;fill-opacity:1;" d="M 322.703125 252.542969 L 205.90625 252.542969 C 210.546875 280.964844 207.40625 308.167969 197.703125 327.519531 C 198.34375 328.804688 199.273438 329.878906 200.414062 330.589844 L 322.703125 330.589844 C 322.703125 321.523438 330.121094 314.023438 339.183594 314.023438 L 339.183594 269.039062 C 330.195312 269.109375 322.703125 261.683594 322.703125 252.542969 Z M 259.773438 265.039062 C 294.878906 266.113281 294.878906 317.09375 259.773438 318.167969 C 224.671875 317.09375 224.742188 266.113281 259.773438 265.039062 Z M 259.773438 265.039062 "/><path style=" stroke:none;fill-rule:nonzero;fill:#428dff;fill-opacity:1;" d="M 200.484375 333.945312 C 198.128906 333.804688 196.347656 331.519531 195.132812 329.664062 C 196.773438 328.164062 198.628906 326.878906 200.554688 325.878906 C 201.199219 326.949219 201.625 327.449219 202.269531 327.878906 C 205.050781 329.519531 203.625 334.089844 200.484375 333.945312 Z M 358.519531 247.6875 C 355.238281 247.761719 353.953125 243.046875 356.878906 241.476562 C 360.230469 238.976562 369.292969 236.691406 366.152344 230.835938 L 318.777344 148.648438 C 317.566406 146.507812 314.640625 145.722656 312.5 147.007812 L 195.703125 214.484375 C 194.136719 215.414062 192.066406 214.84375 191.210938 213.269531 C 190.28125 211.699219 190.851562 209.628906 192.421875 208.773438 L 309.21875 141.292969 C 314.355469 138.152344 321.632812 140.152344 324.488281 145.363281 L 371.859375 227.550781 C 375 232.695312 373.003906 239.976562 367.792969 242.832031 C 366.582031 243.476562 359.804688 247.902344 358.519531 247.6875 Z M 358.519531 247.6875 "/><path style=" stroke:none;fill-rule:nonzero;fill:#428dff;fill-opacity:1;" d="M 332.261719 239.621094 C 330.835938 239.621094 329.480469 238.691406 329.125 237.261719 C 326.839844 229.480469 329.480469 221.339844 335.472656 216.339844 L 315.996094 182.636719 C 308.148438 185.566406 299.15625 183.136719 293.808594 176.710938 L 201.339844 230.121094 C 199.773438 231.050781 197.703125 230.480469 196.847656 228.910156 C 195.917969 227.339844 196.488281 225.265625 198.058594 224.410156 L 293.164062 169.5 C 294.734375 168.570312 296.804688 169.140625 297.660156 170.714844 C 301.296875 176.996094 309.433594 179.210938 315.710938 175.570312 C 317.28125 174.640625 319.347656 175.210938 320.207031 176.78125 L 342.679688 215.769531 C 343.605469 217.339844 343.035156 219.410156 341.46875 220.269531 C 336.257812 223.269531 333.691406 229.695312 335.402344 235.476562 C 336.117188 237.40625 334.402344 239.621094 332.261719 239.621094 Z M 332.261719 239.621094 "/><path style=" stroke:none;fill-rule:nonzero;fill:#428dff;fill-opacity:1;" d="M 233.304688 239.621094 C 231.449219 239.621094 229.878906 238.050781 230.023438 236.121094 C 232.519531 198.5625 287.171875 198.5625 289.667969 236.121094 C 289.882812 240.40625 283.320312 240.761719 283.035156 236.40625 C 281.035156 207.128906 238.511719 207.128906 236.585938 236.40625 C 236.515625 238.191406 235.015625 239.621094 233.304688 239.621094 Z M 233.304688 239.621094 "/><path style=" stroke:none;fill-rule:nonzero;fill:#428dff;fill-opacity:1;" d="M 252.28125 239.476562 C 247.003906 238.40625 246.789062 230.195312 249.855469 226.839844 C 246.21875 222.410156 252.640625 217.839844 255.28125 222.980469 L 257.421875 221.769531 C 261.128906 219.625 264.484375 225.339844 260.703125 227.480469 C 260.703125 227.480469 255.707031 230.410156 255.707031 230.410156 C 254.496094 231.121094 254.136719 232.621094 254.78125 233.765625 C 256.707031 235.90625 255.136719 239.546875 252.28125 239.476562 Z M 252.28125 239.476562 "/><path style=" stroke:none;fill-rule:nonzero;fill:#428dff;fill-opacity:1;" d="M 350.671875 350.226562 L 182.648438 350.226562 C 178.367188 350.15625 178.296875 343.660156 182.648438 343.585938 L 350.671875 343.585938 C 353.167969 343.585938 355.238281 341.515625 355.238281 339.015625 L 355.238281 244.191406 C 355.238281 241.691406 353.167969 239.621094 350.671875 239.621094 L 202.410156 239.621094 C 200.554688 239.621094 199.128906 238.121094 199.128906 236.335938 C 199.128906 234.550781 200.628906 233.050781 202.410156 233.050781 L 350.671875 233.050781 C 356.878906 233.050781 361.871094 238.050781 361.871094 244.261719 L 361.871094 339.160156 C 361.800781 345.230469 356.804688 350.226562 350.671875 350.226562 Z M 350.671875 350.226562 "/><path style=" stroke:none;fill-rule:nonzero;fill:#428dff;fill-opacity:1;" d="M 322.703125 333.945312 L 196.847656 333.945312 C 190.355469 333.375 194.0625 322.023438 199.484375 327.304688 L 319.707031 327.304688 C 321.132812 319.023438 327.625 312.453125 335.972656 311.027344 L 335.972656 272.109375 C 327.695312 270.679688 321.132812 264.113281 319.707031 255.828125 L 205.90625 255.828125 C 204.050781 255.828125 202.625 254.328125 202.625 252.542969 C 202.625 250.6875 204.125 249.257812 205.90625 249.257812 L 322.703125 249.257812 C 324.558594 249.257812 325.984375 250.757812 325.984375 252.542969 C 325.984375 259.828125 331.90625 265.753906 339.183594 265.753906 C 341.039062 265.753906 342.464844 267.253906 342.464844 269.039062 L 342.464844 314.023438 C 342.464844 315.882812 340.96875 317.308594 339.183594 317.308594 C 331.90625 317.308594 325.984375 323.238281 325.984375 330.519531 C 326.054688 332.449219 324.558594 333.945312 322.703125 333.945312 Z M 322.703125 333.945312 "/><path style=" stroke:none;fill-rule:nonzero;fill:#428dff;fill-opacity:1;" d="M 259.773438 321.523438 C 220.320312 320.238281 220.320312 262.96875 259.773438 261.753906 C 299.300781 262.96875 299.300781 320.238281 259.773438 321.523438 Z M 259.773438 268.324219 C 229.09375 269.109375 229.09375 314.097656 259.773438 314.882812 C 290.453125 314.023438 290.453125 269.109375 259.773438 268.324219 Z M 259.773438 268.324219 "/><path style=" stroke:none;fill-rule:nonzero;fill:#428dff;fill-opacity:1;" d="M 259.773438 310.453125 C 257.632812 310.453125 256.207031 308.527344 256.492188 306.457031 L 253.996094 306.457031 C 249.644531 306.457031 249.644531 299.816406 253.996094 299.816406 L 259.773438 299.816406 C 261.128906 299.816406 262.273438 298.671875 262.273438 297.316406 C 262.273438 295.960938 261.128906 294.816406 259.773438 294.816406 C 249.855469 294.960938 247.289062 280.605469 256.492188 277.25 C 255.566406 271.609375 263.414062 270.894531 263.128906 276.609375 L 265.625 276.609375 C 269.976562 276.609375 269.976562 283.25 265.625 283.25 L 259.847656 283.25 C 258.492188 283.25 257.347656 284.390625 257.347656 285.75 C 257.347656 287.105469 258.492188 288.246094 259.847656 288.246094 C 269.761719 288.105469 272.332031 302.457031 263.128906 305.8125 C 263.414062 308.097656 262.273438 310.527344 259.773438 310.453125 Z M 259.773438 310.453125 "/><g clip-rule="nonzero" clip-path="url(#2f3eb39a3b)"><path style=" stroke:none;fill-rule:nonzero;fill:#428dff;fill-opacity:1;" d="M 167.738281 357.867188 L 51.871094 357.867188 C 38.171875 354.796875 27.113281 344.730469 19.335938 329.804688 C 3.925781 300.457031 5.066406 253.617188 20.832031 214.84375 C 29.394531 191.707031 40.097656 162.929688 62.214844 149.292969 C 63.785156 148.363281 65.78125 148.792969 66.78125 150.363281 C 67.707031 151.933594 67.28125 153.933594 65.710938 154.933594 C 45.519531 167.355469 35.316406 194.917969 27.039062 217.128906 C 8.847656 262.328125 6.421875 334.089844 52.296875 351.226562 C 52.296875 351.226562 167.238281 351.226562 167.238281 351.226562 C 213.113281 334.089844 210.6875 262.328125 192.496094 217.128906 C 184.289062 194.917969 174.015625 167.355469 153.824219 154.933594 C 152.253906 154.003906 151.753906 151.933594 152.753906 150.363281 C 153.753906 148.792969 155.75 148.292969 157.320312 149.292969 C 179.4375 162.929688 190.140625 191.707031 198.703125 214.84375 C 218.464844 263.46875 219.464844 341.800781 167.738281 357.867188 Z M 65.710938 128.796875 C 64.210938 128.796875 62.785156 127.726562 62.5 126.226562 C 55.792969 95.59375 54.582031 86.027344 59.289062 81.242188 C 63.070312 77.457031 69.0625 78.742188 78.054688 80.671875 C 93.464844 85.8125 127.496094 85.667969 141.195312 80.527344 C 169.734375 72.816406 164.453125 88.382812 157.175781 126.226562 C 156.820312 128.011719 155.035156 129.15625 153.253906 128.796875 C 151.46875 128.441406 150.328125 126.65625 150.683594 124.871094 C 153.539062 111.375 158.390625 88.808594 155.179688 85.667969 C 153.894531 84.382812 148.472656 85.667969 142.765625 87.023438 C 133.777344 89.167969 121.503906 92.023438 105.449219 91.382812 C 93.394531 90.808594 83.761719 88.738281 76.699219 87.238281 C 70.847656 85.953125 65.28125 84.742188 64 86.027344 C 61.074219 88.953125 65.640625 109.730469 68.992188 124.941406 C 69.421875 126.796875 67.78125 128.796875 65.710938 128.796875 Z M 65.710938 128.796875 "/></g><path style=" stroke:none;fill-rule:nonzero;fill:#428dff;fill-opacity:1;" d="M 153.96875 155.789062 L 65.640625 155.789062 C 61.644531 155.789062 58.363281 152.503906 58.363281 148.503906 L 58.363281 129.511719 C 58.363281 125.511719 61.644531 122.226562 65.640625 122.226562 L 153.894531 122.226562 C 157.890625 122.226562 161.171875 125.511719 161.171875 129.511719 L 161.171875 148.503906 C 161.246094 152.503906 157.960938 155.789062 153.96875 155.789062 Z M 65.640625 128.796875 C 65.28125 128.796875 64.996094 129.082031 64.996094 129.441406 L 64.996094 148.433594 C 64.996094 148.792969 65.28125 149.148438 65.640625 149.148438 L 153.894531 149.148438 C 154.253906 149.148438 154.539062 148.863281 154.539062 148.433594 L 154.539062 129.441406 C 154.539062 129.082031 154.253906 128.796875 153.894531 128.796875 Z M 65.640625 128.796875 "/><path style=" stroke:none;fill-rule:nonzero;fill:#428dff;fill-opacity:1;" d="M 109.804688 313.882812 C 102.738281 313.882812 96.890625 308.457031 96.246094 301.527344 L 91.894531 301.527344 C 73.988281 301.171875 73.988281 274.539062 91.894531 274.25 C 91.894531 274.25 109.804688 274.25 109.804688 274.25 C 113.371094 274.324219 115.441406 269.683594 113.015625 267.109375 C 112.015625 266.113281 110.945312 265.683594 109.804688 265.683594 C 101.597656 265.683594 93.820312 262.542969 87.898438 256.757812 C 72.058594 242.476562 76.769531 214.34375 96.175781 205.628906 C 94.675781 187.28125 121.003906 184.351562 123.429688 202.488281 L 127.78125 202.488281 C 145.691406 202.847656 145.691406 229.480469 127.78125 229.765625 C 127.78125 229.765625 109.875 229.765625 109.875 229.765625 C 106.09375 229.695312 104.167969 234.621094 106.878906 237.050781 C 107.519531 237.90625 108.660156 238.261719 109.875 238.335938 C 118.292969 238.335938 126.214844 241.621094 132.207031 247.617188 C 147.546875 262.183594 142.835938 289.816406 123.574219 298.386719 C 124.214844 306.527344 118.078125 313.953125 109.804688 313.882812 Z M 91.894531 280.820312 C 82.691406 280.964844 82.691406 294.746094 91.894531 294.886719 C 95.460938 295.316406 102.667969 293.246094 102.8125 298.171875 C 102.167969 302.671875 105.023438 307.242188 109.804688 307.242188 C 113.65625 307.242188 116.796875 304.097656 116.796875 300.242188 L 116.796875 296.246094 C 116.796875 294.886719 117.652344 293.675781 118.863281 293.175781 C 128.210938 289.53125 134.847656 280.035156 134.703125 269.96875 C 134.917969 256.613281 123.214844 244.761719 109.730469 244.976562 C 95.460938 244.761719 95.460938 223.339844 109.730469 223.195312 C 109.730469 223.195312 127.640625 223.195312 127.640625 223.195312 C 136.84375 223.054688 136.84375 209.273438 127.640625 209.128906 L 120.078125 209.128906 C 117.082031 209.128906 116.507812 206.203125 116.796875 203.773438 C 116.796875 199.917969 113.65625 196.777344 109.804688 196.777344 C 105.949219 196.777344 102.8125 199.917969 102.8125 203.773438 L 102.8125 207.773438 C 102.8125 209.128906 101.953125 210.34375 100.742188 210.84375 C 97.816406 211.984375 95.175781 213.699219 92.824219 215.839844 C 82.546875 224.910156 82.261719 242.261719 92.25 251.6875 C 96.960938 256.398438 103.238281 259.042969 109.875 259.042969 C 112.800781 259.042969 115.511719 260.183594 117.578125 262.253906 C 124.5 268.609375 119.222656 281.179688 109.875 280.894531 C 109.804688 280.820312 91.894531 280.820312 91.894531 280.820312 Z M 91.894531 280.820312 "/><path style=" stroke:none;fill-rule:nonzero;fill:#428dff;fill-opacity:1;" d="M 234.230469 162.289062 L 204.195312 162.289062 C 202.339844 162.289062 200.914062 160.789062 200.914062 159.003906 L 200.914062 104.875 L 190.496094 104.875 C 187.929688 104.949219 186.214844 101.734375 187.785156 99.664062 L 216.679688 58.890625 C 217.324219 58.035156 218.320312 57.464844 219.390625 57.464844 C 220.460938 57.464844 221.460938 57.964844 222.101562 58.890625 L 251 99.664062 C 252.570312 101.734375 250.925781 104.949219 248.289062 104.875 L 237.515625 104.875 L 237.515625 159.003906 C 237.515625 160.789062 236.085938 162.289062 234.230469 162.289062 Z M 207.546875 155.644531 L 230.949219 155.644531 L 230.949219 101.519531 C 230.949219 99.734375 232.449219 98.164062 234.230469 98.234375 L 241.867188 98.234375 L 219.390625 66.53125 L 196.917969 98.308594 C 200.269531 98.734375 207.40625 96.664062 207.546875 101.59375 Z M 207.546875 155.644531 "/><g clip-rule="nonzero" clip-path="url(#63c8b753f4)"><path style=" stroke:none;fill-rule:nonzero;fill:#428dff;fill-opacity:1;" d="M 302.226562 122.585938 L 272.1875 122.585938 C 270.332031 122.585938 268.90625 121.085938 268.90625 119.300781 L 268.90625 65.175781 L 258.492188 65.175781 C 255.921875 65.246094 254.210938 62.03125 255.777344 59.960938 L 284.675781 19.191406 C 285.886719 17.40625 288.8125 17.40625 290.097656 19.191406 L 318.992188 59.960938 C 320.5625 62.03125 318.921875 65.246094 316.28125 65.175781 L 305.507812 65.175781 L 305.507812 119.300781 C 305.507812 121.085938 304.082031 122.585938 302.226562 122.585938 Z M 275.542969 115.945312 L 298.945312 115.945312 L 298.945312 61.890625 C 299.085938 56.890625 306.222656 58.960938 309.929688 58.605469 L 287.457031 26.828125 L 264.984375 58.605469 C 268.335938 59.035156 275.472656 56.964844 275.613281 61.890625 L 275.613281 115.945312 Z M 275.542969 115.945312 "/></g></g></svg>