<svg xmlns="http://www.w3.org/2000/svg" xmlns:xlink="http://www.w3.org/1999/xlink" width="500" zoomAndPan="magnify" viewBox="0 0 375 374.999991" height="500" preserveAspectRatio="xMidYMid meet" version="1.2"><defs><clipPath id="04b7a280bd"><path d="M 209 58.125 L 374 58.125 L 374 315 L 209 315 Z M 209 58.125 "/></clipPath></defs><g id="a61ad71e19"><path style=" stroke:none;fill-rule:nonzero;fill:#004aad;fill-opacity:1;" d="M 221.777344 126.386719 C 221.777344 126.09375 232.570312 91.089844 232.570312 91.089844 C 233.152344 89.339844 232.863281 87.589844 231.695312 86.128906 C 230.820312 84.671875 229.070312 83.796875 227.320312 83.503906 C 227.320312 83.503906 189.6875 81.171875 189.6875 81.171875 C 186.769531 81.171875 184.144531 82.921875 182.6875 85.546875 C 181.519531 88.171875 181.519531 91.089844 183.269531 93.421875 L 185.894531 97.214844 L 144.472656 127.554688 C 141.847656 129.304688 141.261719 133.09375 143.011719 135.722656 C 144.765625 138.347656 148.554688 138.929688 151.183594 137.179688 C 151.183594 137.179688 197.855469 103.925781 197.855469 103.925781 C 200.480469 102.171875 201.066406 98.382812 199.3125 95.757812 L 198.148438 94.003906 L 219.734375 95.171875 L 213.023438 115.300781 L 211.566406 113.257812 C 209.523438 110.925781 206.023438 110.339844 203.398438 112.09375 C 203.398438 112.09375 136.011719 161.683594 136.011719 161.683594 C 134.84375 162.558594 133.679688 161.976562 133.09375 161.101562 C 133.09375 161.101562 111.507812 136.597656 111.507812 136.597656 C 109.175781 133.679688 104.507812 132.804688 101.296875 134.84375 L 13.785156 193.1875 C 11.160156 194.9375 10.285156 198.730469 12.035156 201.355469 C 14.078125 203.980469 17.578125 204.855469 20.203125 203.105469 L 104.800781 146.804688 L 124.34375 168.683594 C 129.011719 174.519531 137.472656 175.394531 143.304688 171.019531 L 206.023438 124.925781 L 208.359375 128.136719 C 210.109375 130.46875 212.734375 131.636719 215.648438 131.34375 C 218.566406 130.761719 220.902344 129.011719 221.777344 126.386719 Z M 221.777344 126.386719 "/><path style=" stroke:none;fill-rule:nonzero;fill:#004aad;fill-opacity:1;" d="M 78.835938 233.152344 L 14.660156 233.152344 C 6.492188 233.152344 0.0742188 239.570312 0.0742188 247.738281 L 0.0742188 253.574219 C 0.0742188 256.78125 1.242188 259.992188 2.992188 262.324219 C 1.242188 264.660156 0.0742188 267.867188 0.0742188 271.074219 L 0.0742188 276.910156 C 0.0742188 280.117188 1.242188 283.328125 2.992188 285.660156 C 1.242188 287.996094 0.0742188 291.203125 0.0742188 294.414062 L 0.0742188 300.246094 C 0.0742188 308.414062 6.492188 314.832031 14.660156 314.832031 L 78.835938 314.832031 C 87.003906 314.832031 93.421875 308.414062 93.421875 300.246094 L 93.421875 294.414062 C 93.421875 291.203125 92.253906 287.996094 90.503906 285.660156 C 92.253906 283.328125 93.421875 280.117188 93.421875 276.910156 L 93.421875 271.074219 C 93.421875 267.867188 92.253906 264.660156 90.503906 262.324219 C 92.253906 259.992188 93.421875 256.78125 93.421875 253.574219 L 93.421875 247.738281 C 93.421875 239.570312 87.003906 233.152344 78.835938 233.152344 Z M 81.753906 300.246094 C 81.753906 301.996094 80.585938 303.164062 78.835938 303.164062 L 14.660156 303.164062 C 12.910156 303.164062 11.742188 301.996094 11.742188 300.246094 L 11.742188 294.414062 C 11.742188 292.664062 12.910156 291.496094 14.660156 291.496094 L 78.835938 291.496094 C 80.585938 291.496094 81.753906 292.664062 81.753906 294.414062 Z M 81.753906 276.910156 C 81.753906 278.660156 80.585938 279.828125 78.835938 279.828125 L 14.660156 279.828125 C 12.910156 279.828125 11.742188 278.660156 11.742188 276.910156 L 11.742188 271.074219 C 11.742188 269.324219 12.910156 268.160156 14.660156 268.160156 L 78.835938 268.160156 C 80.585938 268.160156 81.753906 269.324219 81.753906 271.074219 Z M 81.753906 253.574219 C 81.753906 255.324219 80.585938 256.492188 78.835938 256.492188 L 14.660156 256.492188 C 12.910156 256.492188 11.742188 255.324219 11.742188 253.574219 L 11.742188 247.738281 C 11.742188 245.988281 12.910156 244.820312 14.660156 244.820312 L 78.835938 244.820312 C 80.585938 244.820312 81.753906 245.988281 81.753906 247.738281 Z M 81.753906 253.574219 "/><path style=" stroke:none;fill-rule:nonzero;fill:#004aad;fill-opacity:1;" d="M 183.855469 186.480469 L 119.675781 186.480469 C 111.507812 186.480469 105.089844 192.898438 105.089844 201.066406 L 105.089844 206.898438 C 105.089844 210.109375 106.257812 213.316406 108.007812 215.648438 C 106.257812 217.984375 105.089844 221.191406 105.089844 224.402344 L 105.089844 230.234375 C 105.089844 233.445312 106.257812 236.652344 108.007812 238.988281 C 106.257812 241.320312 105.089844 244.53125 105.089844 247.738281 L 105.089844 253.574219 C 105.089844 256.78125 106.257812 259.992188 108.007812 262.324219 C 106.257812 264.660156 105.089844 267.867188 105.089844 271.074219 L 105.089844 276.910156 C 105.089844 280.117188 106.257812 283.328125 108.007812 285.660156 C 106.257812 287.996094 105.089844 291.203125 105.089844 294.414062 L 105.089844 300.246094 C 105.089844 308.414062 111.507812 314.832031 119.675781 314.832031 L 183.855469 314.832031 C 192.023438 314.832031 198.4375 308.414062 198.4375 300.246094 L 198.4375 294.414062 C 198.4375 291.203125 197.273438 287.996094 195.523438 285.660156 C 197.273438 283.328125 198.4375 280.117188 198.4375 276.910156 L 198.4375 271.074219 C 198.4375 267.867188 197.273438 264.660156 195.523438 262.324219 C 197.273438 259.992188 198.4375 256.78125 198.4375 253.574219 L 198.4375 247.738281 C 198.4375 244.53125 197.273438 241.320312 195.523438 238.988281 C 197.273438 236.652344 198.4375 233.445312 198.4375 230.234375 L 198.4375 224.402344 C 198.4375 221.191406 197.273438 217.984375 195.523438 215.648438 C 197.273438 213.316406 198.4375 210.109375 198.4375 206.898438 L 198.4375 201.066406 C 198.4375 192.898438 192.023438 186.480469 183.855469 186.480469 Z M 186.769531 300.246094 C 186.769531 301.996094 185.605469 303.164062 183.855469 303.164062 L 119.675781 303.164062 C 117.925781 303.164062 116.757812 301.996094 116.757812 300.246094 L 116.757812 294.414062 C 116.757812 292.664062 117.925781 291.496094 119.675781 291.496094 L 183.855469 291.496094 C 185.605469 291.496094 186.769531 292.664062 186.769531 294.414062 Z M 186.769531 276.910156 C 186.769531 278.660156 185.605469 279.828125 183.855469 279.828125 L 119.675781 279.828125 C 117.925781 279.828125 116.757812 278.660156 116.757812 276.910156 L 116.757812 271.074219 C 116.757812 269.324219 117.925781 268.160156 119.675781 268.160156 L 183.855469 268.160156 C 185.605469 268.160156 186.769531 269.324219 186.769531 271.074219 Z M 186.769531 253.574219 C 186.769531 255.324219 185.605469 256.492188 183.855469 256.492188 L 119.675781 256.492188 C 117.925781 256.492188 116.757812 255.324219 116.757812 253.574219 L 116.757812 247.738281 C 116.757812 245.988281 117.925781 244.820312 119.675781 244.820312 L 183.855469 244.820312 C 185.605469 244.820312 186.769531 245.988281 186.769531 247.738281 Z M 186.769531 230.234375 C 186.769531 231.984375 185.605469 233.152344 183.855469 233.152344 L 119.675781 233.152344 C 117.925781 233.152344 116.757812 231.984375 116.757812 230.234375 L 116.757812 224.402344 C 116.757812 222.652344 117.925781 221.484375 119.675781 221.484375 L 183.855469 221.484375 C 185.605469 221.484375 186.769531 222.652344 186.769531 224.402344 Z M 186.769531 206.898438 C 186.769531 208.648438 185.605469 209.816406 183.855469 209.816406 L 119.675781 209.816406 C 117.925781 209.816406 116.757812 208.648438 116.757812 206.898438 L 116.757812 201.066406 C 116.757812 199.3125 117.925781 198.148438 119.675781 198.148438 L 183.855469 198.148438 C 185.605469 198.148438 186.769531 199.3125 186.769531 201.066406 Z M 186.769531 206.898438 "/><path style=" stroke:none;fill-rule:nonzero;fill:#004aad;fill-opacity:1;" d="M 294.414062 228.195312 L 289.453125 228.195312 C 283.621094 228.195312 283.328125 223.234375 283.328125 222.359375 C 283.328125 218.859375 286.246094 216.816406 289.453125 216.816406 L 303.457031 216.816406 C 306.664062 216.816406 309.289062 214.191406 309.289062 210.984375 C 309.289062 207.773438 306.664062 205.148438 303.457031 205.148438 L 300.539062 205.148438 L 300.539062 198.730469 C 300.539062 195.523438 297.914062 192.898438 294.703125 192.898438 C 291.496094 192.898438 288.871094 195.523438 288.871094 198.730469 L 288.871094 205.148438 C 277.203125 205.441406 271.367188 213.898438 271.367188 222.359375 C 271.367188 230.820312 277.785156 239.863281 289.164062 239.863281 L 294.121094 239.863281 C 299.957031 239.863281 300.246094 244.238281 300.246094 245.40625 C 300.246094 248.90625 297.621094 251.238281 294.121094 251.238281 L 280.117188 251.238281 C 276.910156 251.238281 274.285156 253.863281 274.285156 257.074219 C 274.285156 260.28125 276.910156 262.90625 280.117188 262.90625 L 288.871094 262.90625 L 288.871094 268.160156 C 288.871094 271.367188 291.496094 273.992188 294.703125 273.992188 C 297.914062 273.992188 300.539062 271.367188 300.539062 268.160156 L 300.539062 261.742188 C 303.164062 260.867188 305.5 259.40625 307.539062 257.074219 C 310.457031 253.863281 312.207031 249.488281 312.207031 245.113281 C 312.207031 236.945312 306.082031 228.195312 294.414062 228.195312 Z M 294.414062 228.195312 "/><path style=" stroke:none;fill-rule:nonzero;fill:#004aad;fill-opacity:1;" d="M 91.671875 169.558594 L 51.414062 196.6875 C 48.789062 198.4375 47.914062 202.230469 49.957031 204.855469 C 51.707031 207.480469 55.5 208.066406 58.125 206.316406 L 98.382812 179.1875 C 101.007812 177.4375 101.882812 173.644531 99.839844 171.019531 C 97.796875 168.394531 94.296875 167.808594 91.671875 169.558594 Z M 91.671875 169.558594 "/><g clip-rule="nonzero" clip-path="url(#04b7a280bd)"><path style=" stroke:none;fill-rule:nonzero;fill:#004aad;fill-opacity:1;" d="M 373.175781 232.277344 C 371.132812 203.398438 351.878906 180.0625 334.960938 159.640625 C 329.417969 152.933594 318.917969 139.511719 318.917969 139.222656 C 321.542969 136.304688 323 132.21875 323 128.136719 C 323 122.886719 320.667969 118.507812 317.167969 115.300781 C 318.332031 110.050781 319.5 105.089844 322.710938 101.296875 C 327.667969 94.882812 335.542969 84.960938 331.167969 73.292969 C 327.960938 64.835938 319.207031 58.417969 309.875 58.417969 C 302.582031 58.125 298.496094 62.207031 294.996094 65.417969 C 289.453125 70.960938 282.160156 73.878906 274.578125 70.960938 C 269.324219 69.210938 258.53125 65.125 252.40625 75.335938 C 248.324219 82.335938 249.488281 91.964844 255.613281 98.089844 C 256.199219 98.671875 262.03125 105.089844 265.824219 113.84375 C 261.449219 117.050781 258.824219 122.011719 258.824219 127.84375 C 258.824219 132.511719 260.867188 136.886719 263.78125 140.097656 C 259.40625 146.222656 254.449219 152.058594 249.199219 158.472656 C 231.695312 180.0625 211.859375 203.980469 210.109375 233.445312 C 208.941406 254.738281 215.941406 273.992188 230.234375 288.871094 C 238.402344 297.332031 248.613281 304.039062 259.699219 308.707031 C 279.828125 316.875 303.164062 316.875 323.585938 309.289062 C 335.542969 304.914062 346.046875 297.914062 354.507812 289.164062 C 368.214844 273.992188 374.925781 254.449219 373.175781 232.277344 Z M 264.074219 90.214844 C 262.03125 88.171875 260.867188 84.085938 262.617188 81.460938 C 262.90625 80.878906 263.492188 80.296875 264.660156 80.296875 C 266.992188 80.296875 269.617188 81.460938 271.660156 82.335938 C 280.703125 85.546875 290.914062 83.796875 299.082031 77.667969 C 302.289062 75.335938 305.5 69.792969 309.875 69.792969 C 313.667969 69.792969 318.625 72.417969 320.375 77.085938 C 322.417969 82.335938 318.917969 87.296875 313.667969 94.003906 C 309.582031 99.257812 307.832031 104.800781 306.375 110.632812 C 306.082031 110.632812 277.203125 110.632812 277.203125 110.632812 C 272.828125 99.546875 265.535156 91.671875 264.074219 90.214844 Z M 311.332031 128.136719 C 311.332031 131.34375 308.707031 133.96875 305.5 133.96875 L 276.328125 133.96875 C 273.117188 133.96875 270.492188 131.34375 270.492188 128.136719 C 270.492188 124.925781 273.117188 122.300781 276.328125 122.300781 L 305.5 122.300781 C 308.707031 122.300781 311.332031 124.925781 311.332031 128.136719 Z M 346.046875 280.996094 C 318.042969 311.039062 264.949219 309.289062 237.527344 279.242188 C 226.152344 266.992188 221.191406 250.363281 222.066406 234.027344 C 223.527344 208.359375 241.320312 187.0625 258.242188 166.351562 C 264.074219 159.351562 274.578125 145.929688 274.578125 145.640625 C 275.160156 145.640625 307.832031 145.640625 309 145.347656 C 309.289062 145.929688 320.667969 160.515625 326.210938 167.226562 C 342.835938 187.355469 360.046875 208.066406 361.800781 233.152344 C 362.964844 252.113281 357.421875 268.742188 346.046875 280.996094 Z M 346.046875 280.996094 "/></g></g></svg>