<svg xmlns="http://www.w3.org/2000/svg" xmlns:xlink="http://www.w3.org/1999/xlink" width="500" zoomAndPan="magnify" viewBox="0 0 375 374.999991" height="500" preserveAspectRatio="xMidYMid meet" version="1.2"><g id="270ac6a5b9"><path style=" stroke:none;fill-rule:nonzero;fill:#004aad;fill-opacity:1;" d="M 339.199219 49.773438 C 304.875 15.449219 249.035156 15.449219 214.730469 49.773438 L 172.574219 91.917969 C 166.277344 98.214844 166.277344 108.417969 172.574219 114.714844 C 178.875 121.015625 189.078125 121.015625 195.375 114.714844 L 237.527344 72.570312 C 291.265625 22.09375 366.992188 97.796875 316.398438 151.445312 C 316.402344 151.445312 267.140625 200.714844 267.140625 200.714844 C 242.199219 226.335938 197.675781 220.777344 179.828125 189.839844 C 175.285156 182.167969 165.386719 179.660156 157.734375 184.195312 C 140.878906 194.824219 155.238281 213.691406 165.460938 223.511719 C 182.621094 240.675781 205.15625 249.253906 227.695312 249.253906 C 250.242188 249.253906 272.777344 240.675781 289.9375 223.515625 L 339.199219 174.253906 C 373.363281 141.476562 373.378906 82.542969 339.199219 49.773438 Z M 339.199219 49.773438 "/><path style=" stroke:none;fill-rule:nonzero;fill:#004aad;fill-opacity:1;" d="M 201.421875 266.433594 L 159.265625 308.578125 C 105.929688 359.210938 29.757812 283.078125 80.394531 229.707031 C 80.394531 229.707031 129.65625 180.4375 129.65625 180.4375 C 154.558594 154.867188 199.011719 160.316406 216.882812 191.214844 C 221.417969 198.890625 231.324219 201.417969 238.96875 196.863281 C 255.796875 186.296875 241.5 167.382812 231.335938 157.636719 C 197.011719 123.3125 141.179688 123.332031 106.855469 157.636719 C 106.855469 157.636719 57.59375 206.910156 57.59375 206.910156 C 2.140625 261.59375 42.808594 358.015625 119.832031 357.113281 C 142.367188 357.117188 164.914062 348.539062 182.066406 331.378906 L 224.21875 289.234375 C 238.9375 273.976562 216.664062 251.710938 201.421875 266.433594 Z M 201.421875 266.433594 "/></g></svg>