<svg xmlns="http://www.w3.org/2000/svg" xmlns:xlink="http://www.w3.org/1999/xlink" width="500" zoomAndPan="magnify" viewBox="0 0 375 374.999991" height="500" preserveAspectRatio="xMidYMid meet" version="1.2"><defs><clipPath id="3ba9d40716"><path d="M 133 87.1875 L 241 87.1875 L 241 195 L 133 195 Z M 133 87.1875 "/></clipPath></defs><g id="353f7cff4e"><path style=" stroke:none;fill-rule:nonzero;fill:#004aad;fill-opacity:1;" d="M 307.488281 194.183594 C 281.417969 194.183594 260.695312 173.460938 260.695312 147.394531 C 260.695312 121.324219 281.417969 100.601562 307.488281 100.601562 C 333.554688 100.601562 354.277344 121.324219 354.277344 147.394531 C 354.277344 173.460938 333.554688 194.183594 307.488281 194.183594 Z M 307.488281 113.96875 C 288.769531 113.96875 274.0625 128.675781 274.0625 147.394531 C 274.0625 166.109375 288.769531 180.816406 307.488281 180.816406 C 326.203125 180.816406 340.910156 166.109375 340.910156 147.394531 C 340.910156 128.675781 326.203125 113.96875 307.488281 113.96875 Z M 307.488281 113.96875 "/><path style=" stroke:none;fill-rule:nonzero;fill:#004aad;fill-opacity:1;" d="M 374.332031 274.398438 L 294.785156 274.398438 C 290.773438 274.398438 288.101562 271.722656 288.101562 267.714844 C 288.101562 263.703125 290.773438 261.03125 294.785156 261.03125 L 360.960938 261.03125 C 357.621094 234.960938 334.894531 214.238281 308.15625 214.238281 C 299.464844 214.238281 291.445312 216.242188 284.089844 220.253906 C 280.75 221.589844 276.738281 220.921875 275.402344 217.582031 C 274.0625 214.238281 274.734375 210.226562 278.074219 208.890625 C 287.433594 204.210938 297.460938 201.539062 308.15625 201.539062 C 344.917969 201.539062 375 231.617188 375 268.382812 L 375 274.398438 Z M 374.332031 274.398438 "/><path style=" stroke:none;fill-rule:nonzero;fill:#004aad;fill-opacity:1;" d="M 66.84375 194.183594 C 40.777344 194.183594 20.054688 173.460938 20.054688 147.394531 C 20.054688 121.324219 40.777344 100.601562 66.84375 100.601562 C 92.914062 100.601562 113.636719 121.324219 113.636719 147.394531 C 113.636719 173.460938 92.914062 194.183594 66.84375 194.183594 Z M 66.84375 113.96875 C 48.128906 113.96875 33.421875 128.675781 33.421875 147.394531 C 33.421875 166.109375 48.128906 180.816406 66.84375 180.816406 C 85.5625 180.816406 100.265625 166.109375 100.265625 147.394531 C 100.265625 128.675781 85.5625 113.96875 66.84375 113.96875 Z M 66.84375 113.96875 "/><path style=" stroke:none;fill-rule:nonzero;fill:#004aad;fill-opacity:1;" d="M 79.546875 274.398438 L 0 274.398438 L 0 267.714844 C 0 230.949219 30.082031 200.867188 66.84375 200.867188 C 77.539062 200.867188 87.566406 202.875 96.257812 207.554688 C 99.597656 208.890625 100.9375 212.902344 99.597656 216.242188 C 98.261719 219.585938 94.25 220.921875 90.910156 219.585938 C 82.886719 216.242188 74.867188 214.238281 66.84375 214.238281 C 39.4375 214.238281 17.378906 234.960938 14.039062 261.03125 L 80.214844 261.03125 C 84.222656 261.03125 86.898438 263.703125 86.898438 267.714844 C 86.898438 271.722656 83.554688 274.398438 79.546875 274.398438 Z M 79.546875 274.398438 "/><g clip-rule="nonzero" clip-path="url(#3ba9d40716)"><path style=" stroke:none;fill-rule:nonzero;fill:#004aad;fill-opacity:1;" d="M 187.164062 194.183594 C 157.753906 194.183594 133.691406 170.121094 133.691406 140.707031 C 133.691406 111.296875 157.753906 87.234375 187.164062 87.234375 C 216.578125 87.234375 240.640625 111.296875 240.640625 140.707031 C 240.640625 170.121094 216.578125 194.183594 187.164062 194.183594 Z M 187.164062 100.601562 C 165.105469 100.601562 147.058594 118.648438 147.058594 140.707031 C 147.058594 162.765625 165.105469 180.816406 187.164062 180.816406 C 209.222656 180.816406 227.273438 162.765625 227.273438 140.707031 C 227.273438 118.648438 209.222656 100.601562 187.164062 100.601562 Z M 187.164062 100.601562 "/></g><path style=" stroke:none;fill-rule:nonzero;fill:#004aad;fill-opacity:1;" d="M 267.378906 287.765625 L 147.058594 287.765625 C 143.046875 287.765625 140.375 285.09375 140.375 281.082031 C 140.375 277.070312 143.046875 274.398438 147.058594 274.398438 L 254.011719 274.398438 C 250.667969 240.976562 221.925781 214.238281 187.164062 214.238281 C 150.402344 214.238281 120.320312 244.316406 120.320312 281.082031 C 120.320312 285.09375 117.648438 287.765625 113.636719 287.765625 C 109.625 287.765625 106.953125 285.09375 106.953125 281.082031 C 106.953125 236.964844 143.046875 200.867188 187.164062 200.867188 C 231.285156 200.867188 267.378906 236.964844 267.378906 281.082031 Z M 267.378906 287.765625 "/></g></svg>