<?xml version="1.0" encoding="UTF-8"?>
<svg width="205px" height="97px" viewBox="0 0 205 97" version="1.1" xmlns="http://www.w3.org/2000/svg" xmlns:xlink="http://www.w3.org/1999/xlink">
    <!-- Generator: Sketch 48.2 (47327) - http://www.bohemiancoding.com/sketch -->
    <title>logo-fg</title>
    <desc>Created with Sketch.</desc>
    <defs></defs>
    <g id="header-and-footer" stroke="none" stroke-width="1" fill="none" fill-rule="evenodd" transform="translate(-15.000000, -1967.000000)">
        <g id="Header-and-Footer">
            <g id="Page">
                <g id="Footer" transform="translate(0.000000, 1933.000000)">
                    <g id="Logo-and-Address" transform="translate(15.000000, 34.000000)">
                        <g id="fg-logo-1">
                            <g id="logo-fg">
                                <path d="M134.762937,49.1086738 L135.634422,46.6697841 L128.447312,47.0928352 C126.696409,46.6063264 125.881507,45.8395463 125.197751,44.797254 C124.14118,45.4921155 122.079864,46.8754927 120.578032,47.2969574 C117.022816,49.1086738 110.277266,47.9944629 106.714118,45.8395463 L109.398377,39.0945248 L112.392522,34.4399048 C113.207424,34.8581966 115.01491,35.6931938 116.080999,35.8306854 C113.207424,33.9523384 112.209023,30.6837396 114.706083,26.5827878 C116.765813,23.8091588 120.333191,20.5395024 126.759338,20.5395024 L127.631352,19.3597186 L134.884035,22.6230292 L133.756075,25.4019463 L153.620441,24.2914371 C156.116971,24.774773 156.808131,25.4759802 157.611399,27.0010796 C161.361747,22.6230292 167.297155,22.3443443 170.108858,25.4759802 L171.915287,23.2480872 L184.285302,22.4136189 L180.473611,32.0792795 L178.415996,34.5081218 L176.166422,34.5816269 L173.163816,42.2288049 L171.477429,44.5857285 L160.795917,45.2816476 C157.929745,45.4921155 154.305255,44.0325891 154.242326,40.972343 C153.306325,44.5857285 149.371421,46.3324008 146.066334,45.9104073 L145.626361,47.0928352 L144.315431,48.5528904 L134.762937,49.1086738 Z" id="Fill-1" fill="#FEFEFE"></path>
                                <path d="M137.517528,45.2592787 L136.644985,47.6997549 L143.707295,47.2888665 L144.496285,46.409449 L145.209127,44.4930274 L146.230795,44.6231156 C146.497846,44.6574885 146.774945,44.6749394 147.052572,44.6749394 C149.408438,44.6749394 152.269321,43.414247 152.986393,40.6469638 L155.539506,40.9457437 C155.582869,43.0557112 158.318952,44.0038745 160.247008,44.0038745 C160.399835,44.0038745 160.553191,43.9985864 160.701788,43.9874813 L170.779923,43.3312232 L172.015232,41.6046458 L175.27114,33.3128437 L177.798341,33.2303488 L179.344593,31.4038255 L182.326046,23.8460171 L172.566785,24.5043904 L170.158567,27.4736805 L169.143244,26.3425476 C168.180274,25.270113 166.722863,24.6794278 165.040706,24.6794278 C162.669504,24.6794278 160.320513,25.8332998 158.596579,27.8454367 L157.353338,29.2965021 L156.462815,27.605884 C155.876361,26.4911443 155.547967,26.0072796 153.529485,25.5958624 L131.78307,26.8116055 L133.212454,23.2934066 L128.053346,20.9724423 L127.41401,21.8370531 L126.759338,21.8370531 C122.126928,21.8370531 118.536811,23.6270882 115.784334,27.3086906 C113.894353,30.4450859 114.251832,33.0843961 116.791725,34.7448718 L115.91548,37.1176598 C114.988998,36.9981479 113.753689,36.5052933 112.864753,36.1049812 L110.557538,39.6913971 L108.348153,45.2434143 C110.482975,46.2571506 113.398855,46.9075917 115.964131,46.9070629 C117.613502,46.9070629 119.004811,46.6421271 119.988934,46.1408115 L120.227957,46.0477403 C121.468026,45.6997807 123.334739,44.4702884 124.33737,43.8097998 L125.570564,42.9991281 L126.283406,44.0858407 C126.794769,44.8653124 127.347379,45.4015297 128.594851,45.7849198 L137.517528,45.2592787 Z M132.880888,50.5178043 L133.752902,48.080501 L128.307705,48.4009622 L128.099881,48.3433215 C126.724436,47.960989 125.73291,47.4083785 124.910605,46.5337203 C123.774712,47.2613682 122.313071,48.1270366 121.053965,48.509369 C119.703903,49.1682712 117.992661,49.5019527 115.964131,49.5019527 C112.500929,49.5024816 108.607272,48.5003792 106.042524,46.9498968 L105.101764,46.3808931 L108.306906,38.3926301 L111.938271,32.7480705 L112.267722,32.9172909 C111.660115,30.8263607 112.087925,28.3879998 113.598218,25.9078626 L113.664848,25.8095032 C116.767928,21.6292292 120.947673,19.4261905 126.097263,19.2532683 L127.209888,17.7472063 L136.55826,21.9528633 L135.729608,23.9919698 L153.709281,22.9866945 L153.867397,23.0173657 C155.915493,23.4139762 157.012253,24.0051901 157.81605,24.9443636 C159.878424,23.110437 162.437884,22.0840092 165.040706,22.0840092 C166.909005,22.0840092 168.609142,22.6149383 169.959204,23.6006475 L171.263259,21.9914667 L186.245615,20.9809034 L181.601042,32.7544162 L179.034708,35.7861064 L177.062761,35.8506217 L174.313458,42.8531755 L172.175463,45.840974 L160.881584,46.5765542 C160.680106,46.591361 160.46435,46.5992932 160.247008,46.5992932 C157.929745,46.5992932 155.497201,45.7309808 154.105892,44.0784373 C152.351287,46.2545065 149.501509,47.2698292 147.052572,47.2698292 C147.01767,47.2698292 146.981182,47.2698292 146.945223,47.2693004 L146.756436,47.776433 L144.925153,49.8171258 L132.880888,50.5178043 Z" id="Fill-3" fill="#FEFEFE"></path>
                                <path d="M78.0481737,76.979335 L85.4166667,58.212787 L82.1073492,58.4248414 L92.1045762,46.5323454 L106.40106,45.7031651 L103.776557,52.4481866 C105.463473,51.5417995 105.463473,51.3995486 108.14879,51.1943688 L146.43386,48.965947 C148.934621,48.7665841 150.493035,49.7306119 150.61995,51.1235077 C151.682866,49.5931203 154.054068,48.4820822 155.928713,48.41175 L168.041196,47.6497291 L167.422484,49.1087267 C170.605415,47.2970103 173.163816,47.2256204 176.350449,47.2256204 L177.661907,43.7518418 L180.16637,40.4848295 L189.344464,39.9343342 L186.221289,47.8601971 C187.594619,46.8120879 189.095393,46.3906232 190.846296,46.3324537 L202.335307,45.6317753 L197.521514,57.8621834 L200.08679,57.7944952 L193.526325,67.8054713 L191.781768,70.1655678 L184.220257,70.6557783 C182.217639,70.4458391 179.847495,69.6076691 179.228783,66.9022571 L178.355182,68.1550173 L176.350449,71.0005649 L165.484909,71.764701 C163.043904,71.489189 161.303049,70.1655678 160.425747,67.8054713 C160.490791,67.6653356 160.114275,68.4950446 159.423116,69.6076691 L157.611399,72.1840505 L151.000168,72.7414203 C148.74742,72.7414203 146.187432,70.5182866 145.56449,68.4273564 L142.565057,73.0158747 L118.829245,74.5452046 L123.766251,61.5485451 L122.764678,61.5485451 L118.829245,71.6224501 L116.837203,74.6176521 L101.342426,75.5198086 C96.2774467,75.5859103 93.7851468,70.3728628 94.2838183,66.7621214 L91.7222437,73.2977325 L89.3499845,76.2839447 L78.0481737,76.979335 Z" id="Fill-5" fill="#FEFEFE"></path>
                                <path d="M87.3700524,56.7870518 L79.9999729,75.5594168 L88.6936736,75.0242571 L90.5857697,72.643008 L93.0754256,66.2887801 L95.569312,66.93975 C95.3186542,68.74988 95.9981801,70.9396984 97.2599301,72.3870621 C97.9896933,73.2247033 99.2741823,74.223104 101.246658,74.223104 L101.29954,74.2225752 L116.115319,73.3600797 L117.671618,71.0200782 L121.878333,60.2513117 L125.64719,60.2513117 L120.758834,73.1210558 L141.833654,71.7625329 L146.009698,65.3749897 L146.808207,68.0571338 C147.293129,69.6864095 149.408385,71.4082276 150.952522,71.4436581 L156.898505,70.9418137 L158.339523,68.8916022 C158.912757,67.9672355 159.245381,67.2676147 159.258602,67.2380011 L159.610792,66.4955464 L161.148054,66.4929023 L161.91219,67.6996556 L161.846088,67.8397913 C162.564746,69.3749381 163.7715,70.2347895 165.517643,70.4616507 L175.643901,69.7498672 L179.841097,63.7584056 L180.494182,66.6134719 C180.6285,67.2015129 181.035158,68.9788565 184.250347,69.3537855 L191.096901,68.9095819 L192.461241,67.0640213 L197.643088,59.1566669 L195.596049,59.2106059 L200.382344,47.0510589 L190.925565,47.6279949 C189.279367,47.6829915 188.082133,48.0721986 187.008111,48.8913313 L183.307472,51.7151976 L187.391502,41.3515026 L180.835796,41.7444113 L178.808323,44.3895385 L177.246736,48.5232768 L176.350396,48.5232768 C173.06699,48.5232768 170.870826,48.6385583 168.06494,50.2361051 L164.72971,52.134547 L166.026891,49.0764162 L156.010627,49.7062336 C154.3951,49.7681048 152.469689,50.7347766 151.685986,51.8637943 L149.652168,54.7934234 L149.328005,51.2413803 C149.267192,50.5708443 148.091638,50.1377457 146.537454,50.2593729 L108.224358,52.48991 C106.112804,52.6511982 105.995407,52.7157135 104.864274,53.333897 L101.291607,55.2561355 L104.459203,47.1155742 L92.7375135,47.7956289 L85.0538474,56.9356485 L87.3700524,56.7870518 Z M76.0967975,78.3996763 L83.4626464,59.6384164 L79.1602164,59.9139284 L91.4710042,45.2694849 L108.342812,44.2906503 L106.076844,50.1150067 C106.574458,50.0303965 107.194228,49.96641 108.050907,49.9008371 L146.358715,47.6708288 C146.586634,47.6523203 146.834648,47.6428017 147.073143,47.6428017 C148.73732,47.6428017 150.090026,48.12508 150.940359,48.9579619 C152.31316,47.8971612 154.159778,47.1800895 155.880538,47.1145166 L170.055924,46.2229363 L169.881415,46.6327671 C171.859179,46.0304481 173.68253,45.9431938 175.45247,45.9305022 L176.516444,43.1145682 L179.497368,39.2251419 L191.297321,38.5175889 L188.61835,45.3154917 C189.29576,45.1536746 190.019707,45.061661 190.803938,45.0357491 L204.288692,44.2129147 L199.446872,56.5131262 L202.531973,56.4322177 L194.569622,68.5769579 L192.467586,71.4214479 L184.194821,71.9576652 L184.085357,71.9465601 C181.818861,71.7085939 180.088053,70.8487425 179.018262,69.4658941 L177.055834,72.2516858 L165.457887,73.0671168 L165.338904,73.0538965 C163.252733,72.8185743 161.585912,71.9291093 160.417762,70.4479015 L158.324187,73.4256526 L151.000115,74.0390768 C148.858947,74.0390768 146.763787,72.6472386 145.464491,70.95239 L143.296354,74.2691108 L116.901136,75.9697764 L116.922818,75.9126644 L116.912241,75.9131933 L101.247187,76.8179939 L101.246129,76.8179939 C98.9124736,76.8179939 96.8575027,75.8756475 95.3033186,74.0919582 C94.6766741,73.3727712 94.1584365,72.5335436 93.767643,71.6361464 L92.8596696,73.9523513 L90.0061897,77.5435265 L76.0967975,78.3996763 Z" id="Fill-7" fill="#FEFEFE"></path>
                                <path d="M154.208217,60.729148 C154.146346,61.0078329 154.460461,61.3579077 154.898319,61.2838738 L156.515432,57.1147049 C156.271649,57.0459591 153.960204,58.4346244 154.208217,60.729148" id="Fill-9" fill="#00ADEE"></path>
                                <path d="M104.804412,63.9247704 C104.743599,64.2023977 105.056657,64.4155097 105.433172,64.4155097 L107.185133,60.1754798 C106.492915,60.1754798 104.61827,61.771969 104.804412,63.9247704" id="Fill-11" fill="#00ADEE"></path>
                                <path d="M114.550294,59.622975 L112.801506,64.2025035 L113.237249,64.2025035 L115.051081,59.622975 C114.925223,59.7572938 114.488423,59.622975 114.550294,59.622975" id="Fill-13" fill="#00ADEE"></path>
                                <polygon id="Fill-15" fill="#00ADEE" points="180.504335 59.893622 180.81845 59.893622 181.315007 58.1606988 181.187034 58.1606988"></polygon>
                                <path d="M172.452297,58.1604873 L171.756378,59.965858 C171.508364,60.102292 170.384635,60.5205838 170.384635,59.411661 C170.510492,58.0869821 172.07208,57.9526634 172.452297,58.1604873 Z M197.614321,59.2017219 L192.874561,66.4290216 L184.997349,66.9118287 C182.122717,66.9118287 181.062974,63.9948911 180.74833,62.8806802 L177.632029,67.2656052 L170.574479,67.6854834 L174.756339,57.0462764 L174.756339,56.6956728 C172.943036,56.493137 170.014994,56.6956728 169.512621,59.2725829 C169.201149,61.4978319 171.638453,61.0081502 172.698196,60.795567 L169.951536,67.7515852 C167.518463,67.9620531 164.138814,68.2417956 162.767599,64.9721392 C162.51747,64.4152982 162.334501,63.7193791 162.209701,63.091677 L158.769237,68.3750568 L151.092975,68.7944062 C149.77094,68.8636808 148.149596,67.3322357 147.652511,66.217496 C147.150667,65.6648855 147.085623,65.0414139 147.023751,64.9721392 L144.090421,69.2158709 L137.214782,69.6278169 L141.46486,58.4349417 L141.028059,58.4349417 L136.662172,69.6278169 L129.789706,70.0450511 L134.223811,58.6480537 L133.787011,58.7194436 L129.350791,70.1174986 L122.172671,70.5331463 L126.358762,59.1345625 L122.669227,59.2725829 L118.293292,70.6711667 L101.367016,71.6431267 C100.116371,71.5701504 98.4363295,70.2539326 97.9984716,68.7256604 C97.2539016,66.7087641 97.5600849,64.6934543 97.6230137,64.0689251 C96.3184298,64.202715 95.3126258,64.2741049 93.9995808,64.34761 L90.8827516,72.2681847 L82.5063393,72.7536359 L89.4480795,54.8242003 L87.4465189,54.8924173 L92.6267799,47.6635312 L104.804307,46.9004527 L101.935491,54.4043221 L97.4960984,54.688824 L96.6864843,56.7649474 L100.816521,56.5597676 L100.378663,57.6718632 C102.249078,54.6153188 104.24535,52.8771075 107.24584,52.5312632 L117.358349,51.9728357 L116.428165,54.4709526 L118.484194,51.8342865 L129.412662,51.2779743 C129.225991,52.111385 129.164119,52.392714 129.225991,52.250463 L130.038778,51.1388962 L136.532084,50.7856485 L136.27931,51.6946796 L137.029169,50.7856485 L140.726635,50.5069636 C141.529904,50.4350449 142.526718,50.5069636 142.719735,51.9014459 L144.151234,50.372116 C145.964008,50.2399126 148.836526,49.4683731 149.649313,51.6259338 C149.84233,52.5994802 149.96237,52.736443 149.77094,53.915698 C149.77094,53.915698 152.271701,49.4683731 157.513304,49.610624 L166.452375,49.1204135 L165.015587,53.3689045 C165.079045,53.1510331 167.277853,47.4948396 177.580206,48.6048199 L176.874768,50.1034786 L178.384003,48.3568062 L185.316224,47.9427449 L184.001593,51.1388962 C185.690096,49.4683731 187.308795,48.1495112 189.747156,47.6635312 L200.493712,46.9686697 L195.49695,59.3450304 L197.614321,59.2017219 Z M180.627231,41.3336287 L188.000484,40.8518792 L185.690096,46.9686697 L178.384003,47.2425953 L180.627231,41.3336287 Z M202.365185,45.5757739 L190.86877,46.2711642 C189.127386,46.3436117 187.623439,46.7629611 186.242706,47.7989075 L189.3754,39.8772752 L180.193604,40.4367603 L177.693901,43.7048303 L176.384557,47.1770224 C173.197925,47.1770224 170.634235,47.2425953 167.449189,49.0500813 L168.074247,47.5926701 L155.953832,48.3568062 C154.083417,48.4281961 151.713802,49.5413494 150.645069,51.0648623 C150.525028,49.6793698 148.965556,48.7037081 146.461093,48.9125896 L108.181841,51.1388962 C105.498639,51.3467201 105.498639,51.4894998 103.807492,52.392714 L106.433053,45.6487502 L92.1270508,46.4837474 L82.1382848,58.363023 L85.4460158,58.1604873 L78.0796381,76.92492 L89.3809201,76.2332314 L91.7521217,73.2433176 L94.3147539,66.7087641 C93.8139671,70.3200343 96.3184298,75.5293801 101.367016,75.4669801 L116.85862,74.5600642 L118.862296,71.5701504 L122.791383,61.4978319 L123.791899,61.4978319 L118.862296,74.4918472 L142.588589,72.9646327 L145.589079,68.3750568 C146.208849,70.4633429 148.774654,72.6875342 151.022113,72.6875342 L157.645508,72.1317508 L159.456166,69.5558982 C160.145211,68.4485619 160.51591,67.6109207 160.451923,67.7515852 C161.333985,70.1174986 163.075369,71.4390045 165.51796,71.7155742 L176.384557,70.9466788 L178.384003,68.0963718 L179.257603,66.8499574 C179.882661,69.5558982 182.252805,70.3935394 184.252251,70.5992481 L191.804771,70.1174986 L193.554087,67.7515852 L200.109793,57.7421955 L197.553507,57.8130565 L202.365185,45.5757739 Z" id="Fill-17" fill="#00AEEF"></path>
                                <path d="M187.744538,58.853022 C187.744538,59.134351 188.000484,59.4796665 188.377528,59.4119783 L190.058099,55.2396365 C189.494912,55.2396365 187.683724,56.69599 187.744538,58.853022" id="Fill-19" fill="#00ADEE"></path>
                                <path d="M149.844498,32.3733529 L148.98729,34.7165274 C149.80325,34.458995 150.525081,33.1570552 150.35163,32.3881597 C150.287644,32.2432647 149.981989,32.1702884 149.844498,32.3733529" id="Fill-21" fill="#00ADEE"></path>
                                <polygon id="Fill-23" fill="#00ADEE" points="141.721176 36.3350152 142.028945 36.4058763 143.341462 32.9246943 143.092919 32.9246943"></polygon>
                                <path d="M129.350896,34.9396868 L129.909853,33.6250555 L128.973852,33.5557808 C129.163696,33.9751303 129.350896,34.2490559 129.350896,34.9396868" id="Fill-25" fill="#00AEEF"></path>
                                <path d="M128.103213,30.7739553 C128.600827,30.7739553 128.729329,30.7739553 129.350685,31.0505249 L128.661112,31.814661 L127.475511,30.7739553 L128.103213,30.7739553 Z M125.039794,29.1092491 C124.418966,29.1092491 124.476078,29.8707411 125.101665,30.2192295 C126.226452,30.9114469 128.103213,32.0208985 128.661112,32.999733 L130.910686,29.2419814 C127.916542,28.4778453 125.29098,28.8226319 125.039794,29.1092491 Z" id="Fill-27" fill="#00AEEF"></path>
                                <path d="M163.201174,34.8730563 C164.329134,34.8730563 164.823575,34.5938425 165.703521,34.1781948 L162.147776,34.3928933 C162.393675,35.0121343 162.892346,34.8730563 163.201174,34.8730563" id="Fill-29" fill="#00ADEE"></path>
                                <path d="M180.002385,30.8460326 L176.198626,31.0506836 L172.321363,40.7819171 L165.517643,41.27107 L167.887258,34.8094929 L167.699,34.8094929 L165.453657,40.6470696 C164.139025,41.407504 162.831268,41.5476397 161.333667,41.6840737 C155.519887,42.1742842 155.519887,37.5841794 155.333745,37.6566269 C154.269242,39.5296858 150.960983,42.7258371 146.585576,41.964345 L145.153548,45.7860832 L138.099171,46.204375 L139.342412,42.7966981 L130.410745,43.3545968 C127.475299,43.6338106 127.852344,40.3694423 127.793116,40.3694423 C124.104111,46.7633313 115.240132,46.4127276 109.86844,43.2816205 L112.984212,35.7793376 C115.171915,36.7507687 118.051835,37.4466878 120.299294,36.8882603 L120.484908,36.7507687 C121.546766,36.1949853 120.609708,35.2896559 119.668948,34.8094929 C119.732935,34.8094929 115.986817,33.5562039 115.609773,30.9116055 C115.240132,28.2030207 116.922818,25.7694191 119.732935,23.8921297 C121.920638,22.3612134 123.668368,21.7419723 126.917401,21.6705825 L127.91633,20.5569004 L133.657663,23.1983259 L131.544522,28.2696512 L132.852279,26.534084 L138.780812,26.1834804 L134.722694,36.542416 C134.659765,36.6799077 134.722694,36.7507687 134.784565,36.7507687 L135.222423,36.6799077 L139.342412,26.1157922 L145.711976,25.7694191 L145.153548,27.7138678 L146.402078,25.7694191 L152.895384,25.3511273 C156.024905,25.4225172 157.082532,27.5055151 157.332661,29.4520791 C159.707036,24.0312078 167.518146,22.5013491 169.886704,27.2998065 L172.321363,24.2427333 L182.879661,23.6858923 L180.002385,30.8460326 Z M171.946434,23.1983259 L170.135775,25.4225172 C167.326187,22.2908812 161.395539,22.5695661 157.645719,26.9497317 C156.832932,25.4225172 156.150762,24.7244828 153.651588,24.2427333 L133.786693,25.3511273 L134.908308,22.5695661 L127.660913,19.3036114 L126.790485,20.4881546 C120.357993,20.4881546 116.798018,23.7572822 114.736172,26.534084 C112.240699,30.631863 113.237514,33.9015194 116.110031,35.7793376 C115.051345,35.6344426 113.237514,34.8094929 112.426842,34.3933163 L109.422121,39.0426482 L106.746323,45.7860832 C110.304183,47.9431151 117.050791,49.0499226 120.609708,47.2424367 C122.106252,46.8315483 124.169155,45.4386524 125.229955,44.7453774 C125.913712,45.7860832 126.726499,46.5576227 128.476873,47.0351416 L135.660281,46.6210803 L134.784565,49.0499226 L144.345521,48.5015426 L145.650104,47.0351416 L146.08902,45.8569442 C149.40151,46.2710055 153.335357,44.5349095 154.269242,40.9209952 C154.327941,43.9738379 157.952431,45.4386524 160.836054,45.2302997 L171.508576,44.5349095 L173.198136,42.1742842 L176.198626,34.5281639 L178.441855,34.4546587 L180.504229,32.0210571 L184.318564,22.3612134 L171.946434,23.1983259 Z" id="Fill-31" fill="#00AEEF"></path>
                                <polygon id="Fill-33" fill="#ED1C24" points="180.046752 46.2118312 181.427485 42.5275847 186.177821 42.316588 184.742091 45.9305022"></polygon>
                                <polygon id="Fill-35" fill="#ED1C24" points="84.8706134 71.0936891 91.4310788 53.7856098 89.736759 53.9257455 93.3654801 48.9226371 102.983547 48.4350707 101.232116 53.2319416 96.551055 53.5079825 94.6092504 58.3730705 99.2321416 58.0917415 97.3569674 62.8230395 92.9207476 63.1011956 90.0529897 70.8187058"></polygon>
                                <path d="M112.664332,69.4948731 L116.907006,58.6520727 L115.158747,58.7192321 L119.090479,53.439554 L123.405071,53.1656284 L122.218942,56.2872169 C122.532,55.9397862 124.72076,53.439554 125.026415,53.0910656 L128.146417,52.8864146 L126.153317,58.0915299 L121.398223,58.3733878 L117.157135,69.2838763 L112.664332,69.4948731 Z" id="Fill-37" fill="#ED1C24"></path>
                                <path d="M128.403738,57.887302 L126.84215,58.0232072 L130.398953,52.7414139 L135.210102,52.397156 L133.77543,56.0110703 L137.143445,52.3231221 L139.766891,52.1866881 C142.199435,52.397156 141.642594,54.4817404 141.211082,55.6631107 L145.019071,51.8366133 L147.075628,51.6991217 C148.071914,51.7673386 149.261745,52.6731969 148.638273,54.4817404 L145.079884,63.7946822 L146.451628,63.6550753 L143.580168,67.6872814 L138.956219,67.9664951 L143.260236,56.980915 L140.643136,57.2569558 L136.398875,68.0325969 L131.648011,68.3155123 L135.831987,57.469539 L133.143497,57.6778917 L128.900294,68.4524751 L124.275288,68.7338041 L128.403738,57.887302 Z" id="Fill-39" fill="#ED1C24"></path>
                                <path d="M163.249719,60.7332727 C164.001692,54.0580547 169.24118,49.6858213 175.802703,50.175503 L173.927,55.1077503 C168.622468,53.8528749 164.75155,63.2377354 171.118999,62.3382229 L169.432082,66.5761376 C168.372868,66.5761376 163.249719,67.2678262 163.249719,60.7332727" id="Fill-41" fill="#ED1C24"></path>
                                <polygon id="Fill-43" fill="#ED1C24" points="172.432678 66.1577929 176.799623 54.8279549 174.743066 54.9649177 178.680614 49.8967652 183.298218 49.6207243 178.617157 61.7797426 180.1761 61.7083527 177.245942 65.8130062"></polygon>
                                <path d="M106.104766,66.0885712 C105.605037,66.1578458 104.545294,66.4312426 103.920236,65.6723946 C102.918662,64.1420072 104.102148,61.6380733 104.664805,60.8046626 C105.982081,58.7195493 108.288238,58.3731762 108.914883,58.788824 L106.104766,66.0885712 Z M115.22046,53.6397629 L110.847698,53.8528749 L110.53887,54.6899874 C110.478057,54.7571467 109.850884,53.5768341 106.979424,54.3441431 C102.170919,55.38432 99.1075001,60.8771101 99.1075001,65.1166112 C99.0451001,67.4058466 99.7373175,69.2202071 101.67119,70.0536179 C102.290431,70.3275435 102.855204,70.1852925 103.225374,70.2587977 L105.913864,66.7125716 L104.545294,69.9811704 L109.22371,69.7003702 L112.353231,65.7427269 L110.661555,65.8130591 L115.22046,53.6397629 Z" id="Fill-45" fill="#ED1C24"></path>
                                <path d="M155.395986,63.0571983 C154.022128,63.3342968 151.775726,62.9207643 153.152758,58.818226 C154.52503,55.1350371 158.33249,55.4798238 158.14529,55.9700343 L155.395986,63.0571983 Z M164.515911,50.6189664 L160.144735,50.8934208 L159.960179,51.6596721 C159.960179,51.731062 158.270619,50.6189664 155.838075,51.3117126 C150.777325,52.9113747 148.404537,57.9848153 148.218924,62.3649809 C148.463765,66.8826381 151.467956,67.4373639 152.212526,67.2332418 L155.271186,63.3342968 L153.770412,66.9503263 L158.33249,66.7425025 L161.081793,62.7155845 L159.834321,62.7806286 L164.515911,50.6189664 Z" id="Fill-47" fill="#ED1C24"></path>
                                <path d="M111.593272,42.5274261 L113.602236,37.4539855 C115.408665,38.0097689 117.410225,38.842122 120.091312,38.2863385 C121.094472,38.0753418 121.775055,37.5269618 122.219259,36.4079915 C122.657117,34.3292241 118.537128,33.6978203 117.410225,32.2404091 C115.788882,29.8068075 117.72011,27.0939922 119.7846,25.3615978 C120.653441,24.6609194 122.343002,23.8967833 123.469904,23.4784915 C124.720549,23.0644302 126.339248,22.9216504 127.526964,22.8560775 L128.025636,22.0263685 L132.274656,23.9708172 L130.524282,28.2769489 C129.277338,28.0717691 129.148308,27.9295181 127.091222,27.7951994 C125.962204,27.9295181 122.901958,27.9977351 123.026758,29.8068075 C122.842731,30.5682995 124.904576,31.6856833 126.400062,32.6597586 C128.281053,34.6745395 128.281053,37.3831244 126.53015,39.816726 C123.905647,43.7077387 118.283826,45.2375974 111.593272,42.5274261" id="Fill-49" fill="#ED1C24"></path>
                                <polygon id="Fill-51" fill="#ED1C24" points="171.182932 29.9472076 169.432029 30.0836416 173.002581 25.5643979 176.991424 25.2920588 175.930095 27.794935 178.122557 25.2920588 181.111413 25.0794756 179.485839 29.4569971 175.24105 29.7362109 171.62079 39.4690309 167.431526 39.7503599"></polygon>
                                <path d="M129.525405,41.3393928 C128.648632,40.7227957 128.834245,39.5356085 129.148361,38.3558247 L131.586722,32.3072512 L130.092294,32.444214 L133.275753,27.8572822 L137.204312,27.6521024 L133.643279,37.1083527 C133.458194,38.0755533 135.267795,37.9407058 136.022941,37.7307667 L139.953086,27.4474514 L144.263977,27.2343394 L140.330131,37.6599056 L141.703461,37.5271733 L138.893343,41.273291 L134.518995,41.5551488 L135.768053,38.4949027 C135.645897,38.5610045 132.707807,42.0427153 133.14355,41.6244235 C132.339753,41.6926405 130.153107,42.0427153 129.525405,41.3393928" id="Fill-53" fill="#ED1C24"></path>
                                <path d="M151.573455,32.7919091 C151.196411,34.8093342 149.888654,36.5454303 147.388422,36.2715047 L149.32388,31.2673386 C150.32704,31.198064 151.820411,30.7797722 151.573455,32.7919091 M152.757998,26.8205425 L149.949996,29.5968155 L151.07161,26.8205425 L146.764421,27.0944681 L143.764989,31.6063084 L145.201776,31.5396778 L140.1442,44.6844051 L144.388989,44.4025473 L146.573519,38.4951672 L146.637506,38.4951672 L146.884462,40.3724565 C155.132372,41.4105182 158.94089,27.7951465 152.757998,26.8205425" id="Fill-55" fill="#ED1C24"></path>
                                <path d="M164.099734,29.1784708 L164.198094,29.1710674 C164.875504,29.1578471 165.612671,29.1414539 165.450854,30.6718413 L162.301767,30.7739024 C162.488438,30.2191766 163.501646,29.1388098 164.099734,29.1784708 Z M168.000795,33.145104 C168.62268,31.8230692 168.935738,30.8479363 168.87228,29.2514471 C168.87228,27.9294124 167.80672,26.4720012 166.562949,26.0537094 C162.502716,25.0796342 160.439284,27.4476629 159.004612,29.1784708 C157.631283,31.2672858 156.567309,33.352399 156.505438,35.9229634 C156.567309,36.8938658 156.634468,37.1767812 157.006225,38.1418666 C157.254238,38.8420162 157.631283,39.3316979 158.255812,39.6764845 C158.815826,40.0196848 159.315555,40.2380849 160.065413,40.2380849 L160.125169,40.2380849 C161.689929,40.3724037 163.316032,39.9541119 164.687247,39.2534334 L166.434977,35.4364546 C164.501633,36.1339602 159.127826,37.4538797 161.001414,33.4920059 L168.000795,33.145104 Z" id="Fill-57" fill="#ED1C24"></path>
                                <path d="M189.002533,61.4046549 C187.637136,61.6743499 185.382273,61.2602887 186.756132,57.1598656 C188.13475,53.4745615 191.949084,53.8278092 191.757125,54.3111451 L189.002533,61.4046549 Z M197.971746,48.7823957 L193.613262,49.0568501 L193.420773,49.6861386 C193.354143,49.8236302 192.546115,48.7115346 189.862913,49.3381791 C185.609663,50.241922 182.117376,54.8283251 181.924359,60.2470812 C181.794271,62.756832 182.981987,65.4638304 186.045406,65.3242235 C186.045406,65.3242235 188.427184,62.2544588 188.909462,61.6256991 C188.92374,61.6008448 187.357393,65.1867319 187.357393,65.1867319 L191.669342,64.9799657 L194.794632,60.8044511 L193.228814,60.8768986 L197.971746,48.7823957 Z" id="Fill-59" fill="#ED1C24"></path>
                                <path d="M41.6044343,0 C64.5147681,0 83.2099262,21.6189702 83.2099262,48.1173064 C83.2099262,74.5823273 64.5147681,96.1711551 41.6044343,96.1711551 C18.6946293,96.1711551 0,74.5823273 0,48.1173064 C0,21.6189702 18.6946293,0 41.6044343,0" id="Fill-61" fill="#FEFEFE"></path>
                                <path d="M80.9127586,50.3356808 C80.7678636,52.2727261 80.7038771,54.1664087 80.3786566,55.8332302 C80.2173683,50.4948537 80.1851107,49.7079786 79.5018831,44.0676495 C79.1105608,40.2348063 78.6256384,37.8403369 77.9397668,35.0862741 C77.3792241,32.8509777 76.7256101,31.4194784 75.9593587,29.2825414 C74.9794665,27.0498891 74.5167544,26.1879224 73.1973637,23.6808157 C70.6384332,19.6512537 67.9991229,15.7676443 62.7326652,11.619628 C59.3466698,9.03425682 56.2663287,7.45257442 53.1764691,6.25058041 C50.2843858,5.15805087 46.5483155,4.17604344 41.4135325,4.14695868 C37.2586416,4.14695868 33.3359,5.02637621 29.5485348,6.34893979 C23.4856833,8.60803281 17.8892457,13.0030052 14.4535418,17.177991 C11.6058789,20.471444 9.49802662,23.8452768 8.29285972,26.3698344 C6.96077749,29.0900531 6.48907548,30.5178507 5.6609529,32.9926998 C4.81432183,35.7821932 4.42670123,37.2475365 3.80746015,41.053939 C3.35479544,44.6567482 3.35479544,45.7075014 3.28604963,49.5102022 C3.51608368,53.3790048 3.61391425,53.9020018 3.87303307,56.2271965 C3.87303307,56.2409457 4.71860651,61.3365965 5.41135273,64.5486122 L6.23841769,68.6305268 L5.47533921,66.6342542 C4.56419285,64.0076356 4.30242996,62.7680958 3.40820564,59.6803513 C2.65940515,55.9157251 2.24798793,53.4440489 2.08141155,49.0083578 C2.11102513,42.9899267 2.87727648,38.1756049 4.4711216,32.5342181 C6.18024816,27.1900248 8.82749058,22.0504824 12.4144353,17.5550353 C14.7205928,14.7665996 16.4540448,12.9765645 19.4751586,10.417634 C23.7162462,7.51127276 25.4523423,6.36744828 29.6960739,4.74980653 C32.8837641,3.66785327 34.8758061,3.1062529 38.8916189,2.69536449 C42.6213434,2.48912707 45.2379147,2.60758139 48.8523577,3.40133106 C55.3160501,4.95551514 58.763388,7.01154362 62.5782516,9.74180983 C66.0208301,12.3573234 66.4174405,12.8565238 68.5279369,15.055332 C71.4861219,18.4360393 73.026028,20.6105221 75.2174328,24.6046536 C77.6367564,29.5987721 78.0920652,30.9779188 79.4289068,35.6494609 C80.1708327,39.2046768 80.3300057,40.0687587 80.6726771,43.1829438 C80.90324,46.353712 81.025396,46.3711629 80.9127586,50.3356808 M5.74926482,48.285998 C6.03323789,39.9439586 7.02952329,36.0661662 9.56148429,29.45705 C12.6661508,22.994944 14.8036166,19.7929758 20.3815457,14.6529046 C25.251393,10.3081695 31.341214,7.36849301 37.7784657,6.6344993 C40.4833488,6.34418047 43.7249781,6.2236109 47.7698757,7.02000464 C52.6370789,8.40073776 53.1220012,8.51760563 57.4487566,10.9247665 C61.0060878,12.9543543 62.1721225,14.1002941 65.506823,17.4455709 C69.0371846,21.7638652 71.1677759,24.3148635 73.5622453,30.164603 C75.5262601,35.4215421 75.978396,37.2723908 76.6669117,42.0565702 C77.2893257,48.8417815 77.2052443,51.6032477 76.4072641,56.274261 C75.6383687,61.6232136 74.4437781,64.1155136 73.1069365,67.3143089 C70.8298638,72.1037765 70.1439922,73.3364417 66.6432441,77.8609735 C61.8194036,83.088299 59.9532193,84.3230795 55.2573518,86.8788371 C51.2420678,88.4309059 47.1850075,90.8798432 37.692269,89.9105273 C29.783857,88.6149332 25.0287623,86.0797993 20.0235387,81.8127999 C13.0209849,75.5569313 10.2225017,69.4089408 7.77197802,62.2916344 C6.39071609,56.4641051 6.03852603,54.9268431 5.74926482,48.285998 M78.1994144,58.4064386 C77.6653124,61.3603931 76.615088,64.5258732 75.7023552,66.7527086 C74.8943275,68.806093 74.5315612,69.3618764 73.5379198,71.3766574 C72.1006036,73.9535676 71.787017,74.3924831 70.5189212,76.2650132 C67.7008719,79.9370969 66.1387556,81.8619796 61.5698034,85.4045039 C58.2102487,87.8772378 54.9702059,89.3922896 51.1542847,90.6688464 C49.8459991,91.0728602 46.9422819,91.8734845 43.0734793,92.0749626 C36.1978409,92.2531729 31.531587,90.6524532 30.224359,90.1056596 C27.3687639,89.0009673 24.7273384,87.9042073 21.0277563,85.0999071 C18.0849069,82.8461023 14.5540164,79.0095573 14.5540164,79.0095573 C11.943791,75.9276299 9.51071816,72.0778646 7.69318475,67.8431228 C6.16544137,63.9679745 5.68051901,61.9018986 5.68051901,61.9018986 C5.68051901,61.9018986 5.13213899,59.0642831 5.02954909,56.8062477 C4.94652531,55.012511 4.83864727,53.4424625 4.9803694,51.2827865 C5.56841046,55.3578264 4.79211164,53.8427746 7.07658773,62.7955941 C8.38910385,66.967407 8.89782283,67.5628515 9.50754527,68.8536862 C10.9353428,71.7494712 11.8062993,73.5278724 14.6645385,77.1872646 C18.5645411,82.0047593 21.3899938,84.2760151 26.1990275,86.9475829 C32.5823402,90.5043853 39.533599,91.4377418 46.6509054,90.4689548 C51.2124542,89.4398829 54.6597921,88.1987566 58.8707372,85.6149719 C63.0578858,83.0121498 66.7558814,79.2882423 69.4343239,75.4490533 C71.1677759,72.5453361 72.8769024,69.8420394 74.0736083,66.7040577 C75.7504772,62.6454109 76.6076846,59.3265748 77.2052443,55.09765 C77.7171362,50.8079116 77.9741397,48.9887917 77.5484445,44.4684904 C77.2893257,41.1459526 77.2692308,40.5531522 76.6743151,37.9069674 C78.6970283,43.3405304 78.547374,43.577439 78.9434556,46.2199221 C79.2427643,51.2970644 79.0465743,54.123046 78.1994144,58.4064386 M81.5319997,45.4404504 C81.1597147,40.0412604 80.5653279,37.0153872 79.4802017,33.2259067 C78.0576923,28.7056054 76.9461255,26.1762885 74.6981375,22.0949027 C73.5622453,20.1848269 72.6458108,19.0124465 71.2523861,17.0727571 C68.5792318,13.8115617 67.5533328,12.7586932 65.2767889,10.789919 C61.718929,7.67361863 58.3027911,5.85396997 54.5429242,4.26488418 C51.1294304,2.97722231 49.2759377,2.38706599 44.8635144,1.91906568 C41.107878,1.65254347 39.655755,1.65254347 35.3855827,2.30298457 C29.4919517,3.38546665 26.1011969,5.15064747 21.1768818,8.14267657 C17.5365269,10.6968478 15.1119151,13.0495408 12.0368622,16.8390213 C10.4160476,19.0732601 9.02050766,20.980163 7.73972037,23.1821441 C5.09300676,28.2032322 4.52453181,30.0815792 3.64088376,32.9614998 C2.72762214,36.60397 1.9883403,39.8043518 1.7070113,43.5314322 C1.36381107,47.8793401 1.36381107,48.763517 1.67739772,52.8443739 C2.39023887,58.1018418 2.30668627,58.0748723 3.35691069,62.0668885 C5.20617294,68.1181061 5.49173245,68.4100114 7.48536088,72.4676005 C9.93165403,76.7245524 10.9009699,77.95616 14.174328,81.9508203 C17.8204999,85.65146 21.2043801,88.3224991 25.8753934,90.7323041 C31.3110716,93.1722515 33.9334597,93.9966723 40.2237012,94.4028014 L40.4246505,94.4028014 C44.9787959,94.463615 47.5107568,94.0527266 51.1294304,93.110909 C56.9908038,91.2024196 60.3794433,89.4700253 65.5311484,85.1517309 C71.4808337,79.6631713 72.8224346,77.1925528 75.2956973,72.9927127 C76.5785998,70.380372 76.8334881,70.2635041 78.3707501,66.2973998 C79.5954832,62.7183872 79.8159986,61.9664139 80.7779111,57.6269669 C81.5394031,52.1574447 81.7033354,50.9966981 81.5319997,45.4404504" id="Fill-63" fill="#00AEEF"></path>
                                <path d="M18.3954793,56.5244957 L19.4583952,62.7533947 L25.2954432,21.1130011 L28.7136963,21.141557 L34.5481001,62.3070758 C37.7802108,59.1341923 46.139701,59.0146804 49.3078252,62.3768792 L54.556832,21.0833875 L58.063397,21.0833875 L63.7825195,62.7533947 L64.8798083,56.5244957 L67.0907793,56.5244957 L65.511741,64.6518367 L61.6915893,64.6518367 L56.5107994,27.1626322 L56.2247111,27.1626322 L51.5695622,64.6518367 L48.1756346,64.6518367 C45.6468465,61.6534618 38.0885093,61.6534618 35.4148261,64.6518367 L32.1657935,64.6518367 L27.1050444,27.1626322 L26.818956,27.1626322 L21.8163765,64.6518367 L17.737106,64.6518367 L17.5906245,64.6518367 L16.0131726,56.5107465 L18.3954793,56.5244957 Z M23.6571777,15.3462854 L25.753396,15.3462854 L25.753396,13.3902028 L28.1383467,13.3902028 L28.1108484,15.3462854 L30.2387956,15.3462854 L30.2387956,17.4202936 L28.1108484,17.4202936 L28.1108484,19.4086339 L25.7824808,19.4086339 L25.753396,19.4086339 L25.753396,17.4499071 L23.6571777,17.4499071 L23.6571777,15.3462854 Z M43.1593058,35.7648481 L42.8652853,35.0520069 L40.5665312,35.0520069 L40.2725107,35.7648481 L38.171533,35.7648481 L40.3021243,31.6173606 L43.1593058,31.6443301 L45.3168666,35.7648481 L43.1593058,35.7648481 Z M40.7082534,46.9069571 L42.6913055,46.9069571 L42.6913055,42.6981272 L40.7082534,42.6981272 L40.7082534,46.9069571 Z M40.595616,40.1317933 L45.0794291,40.1317933 L45.0794291,41.5257468 L39.2148829,41.5257468 C38.8722115,41.4961332 38.353445,41.3200382 38.2968619,40.6685394 L38.2968619,37.7621782 C38.2968619,37.3460017 38.5829503,37.0530387 39.1873846,36.9002115 L45.0519308,36.9002115 L45.0519308,38.3602667 L40.595616,38.3602667 C40.3359684,38.3602667 40.1947751,38.5009312 40.1947751,38.8007687 L40.1947751,39.686532 C40.1947751,39.9556983 40.3359684,40.1317933 40.595616,40.1317933 Z M43.1471431,52.104669 L42.8531226,51.3965872 L40.5522533,51.3965872 L40.260348,52.104669 L38.1625432,52.104669 L40.3164023,47.981507 L43.1471431,47.981507 L45.3020598,52.104669 L43.1471431,52.104669 Z M44.2539506,57.9776763 L38.2011466,57.9776763 L38.2011466,56.765106 L43.4554416,56.765106 C43.5093806,56.7333772 43.5971638,56.7333772 43.622018,56.6128076 L43.622018,56.2902311 C43.622018,56.1691327 43.5093806,56.0771191 43.3972721,56.0771191 L38.9187471,56.0771191 C38.3285908,56.0771191 38.2154246,55.7878579 38.1963873,55.3859593 L38.2011466,53.82966 C38.2011466,53.471653 38.4946383,53.167585 38.8669233,53.167585 L45.1645682,53.1749884 L45.1645682,54.3315044 L40.4290396,54.3315044 C40.3116429,54.3315044 40.1847276,54.446257 40.1847276,54.5340401 L40.1847276,54.7799386 C40.1968903,54.9348811 40.3465447,55.0194913 40.4687007,55.0094438 L44.3618287,55.0094438 C44.9001612,55.0432879 45.1915377,55.2706779 45.1989411,55.7191121 L45.1941818,57.2669504 C45.2523513,57.683127 44.8515103,57.9776763 44.2539506,57.9776763 Z M37.8880888,26.3054249 L40.4290396,26.3054249 L41.5802675,28.5285585 L42.8483633,26.3054249 L45.3311446,26.3054249 L45.3311446,30.4248852 L43.3528517,30.4248852 L43.3528517,28.3212635 L42.2698408,30.4365191 L40.8113721,30.4248852 L39.7780697,28.3212635 L39.7780697,30.4560852 L37.8880888,30.4872852 L37.8880888,26.3054249 Z M45.1354834,25.0278105 L42.6913055,25.0278105 L42.0842272,23.8432673 L40.3439006,23.8432673 L40.3439006,25.0278105 L38.2402789,25.0278105 L38.2402789,20.9686349 L44.2201065,20.9686349 C44.738873,20.9977197 44.9546291,21.1764588 44.9546291,21.6777743 L44.983185,22.9834159 C44.983185,23.3990636 44.5548457,23.6322705 44.0678081,23.6322705 L45.1354834,25.0278105 Z M40.2286192,15.7143399 L43.0440244,15.7106382 L45.250236,19.8718748 L43.0789261,19.8718748 L42.8145192,19.1569184 L40.4639413,19.1569184 L40.1990056,19.8718748 L38.0599533,19.8718748 L40.2286192,15.7143399 Z M38.2698924,10.3199092 L44.9985206,10.3199092 L44.9985206,11.5076252 L40.3412565,11.5076252 L40.3412565,12.1564799 L44.8948731,12.1517206 L44.9001612,13.4346231 L40.3095277,13.4346231 L40.3095277,14.4430712 L38.2698924,14.4430712 L38.2698924,10.3199092 Z M52.9926005,15.3494583 L55.0909341,15.3494583 L55.0909341,13.4245757 L57.5345831,13.4245757 L57.5345831,15.3494583 L59.6323879,15.3494583 L59.6323879,17.4551953 L57.5345831,17.4551953 L57.5345831,19.3816643 L55.0808866,19.3747898 L55.0909341,17.4837512 L52.9926005,17.4837512 L52.9926005,15.3494583 Z M63.6117126,77.8436284 L63.5530142,76.4507326 L62.7597934,76.4829902 L62.7597934,77.932998 L61.1659483,78.0810659 L61.8190334,67.0214518 L64.3800792,66.992367 L65.1468594,77.6950317 L63.6117126,77.8436284 Z M59.1601571,78.2629779 L58.592211,74.4322499 L58.3743396,74.4454703 L58.3743396,78.2947067 L56.713864,78.3512898 L56.713864,67.1388485 L59.2727945,67.1150518 C60.1157238,67.1462519 60.6392496,67.8389981 60.6392496,68.890809 C60.6392496,68.890809 60.6445377,73.1572796 60.6366055,73.1625677 C60.6344903,73.1657406 60.7122259,73.8669478 60.1003882,74.139287 L60.9528362,78.1424083 L59.1601571,78.2629779 Z M54.542554,78.4359 L54.4864998,77.2249162 L53.5462686,77.2249162 L53.5721805,78.5242119 L51.95401,78.5860832 L52.579068,67.2546587 L55.2522223,67.1986044 L56.1337551,78.3772017 L54.542554,78.4359 Z M51.5552843,77.3095264 C51.5283148,78.4359 51.073006,78.7325646 50.220558,78.7325646 L48.8816011,78.7325646 C48.1423193,78.7325646 47.7182105,78.5538255 47.6034579,77.8436284 L47.6034579,75.0578368 L49.1650454,75.0578368 L49.1650454,76.8944075 C49.1650454,77.0493499 49.2248014,77.1625161 49.3659947,77.1625161 L49.6504966,77.1625161 C49.8218323,77.1625161 49.8805306,77.0720889 49.8805306,76.9234922 L49.8805306,67.2546587 L51.6139826,67.2546587 L51.5552843,77.3095264 Z M45.8113076,78.8256359 L45.727755,77.5786927 L44.846751,77.5786927 L44.786995,78.8256359 L43.2841059,78.8256359 L43.9921877,67.4963267 L46.3818978,67.4963267 L47.2904001,78.7933782 L45.8113076,78.8256359 Z M41.8251083,84.9736264 C41.1910605,84.9736264 40.6738805,84.465965 40.6738805,83.7853815 C40.6738805,83.1634964 41.1910605,82.6283367 41.8251083,82.6283367 C42.4565121,82.6283367 42.9710481,83.1634964 42.9710481,83.7853815 C42.9710481,84.465965 42.4565121,84.9736264 41.8251083,84.9736264 Z M42.883265,77.0720889 L42.883265,78.8256359 L39.7024493,78.8552494 L39.7024493,67.4651267 L41.3793182,67.4651267 L41.3793182,77.0720889 L42.883265,77.0720889 Z M37.4814309,78.8552494 L37.3984071,77.6030181 L36.6004269,77.6030181 L36.5729286,78.762707 L35.0081682,78.7933782 C35.2085887,75.7997627 35.4936194,71.4391632 35.8336468,67.4058995 L38.2207127,67.4058995 L39.0171065,78.8552494 L37.4814309,78.8552494 Z M34.6945816,69.0362328 L34.6945816,76.9234922 C34.5528595,77.8436284 34.1567778,78.4972424 33.2747162,78.5860832 L31.0002876,78.5538255 L31.0002876,67.3144147 L33.4465808,67.3144147 C34.4693069,67.3762859 34.7538087,68.177439 34.6945816,69.0362328 Z M28.6962454,78.4094593 L28.6692759,78.4094593 L28.6692759,77.1625161 L27.8443262,77.1625161 L27.7613024,78.3190321 L26.2240404,78.291005 L27.2176817,67.1711061 L29.6930596,67.1986044 C29.8617513,70.9637595 30.1462532,74.7030026 30.3466736,78.4359 L28.6962454,78.4094593 Z M25.7433486,77.1307873 C25.6555654,78.0202523 25.0580057,78.2016355 24.6021681,78.2016355 L22.4726345,78.1133235 C22.0437664,78.0202523 21.7597934,77.6950317 21.7597934,77.1307873 L21.7867629,67.1362044 L23.3832521,67.1711061 L23.4123368,76.3354512 L24.1764729,76.3354512 L24.1764729,67.1711061 L25.7433486,67.1986044 L25.7433486,77.1307873 Z M21.1061794,77.0493499 C21.0786811,77.5474926 20.5942875,77.9911675 19.9115888,77.9631404 L18.4034115,77.932998 C17.722828,77.9054997 17.5800482,77.3095264 17.5509635,76.6273564 C17.5509635,73.394717 17.6392754,68.7110122 17.5800482,68.0277847 C17.5800482,67.555025 17.8370518,67.0510654 18.3737979,67.1102925 L20.9639284,67.1102925 L20.9639284,69.0055616 L19.0887543,69.0055616 L19.0887543,71.6496311 L20.4504501,71.6781871 C20.9105182,71.7374142 21.1061794,72.178445 21.1061794,72.5375097 L21.1061794,77.0493499 Z M24.4414087,84.0476732 C28.6618725,86.5997291 30.7898197,87.39295 34.9299038,88.557927 C39.3174728,89.3997988 42.7775022,89.5060904 48.0101158,88.6758526 C55.8593007,86.2422509 57.6958714,84.7583991 63.1902479,80.2529046 C66.5498027,76.8129701 68.6211667,74.5596941 71.2657651,69.2821312 C73.8802211,63.6158902 74.7152182,62.2198215 76.0398971,53.6530362 C76.5084262,47.0444487 76.358243,46.0116752 75.4328187,39.2386266 C73.8141193,31.5190012 71.1483684,26.1494248 67.0987115,20.6153872 C62.6122543,14.9766445 59.4245641,13.0522907 54.5642354,10.4103364 C50.5716904,8.66472166 48.7890587,8.04072125 43.7547503,7.3886937 C37.978516,7.3886937 35.3905007,7.95452458 32.4302004,8.77947428 C26.7671323,11.0084249 25.645518,11.5419981 21.6201865,14.7476681 C19.0935136,16.9649848 19.0348153,17.055412 16.4780001,19.8739901 C13.8339305,23.2229686 13.9169543,23.1325414 12.0761531,26.3091266 C9.80648377,31.0827297 9.49078187,31.97431 8.22691663,36.0948279 C7.10318707,40.604553 7.0471328,42.0545607 6.67220374,46.0312413 C6.67220374,51.7826214 6.75998684,52.3458082 7.45114662,57.1812826 C8.82923567,64.4461281 11.0137659,69.3688567 15.9597624,76.162529 C18.4293234,79.4237244 21.3044846,81.7954548 24.4414087,84.0476732 Z" id="Fill-65" fill="#00AEEF"></path>
                                <path d="M32.819619,69.1245976 L32.5499239,69.1245976 C32.5499239,69.1245976 32.5404053,76.7384602 32.5499239,76.7342297 C32.555212,76.7247111 32.7651512,76.7469213 32.7651512,76.7469213 C33.2897346,76.7125484 33.2357955,76.0420123 33.2357955,76.0420123 L33.2357955,69.8945506 C33.2357955,69.8945506 33.3093007,69.1520959 32.819619,69.1245976" id="Fill-67" fill="#00AEEF"></path>
                                <polygon id="Fill-69" fill="#00AEEF" points="36.913802 70.963548 36.6589137 76.1253005 37.283443 76.1253005 37.3691108 76.1253005 37.1729209 70.963548"></polygon>
                                <path d="M19.6859967,73.4857788 C19.6859967,73.2795414 19.6563832,73.1875277 19.088437,73.2181989 L19.088437,76.1547026 L19.458078,76.1811433 C19.6563832,76.125089 19.7124374,76.0050482 19.6859967,75.6787701 L19.6859967,73.4857788 Z" id="Fill-71" fill="#00AEEF"></path>
                                <polygon id="Fill-73" fill="#00AEEF" points="45.1305654 70.6382216 44.8756771 76.0627947 45.614959 76.0627947 45.3019012 70.6382216"></polygon>
                                <polygon id="Fill-75" fill="#00AEEF" points="28.2410424 70.6382216 27.929571 75.7999742 28.6402969 75.7999742 28.4975172 70.6382216"></polygon>
                                <polygon id="Fill-77" fill="#00AEEF" points="53.8590621 70.5184453 53.660228 75.708225 54.4270082 75.708225 54.1160656 70.5184453"></polygon>
                                <path d="M63.0141529,70.1631352 L62.8428172,75.1466775 L63.4689328,75.1133622 L63.2420717,70.1017928 C63.0437664,70.0446809 63.0437664,70.1329928 63.0141529,70.1631352" id="Fill-79" fill="#00AEEF"></path>
                                <path d="M58.7216646,69.0052972 L58.3520237,69.0269785 L58.3573118,72.6393064 L58.6899358,72.6170962 C58.9056918,72.5546961 59.0082817,72.3791299 59.0278479,71.9476178 L59.0278479,69.7646739 C59.0278479,69.4230602 58.9786682,69.0629379 58.7216646,69.0052972" id="Fill-81" fill="#00AEEF"></path>
                                <path d="M42.8019863,22.2099198 L40.4736186,22.2099198 L40.4736186,22.7138794 L42.7432879,22.6890252 C42.8585694,22.6890252 42.8871253,22.5996556 42.8871253,22.5668692 L42.8871253,22.3611606 C42.8871253,22.3611606 42.9172677,22.2099198 42.8019863,22.2099198" id="Fill-83" fill="#00AEEF"></path>
                                <polygon id="Fill-85" fill="#00AEEF" points="41.4381223 32.8598089 40.9436813 33.9581553 42.4867603 33.9581553 41.9917905 32.8598089"></polygon>
                                <polygon id="Fill-87" fill="#00AEEF" points="41.9334094 16.9620763 41.3744531 16.9620763 40.8778969 18.0620092 42.4029962 18.0620092"></polygon>
                                <polygon id="Fill-89" fill="#00AEEF" points="41.4257481 49.202697 40.9609207 50.2983994 42.4765013 50.2983994 42.0111451 49.202697"></polygon>
                            </g>
                        </g>
                    </g>
                </g>
            </g>
        </g>
    </g>
</svg>